<svg width="314" height="169" viewBox="0 0 314 169" fill="none" xmlns="http://www.w3.org/2000/svg">
<path d="M95.7383 146L262.238 132" stroke="white"/>
<path d="M0.674805 33.7383L294.46 0.983842L288.714 13.6098L299.208 30.2968L297.585 49.7471L305 58.0056L295.438 114.319L309.482 135.721L15.6968 168.475L0.674805 33.7383Z" fill="black"/>
<path d="M40.8439 78.4099L39.0606 78.6088L37.0638 74.2499L30.8038 74.9479L29.8403 79.6367L28.057 79.8356L31.557 63.4164L33.8136 63.1649L40.8439 78.4099ZM36.427 72.8347L32.8598 64.9662L31.1133 73.4272L36.427 72.8347ZM53.259 73.7586C53.3807 74.8504 53.067 75.7084 52.3177 76.3323C51.5756 76.9473 50.4524 77.3387 48.948 77.5064L42.9306 78.1773L41.67 66.8704L47.3113 66.2414C47.8613 66.1801 48.4081 66.1642 48.9519 66.1936C49.5028 66.2141 50.0007 66.3101 50.4456 66.4815C50.8896 66.6449 51.2663 66.9018 51.5755 67.2522C51.8848 67.6026 52.0737 68.0851 52.1423 68.6998C52.2072 69.2821 52.1202 69.7872 51.8813 70.2151C51.6424 70.6429 51.1222 71.008 50.3207 71.3103C51.3578 71.4321 52.0881 71.7028 52.5116 72.1223C52.9341 72.5338 53.1833 73.0792 53.259 73.7586ZM50.491 68.9821C50.4523 68.6344 50.3281 68.3657 50.1187 68.1762C49.9083 67.9785 49.6593 67.8384 49.3717 67.7558C49.0913 67.6643 48.783 67.6168 48.4469 67.6133C48.1108 67.6098 47.785 67.6257 47.4696 67.6608L43.4903 68.1045L43.8528 71.3558L47.8321 70.9122C48.1637 70.8752 48.4971 70.8176 48.8322 70.7393C49.1674 70.661 49.4658 70.5458 49.7272 70.3938C49.9878 70.2338 50.1877 70.0436 50.3269 69.8234C50.4733 69.5942 50.528 69.3137 50.491 68.9821ZM51.5888 73.8711C51.5149 73.2079 51.1898 72.7528 50.6137 72.5059C50.0375 72.259 49.2803 72.1878 48.3421 72.2924L44.0111 72.7753L44.4344 76.5725L48.7655 76.0897C49.7037 75.9851 50.4262 75.7448 50.9329 75.369C51.4396 74.9932 51.6583 74.4938 51.5888 73.8711ZM66.541 69.5019L65.1216 69.6601L64.6847 65.7415L61.2878 66.1202L62.2319 74.5883L64.7796 74.3042L64.9378 75.7237L58.1561 76.4798L57.9979 75.0603L60.5577 74.7749L59.6136 66.3069L56.2166 66.6856L56.6535 70.6042L55.2341 70.7625L54.639 65.4245L65.9459 64.1638L66.541 69.5019ZM80.4348 68.309C80.5331 69.1906 80.4808 70.0071 80.278 70.7585C80.0833 71.5089 79.7519 72.1723 79.2839 72.7485C78.8231 73.3158 78.245 73.7856 77.5495 74.1579C76.8541 74.5302 76.0574 74.7664 75.1597 74.8665C74.2781 74.9648 73.4571 74.9089 72.6968 74.6989C71.9364 74.4889 71.2649 74.1585 70.6824 73.7075C70.1071 73.2476 69.6377 72.6735 69.2744 71.9853C68.9192 71.2961 68.6924 70.5107 68.5941 69.6291C68.4985 68.7718 68.5472 67.9598 68.7401 67.1932C68.9403 66.4175 69.2703 65.742 69.7302 65.1667C70.1973 64.5824 70.7786 64.1041 71.474 63.7317C72.1686 63.3513 72.9566 63.112 73.8382 63.0137C74.736 62.9136 75.5655 62.9726 76.3268 63.1907C77.0871 63.4007 77.7554 63.7397 78.3317 64.2077C78.9151 64.6667 79.3858 65.2529 79.7437 65.9664C80.1089 66.6708 80.3392 67.4517 80.4348 68.309ZM78.7727 68.4943C78.7006 67.8473 78.5373 67.2636 78.2828 66.7434C78.0354 66.2142 77.7027 65.764 77.2847 65.393C76.8667 65.022 76.3777 64.749 75.8177 64.574C75.2659 64.398 74.6583 64.347 73.9951 64.421C73.3319 64.4949 72.7465 64.6789 72.2388 64.973C71.7393 65.2662 71.3305 65.6393 71.0125 66.0923C70.6946 66.5454 70.4692 67.0577 70.3364 67.6293C70.2108 68.192 70.184 68.7968 70.2562 69.4438C70.3283 70.0909 70.4881 70.679 70.7354 71.2082C70.9899 71.7285 71.3213 72.1665 71.7294 72.5222C72.1375 72.8779 72.6171 73.1397 73.168 73.3076C73.7271 73.4745 74.3382 73.521 75.0014 73.4471C75.6646 73.3731 76.2465 73.1936 76.7469 72.9086C77.2555 72.6226 77.6737 72.2607 78.0016 71.8229C78.3294 71.3851 78.5562 70.8849 78.6818 70.3223C78.8146 69.7507 78.8449 69.1414 78.7727 68.4943ZM93.7044 66.805C93.8027 67.6866 93.7544 68.5026 93.5597 69.2531C93.365 70.0036 93.0462 70.6696 92.6033 71.2513C92.1677 71.8239 91.6143 72.295 90.9431 72.6646C90.2719 73.0343 89.4996 73.2678 88.6261 73.3651C88.0276 73.4319 87.4331 73.3876 86.8426 73.2324C86.2601 73.0762 85.7024 72.8108 85.1693 72.4363L85.7875 77.9805L84.1254 78.1659L82.3603 62.3338L84.0223 62.1485L84.1387 63.1918C85.0684 62.2038 86.1237 61.644 87.3046 61.5123C88.1781 61.4149 88.9829 61.4726 89.719 61.6853C90.4542 61.8899 91.0982 62.2316 91.6511 62.7104C92.2112 63.1802 92.6697 63.7678 93.0268 64.4732C93.3829 65.1704 93.6088 65.9477 93.7044 66.805ZM92.0423 66.9903C91.972 66.3595 91.8172 65.779 91.5779 65.2488C91.3459 64.7097 91.0334 64.2573 90.6405 63.8917C90.2477 63.5261 89.7834 63.2544 89.2477 63.0767C88.7201 62.898 88.1247 62.8457 87.4615 62.9196C86.8306 62.9899 86.2533 63.173 85.7294 63.4689C85.2137 63.7639 84.7425 64.2013 84.3158 64.7811L84.9921 70.847C85.536 71.3186 86.0915 71.6375 86.6587 71.8035C87.2339 71.9686 87.8369 72.016 88.4678 71.9457C89.131 71.8718 89.7003 71.6896 90.1756 71.3991C90.659 71.1078 91.052 70.7405 91.3547 70.2973C91.6574 69.8542 91.8634 69.3522 91.9729 68.7913C92.0895 68.2215 92.1126 67.6212 92.0423 66.9903ZM42.2553 103.407L40.5811 103.594L39.1108 90.4068L37.2186 98.884L36.0297 99.0165L32.3291 91.1629L33.7994 104.35L32.1373 104.536L30.3722 88.7034L32.5316 88.4627L36.3415 96.4147L38.3307 87.8161L40.4901 87.5754L42.2553 103.407ZM44.7412 100.035C44.6618 99.3233 44.7735 98.709 45.0761 98.1922C45.3779 97.6672 45.8006 97.2353 46.3441 96.8962C46.8949 96.5482 47.5356 96.2721 48.2661 96.0678C49.0039 95.8546 49.761 95.7046 50.5374 95.6181C50.8367 95.5847 51.104 95.559 51.3395 95.5409C51.583 95.522 51.8108 95.5089 52.0229 95.5016C52.2431 95.4934 52.4637 95.4893 52.6848 95.4892C52.9059 95.4891 53.1476 95.4908 53.41 95.4943L53.3194 94.6815C53.2581 94.1315 53.0863 93.6921 52.804 93.3633C52.5298 93.0336 52.2075 92.787 51.8372 92.6236C51.4659 92.4521 51.0857 92.3471 50.6966 92.3086C50.3065 92.262 49.9781 92.2536 49.7112 92.2833C48.87 92.3771 48.1062 92.5769 47.4197 92.8827C46.7332 93.1885 46.1038 93.5658 45.5315 94.0144L44.64 92.8487C45.2734 92.3605 45.9963 91.9401 46.8086 91.5875C47.628 91.2259 48.5433 90.9887 49.5543 90.876C50.1689 90.8075 50.7805 90.8212 51.389 90.9171C52.0046 91.0041 52.5655 91.1872 53.0715 91.4665C53.5848 91.7368 54.0127 92.1231 54.3553 92.6253C54.6979 93.1276 54.9107 93.7507 54.9936 94.4948L55.8187 101.895L54.1445 102.082L53.9335 100.189C53.6829 100.586 53.3869 100.942 53.0455 101.259C52.7122 101.574 52.3533 101.844 51.9688 102.067C51.5833 102.281 51.1933 102.456 50.7989 102.59C50.4053 102.732 50.0265 102.824 49.6626 102.864C48.1663 103.031 47.002 102.87 46.1696 102.381C45.3372 101.893 44.8611 101.111 44.7412 100.035ZM49.5043 101.445C50.1999 101.367 50.8114 101.197 51.3388 100.933C51.8734 100.661 52.3177 100.349 52.6717 99.9984C53.0256 99.6478 53.2884 99.2869 53.4599 98.9156C53.6395 98.5435 53.7135 98.2159 53.6819 97.9328L53.5629 96.8652C53.012 96.8448 52.4854 96.8584 51.983 96.9063C51.4887 96.9532 51.0596 96.9969 50.6957 97.0375C50.0972 97.1042 49.5234 97.2091 48.9743 97.3522C48.4334 97.4944 47.967 97.6815 47.5753 97.9135C47.1826 98.1375 46.8772 98.409 46.6589 98.7281C46.4407 99.0472 46.3554 99.4211 46.4032 99.8498C46.4564 100.327 46.7361 100.742 47.2422 101.095C47.7554 101.439 48.5095 101.556 49.5043 101.445ZM68.2744 90.6681C67.6426 90.4356 66.9141 90.3653 66.0892 90.4573C65.4098 90.5331 64.8194 90.7463 64.3181 91.097C63.8168 91.4476 63.4067 91.8823 63.0878 92.401C62.7681 92.9116 62.5414 93.4855 62.4077 94.1227C62.2812 94.7509 62.2541 95.3886 62.3262 96.0356L62.7333 99.6873L65.2932 99.4019L65.4514 100.821L58.6697 101.577L58.5114 100.158L61.0713 99.8726L60.1272 91.4045L57.5673 91.6899L57.4091 90.2705L61.631 89.7998L61.9475 92.6387C62.4769 90.4834 63.8052 89.2872 65.9323 89.05C66.5065 88.986 67.008 88.9669 67.4367 88.9928C67.8734 89.0178 68.2842 89.1031 68.6689 89.2485L68.2744 90.6681ZM83.5157 98.8073L81.15 99.071L75.9624 94.5153L74.1326 96.6108L74.4896 99.8136L72.8276 99.9989L71.0624 84.1668L72.7245 83.9815L73.908 94.5969L79.671 87.7885L82.0489 87.5234L76.9622 93.3475L83.5157 98.8073ZM109.807 91.7C109.881 92.3632 109.81 92.9811 109.596 93.5536C109.38 94.1181 109.064 94.6201 108.646 95.0597C108.228 95.4994 107.732 95.8577 107.157 96.1347C106.582 96.4117 105.971 96.5863 105.324 96.6584C104.434 96.7576 103.599 96.6829 102.817 96.4342C102.036 96.1856 101.391 95.7621 100.883 95.1638L101.071 96.8501L99.6633 97.007L99.1263 92.1906L100.534 92.0337C100.594 92.5756 100.775 93.0591 101.076 93.484C101.376 93.9009 101.739 94.2495 102.163 94.5297C102.587 94.8099 103.06 95.0151 103.583 95.1452C104.112 95.2663 104.64 95.2976 105.165 95.239C105.634 95.1867 106.06 95.0737 106.442 94.9002C106.823 94.7185 107.149 94.4896 107.422 94.2136C107.693 93.9295 107.894 93.6001 108.024 93.2253C108.162 92.8496 108.206 92.4353 108.155 91.9823C108.099 91.4728 107.937 91.0487 107.67 90.71C107.411 90.3704 107.077 90.0923 106.668 89.8759C106.267 89.6586 105.822 89.4871 105.333 89.3615C104.843 89.2277 104.346 89.099 103.841 88.9751C103.244 88.837 102.646 88.6907 102.047 88.5363C101.448 88.3739 100.903 88.1481 100.412 87.8589C99.9212 87.5697 99.5072 87.1982 99.1701 86.7445C98.832 86.2827 98.6224 85.6879 98.5412 84.96C98.4691 84.3129 98.5425 83.7234 98.7616 83.1913C98.9798 82.6511 99.2919 82.1823 99.698 81.7849C100.104 81.3875 100.592 81.0669 101.163 80.8232C101.733 80.5713 102.329 80.4107 102.952 80.3413C103.72 80.2556 104.445 80.3344 105.127 80.5777C105.818 80.8201 106.381 81.2445 106.817 81.851L106.633 80.201L108.101 80.0374L108.606 84.5626L107.138 84.7262C107.084 84.249 106.934 83.8155 106.686 83.4255C106.445 83.0266 106.138 82.7005 105.766 82.4472C105.393 82.1858 104.978 81.9946 104.523 81.8734C104.066 81.7442 103.595 81.7066 103.11 81.7607C102.681 81.8085 102.278 81.9026 101.901 82.0429C101.523 82.1832 101.201 82.3788 100.934 82.6297C100.667 82.8724 100.463 83.1735 100.323 83.5331C100.191 83.8917 100.151 84.3056 100.203 84.7747C100.249 85.1871 100.39 85.5277 100.624 85.7963C100.867 86.064 101.175 86.2917 101.548 86.4794C101.92 86.659 102.343 86.8166 102.817 86.9521C103.297 87.0786 103.787 87.2083 104.285 87.3411C104.907 87.4847 105.527 87.653 106.147 87.846C106.766 88.0389 107.33 88.2913 107.84 88.6029C108.35 88.9146 108.784 89.3206 109.143 89.8211C109.501 90.3134 109.722 90.9397 109.807 91.7ZM118.193 81.2091L115.936 81.4607L115.683 79.192L117.94 78.9404L118.193 81.2091ZM121.962 94.5209L115.18 95.277L115.022 93.8576L117.581 93.5722L116.637 85.1042L114.078 85.3895L113.919 83.9701L118.153 83.4981L119.256 93.3855L121.803 93.1015L121.962 94.5209ZM137.794 92.7558L136.132 92.9411L135.225 84.8127C135.153 84.1657 134.984 83.6769 134.718 83.3463C134.452 83.0156 134.104 82.8742 133.676 82.922C133.045 82.9924 132.617 83.3758 132.392 84.0724C132.174 84.7681 132.132 85.7144 132.266 86.9114L132.977 93.2928L131.303 93.4794L130.397 85.3511C130.325 84.704 130.152 84.2157 129.877 83.8859C129.611 83.5553 129.264 83.4139 128.835 83.4617C128.439 83.5059 128.137 83.6583 127.928 83.919C127.72 84.1797 127.567 84.4997 127.47 84.879C127.381 85.2574 127.341 85.6713 127.351 86.1206C127.36 86.5699 127.389 87.013 127.437 87.4497L128.149 93.8311L126.487 94.0164L125.226 82.7095L126.888 82.5242L127.071 84.162C127.277 82.8534 127.962 82.1342 129.127 82.0044C130.235 81.8808 131.049 82.351 131.569 83.4148C131.995 82.2455 132.71 81.6049 133.713 81.4931C134.675 81.3858 135.411 81.5944 135.92 82.1191C136.436 82.6347 136.759 83.4709 136.887 84.6274L137.794 92.7558ZM151.022 85.5941C151.12 86.4756 151.068 87.2921 150.865 88.0435C150.671 88.794 150.339 89.4574 149.871 90.0336C149.41 90.6008 148.832 91.0706 148.137 91.443C147.441 91.8153 146.645 92.0515 145.747 92.1516C144.865 92.2499 144.044 92.194 143.284 91.984C142.524 91.774 141.852 91.4435 141.27 90.9926C140.694 90.5327 140.225 89.9586 139.862 89.2703C139.506 88.5812 139.28 87.7958 139.181 86.9142C139.086 86.0569 139.134 85.2449 139.327 84.4782C139.527 83.7026 139.857 83.0271 140.317 82.4518C140.785 81.8674 141.366 81.3891 142.061 81.0168C142.756 80.6364 143.544 80.397 144.425 80.2987C145.323 80.1986 146.153 80.2576 146.914 80.4757C147.674 80.6858 148.343 81.0248 148.919 81.4928C149.502 81.9518 149.973 82.538 150.331 83.2514C150.696 83.9559 150.926 84.7367 151.022 85.5941ZM149.36 85.7794C149.288 85.1323 149.125 84.5487 148.87 84.0284C148.623 83.4992 148.29 83.0491 147.872 82.6781C147.454 82.3071 146.965 82.0341 146.405 81.859C145.853 81.6831 145.246 81.6321 144.582 81.706C143.919 81.78 143.334 81.964 142.826 82.258C142.326 82.5512 141.918 82.9243 141.6 83.3774C141.282 83.8304 141.056 84.3428 140.924 84.9144C140.798 85.477 140.771 86.0819 140.843 86.7289C140.916 87.3759 141.075 87.9641 141.323 88.4933C141.577 89.0135 141.908 89.4515 142.317 89.8073C142.725 90.163 143.204 90.4248 143.755 90.5926C144.314 90.7596 144.925 90.8061 145.589 90.7321C146.252 90.6582 146.834 90.4787 147.334 90.1936C147.843 89.9076 148.261 89.5458 148.589 89.108C148.917 88.6702 149.143 88.17 149.269 87.6073C149.402 87.0357 149.432 86.4264 149.36 85.7794ZM164.326 89.7977L162.652 89.9843L161.874 83.0085C161.761 81.9975 161.456 81.2373 160.957 80.728C160.458 80.2186 159.719 80.0184 158.74 80.1276C158.126 80.1961 157.583 80.3998 157.113 80.7388C156.652 81.0769 156.273 81.5039 155.979 82.0199C155.683 82.5278 155.477 83.0994 155.359 83.7348C155.249 84.3613 155.231 85.0061 155.305 85.6693L155.87 90.7404L154.208 90.9257L152.947 79.6188L154.61 79.4335L154.926 82.2724C155.496 80.1126 156.808 78.9182 158.862 78.6892C161.645 78.379 163.207 79.7565 163.548 82.8218L164.326 89.7977ZM177.832 85.123C177.906 85.7862 177.801 86.3546 177.518 86.8284C177.235 87.3021 176.845 87.6977 176.349 88.0151C175.86 88.3316 175.298 88.5785 174.662 88.7558C174.036 88.9403 173.416 89.0668 172.801 89.1353C171.774 89.2498 170.734 89.2142 169.682 89.0286C168.629 88.843 167.704 88.549 166.906 88.1467L167.486 86.6326C168.378 87.0655 169.244 87.3783 170.084 87.5712C170.924 87.7641 171.777 87.8123 172.643 87.7159C175.142 87.4372 176.319 86.6509 176.175 85.3568C176.14 85.0414 176.006 84.7983 175.774 84.6277C175.55 84.448 175.257 84.3169 174.895 84.2344C174.533 84.1437 174.122 84.0873 173.66 84.065C173.208 84.0418 172.731 84.0253 172.23 84.0156C171.589 83.997 170.951 83.9617 170.315 83.9099C169.678 83.858 169.088 83.7396 168.543 83.5546C168.007 83.3688 167.558 83.0913 167.197 82.7221C166.845 82.3519 166.632 81.8353 166.558 81.1721C166.495 80.6059 166.582 80.1008 166.819 79.6568C167.064 79.2118 167.41 78.8252 167.856 78.497C168.311 78.168 168.855 77.9026 169.487 77.7011C170.12 77.4995 170.784 77.36 171.479 77.2825C172.474 77.1715 173.377 77.1896 174.188 77.3367C174.998 77.4757 175.742 77.7244 176.42 78.0827L175.898 79.4552C175.2 79.0744 174.51 78.832 173.827 78.728C173.143 78.6159 172.413 78.6032 171.636 78.6897C171.289 78.7285 170.904 78.8042 170.483 78.9167C170.068 79.0202 169.688 79.169 169.341 79.3633C168.993 79.5494 168.708 79.7778 168.484 80.0484C168.267 80.31 168.179 80.6228 168.22 80.9867C168.255 81.3022 168.385 81.5457 168.608 81.7172C168.84 81.8798 169.136 82.0064 169.498 82.0971C169.86 82.1796 170.267 82.2325 170.72 82.2557C171.181 82.278 171.662 82.294 172.162 82.3036C172.787 82.3241 173.417 82.3602 174.053 82.4121C174.698 82.4631 175.288 82.5775 175.824 82.7552C176.367 82.9321 176.82 83.2051 177.18 83.5743C177.541 83.9435 177.758 84.4598 177.832 85.123ZM191.712 81.0575C191.811 81.939 191.758 82.7555 191.556 83.5069C191.361 84.2574 191.029 84.9208 190.561 85.497C190.101 86.0642 189.522 86.534 188.827 86.9063C188.132 87.2787 187.335 87.5149 186.437 87.615C185.556 87.7133 184.735 87.6574 183.974 87.4474C183.214 87.2374 182.542 86.9069 181.96 86.456C181.385 85.9961 180.915 85.422 180.552 84.7337C180.197 84.0446 179.97 83.2592 179.872 82.3776C179.776 81.5203 179.825 80.7083 180.018 79.9416C180.218 79.166 180.548 78.4905 181.008 77.9152C181.475 77.3308 182.056 76.8525 182.752 76.4802C183.446 76.0998 184.234 75.8604 185.116 75.7621C186.013 75.662 186.843 75.721 187.604 75.9391C188.365 76.1492 189.033 76.4882 189.609 76.9562C190.193 77.4152 190.663 78.0014 191.021 78.7148C191.386 79.4193 191.617 80.2001 191.712 81.0575ZM190.05 81.2428C189.978 80.5957 189.815 80.0121 189.56 79.4918C189.313 78.9626 188.98 78.5125 188.562 78.1415C188.144 77.7705 187.655 77.4975 187.095 77.3224C186.543 77.1465 185.936 77.0955 185.273 77.1694C184.609 77.2434 184.024 77.4274 183.516 77.7214C183.017 78.0146 182.608 78.3877 182.29 78.8408C181.972 79.2938 181.747 79.8062 181.614 80.3778C181.488 80.9404 181.462 81.5453 181.534 82.1923C181.606 82.8393 181.766 83.4275 182.013 83.9567C182.267 84.4769 182.599 84.9149 183.007 85.2707C183.415 85.6264 183.895 85.8882 184.446 86.056C185.005 86.223 185.616 86.2695 186.279 86.1955C186.942 86.1216 187.524 85.9421 188.024 85.657C188.533 85.371 188.951 85.0092 189.279 84.5714C189.607 84.1336 189.834 83.6334 189.959 83.0707C190.092 82.4991 190.122 81.8898 190.05 81.2428ZM205.016 85.2611L203.342 85.4477L202.564 78.4719C202.452 77.4609 202.146 76.7007 201.647 76.1913C201.148 75.682 200.409 75.4818 199.43 75.591C198.816 75.6595 198.274 75.8632 197.804 76.2022C197.342 76.5403 196.964 76.9673 196.669 77.4833C196.374 77.9912 196.167 78.5628 196.05 79.1982C195.939 79.8247 195.921 80.4695 195.995 81.1327L196.56 86.2038L194.898 86.3891L193.638 75.0822L195.3 74.8969L195.616 77.7358C196.186 75.576 197.498 74.3816 199.553 74.1525C202.335 73.8424 203.897 75.2199 204.239 78.2852L205.016 85.2611ZM44.335 116.883C44.5054 118.412 44.1549 119.601 43.2835 120.452C42.4121 121.302 41.115 121.823 39.3923 122.016L35.8134 122.415L36.5695 129.196L34.9074 129.382L33.1423 113.55L38.359 112.968C40.0979 112.774 41.4869 113.004 42.526 113.658C43.5643 114.304 44.1673 115.379 44.335 116.883ZM42.6729 117.068C42.5512 115.976 42.1195 115.226 41.3779 114.818C40.6355 114.401 39.69 114.257 38.5415 114.385L34.9626 114.784L35.6551 120.995L39.234 120.596C40.3825 120.468 41.2734 120.123 41.9068 119.561C42.5393 118.991 42.7946 118.16 42.6729 117.068ZM57.4811 117.026C56.8493 116.794 56.1208 116.724 55.2959 116.816C54.6165 116.891 54.0261 117.105 53.5248 117.455C53.0234 117.806 52.6134 118.241 52.2945 118.759C51.9748 119.27 51.7481 119.844 51.6144 120.481C51.4879 121.109 51.4607 121.747 51.5329 122.394L51.94 126.046L54.4998 125.76L54.6581 127.18L47.8764 127.936L47.7181 126.516L50.278 126.231L49.3338 117.763L46.774 118.048L46.6158 116.629L50.8377 116.158L51.1542 118.997C51.6836 116.842 53.0119 115.645 55.139 115.408C55.7132 115.344 56.2147 115.325 56.6434 115.351C57.0801 115.376 57.4909 115.461 57.8756 115.607L57.4811 117.026ZM66.7093 112.104L64.4528 112.356L64.1999 110.087L66.4564 109.835L66.7093 112.104ZM70.478 125.416L63.6963 126.172L63.5381 124.752L66.0979 124.467L65.1538 115.999L62.594 116.284L62.4357 114.865L66.6697 114.393L67.7721 124.28L70.3198 123.996L70.478 125.416ZM85.7157 123.717L84.0415 123.904L83.2637 116.928C83.151 115.917 82.8452 115.157 82.3462 114.647C81.8472 114.138 81.1084 113.938 80.1298 114.047C79.5151 114.115 78.9728 114.319 78.5029 114.658C78.0411 114.996 77.6629 115.423 77.3684 115.939C77.0729 116.447 76.8664 117.019 76.7489 117.654C76.6386 118.281 76.6204 118.925 76.6944 119.589L77.2598 124.66L75.5977 124.845L74.3371 113.538L75.9991 113.353L76.3156 116.192C76.8855 114.032 78.1976 112.837 80.2519 112.608C83.0342 112.298 84.5962 113.676 84.9379 116.741L85.7157 123.717ZM99.2082 120.026C98.8139 120.824 98.2251 121.491 97.4416 122.029C96.6654 122.558 95.707 122.885 94.5666 123.013C93.6851 123.111 92.86 123.055 92.0916 122.846C91.3231 122.637 90.6472 122.303 90.0637 121.844C89.4875 121.376 89.0137 120.799 88.6423 120.111C88.2708 119.424 88.036 118.639 87.9377 117.758C87.8421 116.9 87.8872 116.093 88.0729 115.335C88.2578 114.57 88.568 113.9 89.0037 113.328C89.4384 112.747 89.9954 112.271 90.6747 111.901C91.3612 111.521 92.1412 111.283 93.0146 111.185C93.3624 111.147 93.7228 111.147 94.0958 111.188C94.4688 111.228 94.8265 111.315 95.1689 111.449C95.5105 111.575 95.8237 111.74 96.1087 111.946C96.3928 112.144 96.6171 112.393 96.7816 112.694L96.599 111.056L98.0913 110.89L98.5958 115.415L97.1036 115.581C97.0477 115.08 96.9037 114.633 96.6717 114.241C96.4478 113.849 96.1614 113.52 95.8126 113.256C95.4638 112.992 95.062 112.804 94.6073 112.691C94.1516 112.569 93.673 112.537 93.1716 112.593C92.4922 112.669 91.9108 112.852 91.4274 113.143C90.9521 113.434 90.5671 113.8 90.2725 114.243C89.9779 114.685 89.7723 115.191 89.6557 115.761C89.5463 116.321 89.5276 116.925 89.5998 117.572C89.6719 118.219 89.8357 118.807 90.0911 119.335C90.3537 119.855 90.6931 120.292 91.1094 120.647C91.5337 121.001 92.0218 121.266 92.5736 121.442C93.1336 121.617 93.7452 121.667 94.4084 121.593C95.2495 121.499 95.9792 121.25 96.5973 120.846C97.2155 120.441 97.6678 119.944 97.9542 119.355L99.2082 120.026ZM107.4 107.567L105.143 107.819L104.89 105.55L107.147 105.299L107.4 107.567ZM111.168 120.879L104.387 121.635L104.228 120.216L106.788 119.93L105.844 111.462L103.284 111.748L103.126 110.328L107.36 109.856L108.462 119.744L111.01 119.46L111.168 120.879ZM126.371 113.473C126.47 114.354 126.422 115.17 126.227 115.921C126.032 116.671 125.713 117.337 125.27 117.919C124.835 118.492 124.281 118.963 123.61 119.332C122.939 119.702 122.167 119.935 121.293 120.033C120.695 120.1 120.1 120.055 119.51 119.9C118.927 119.744 118.369 119.479 117.836 119.104L118.455 124.648L116.792 124.834L115.027 109.001L116.689 108.816L116.806 109.86C117.736 108.872 118.791 108.312 119.972 108.18C120.845 108.083 121.65 108.14 122.386 108.353C123.121 108.558 123.765 108.899 124.318 109.378C124.878 109.848 125.337 110.436 125.694 111.141C126.05 111.838 126.276 112.615 126.371 113.473ZM124.709 113.658C124.639 113.027 124.484 112.447 124.245 111.917C124.013 111.377 123.7 110.925 123.308 110.559C122.915 110.194 122.45 109.922 121.915 109.744C121.387 109.566 120.792 109.513 120.129 109.587C119.498 109.658 118.92 109.841 118.397 110.137C117.881 110.432 117.41 110.869 116.983 111.449L117.659 117.515C118.203 117.986 118.759 118.305 119.326 118.471C119.901 118.636 120.504 118.684 121.135 118.613C121.798 118.539 122.367 118.357 122.843 118.067C123.326 117.775 123.719 117.408 124.022 116.965C124.324 116.522 124.531 116.02 124.64 115.459C124.757 114.889 124.78 114.289 124.709 113.658ZM128.892 115.808C128.812 115.096 128.924 114.482 129.227 113.965C129.529 113.44 129.951 113.008 130.495 112.669C131.046 112.321 131.686 112.045 132.417 111.841C133.155 111.627 133.912 111.477 134.688 111.391C134.987 111.358 135.255 111.332 135.49 111.314C135.734 111.295 135.961 111.282 136.174 111.274C136.394 111.266 136.614 111.262 136.835 111.262C137.057 111.262 137.298 111.264 137.561 111.267L137.47 110.454C137.409 109.904 137.237 109.465 136.955 109.136C136.68 108.806 136.358 108.56 135.988 108.396C135.617 108.225 135.236 108.12 134.847 108.081C134.457 108.035 134.129 108.026 133.862 108.056C133.021 108.15 132.257 108.35 131.57 108.656C130.884 108.961 130.254 109.339 129.682 109.787L128.791 108.622C129.424 108.133 130.147 107.713 130.959 107.36C131.779 106.999 132.694 106.762 133.705 106.649C134.32 106.58 134.931 106.594 135.54 106.69C136.155 106.777 136.716 106.96 137.222 107.239C137.735 107.51 138.163 107.896 138.506 108.398C138.849 108.9 139.061 109.524 139.144 110.268L139.969 117.668L138.295 117.855L138.084 115.962C137.834 116.359 137.538 116.715 137.196 117.032C136.863 117.347 136.504 117.616 136.119 117.839C135.734 118.054 135.344 118.229 134.95 118.363C134.556 118.505 134.177 118.596 133.813 118.637C132.317 118.804 131.153 118.643 130.32 118.154C129.488 117.666 129.012 116.884 128.892 115.808ZM133.655 117.218C134.351 117.14 134.962 116.969 135.489 116.706C136.024 116.433 136.468 116.122 136.822 115.771C137.176 115.421 137.439 115.06 137.611 114.688C137.79 114.316 137.864 113.989 137.833 113.706L137.714 112.638C137.163 112.618 136.636 112.631 136.134 112.679C135.639 112.726 135.21 112.77 134.846 112.81C134.248 112.877 133.674 112.982 133.125 113.125C132.584 113.267 132.118 113.454 131.726 113.686C131.333 113.91 131.028 114.182 130.81 114.501C130.591 114.82 130.506 115.194 130.554 115.623C130.607 116.1 130.887 116.515 131.393 116.868C131.906 117.212 132.66 117.328 133.655 117.218ZM151.859 116.343L145.077 117.099L144.919 115.679L147.478 115.394L146.03 102.401L143.47 102.686L143.312 101.267L147.546 100.795L149.153 115.207L151.7 114.923L151.859 116.343ZM180.66 113.132L178.985 113.318L178.869 112.275C178.44 112.757 177.951 113.143 177.402 113.433C176.861 113.723 176.291 113.901 175.692 113.968C174.795 114.068 173.974 114.012 173.229 113.8C172.485 113.588 171.838 113.251 171.287 112.789C170.743 112.317 170.297 111.732 169.949 111.034C169.609 110.335 169.39 109.553 169.294 108.687C169.198 107.83 169.239 107.023 169.417 106.266C169.602 105.5 169.908 104.832 170.336 104.26C170.77 103.679 171.327 103.204 172.007 102.833C172.685 102.454 173.473 102.215 174.371 102.115C174.969 102.048 175.564 102.093 176.154 102.248C176.752 102.394 177.313 102.655 177.838 103.03L177.379 98.9055L175.122 99.1571L174.964 97.7377L178.894 97.2994L180.66 113.132ZM178.018 104.644C177.483 104.171 176.918 103.849 176.326 103.678C175.742 103.506 175.134 103.455 174.504 103.525C173.84 103.599 173.267 103.782 172.784 104.073C172.308 104.363 171.923 104.73 171.629 105.172C171.334 105.614 171.129 106.12 171.012 106.69C170.903 107.251 170.884 107.855 170.956 108.502C171.028 109.149 171.18 109.738 171.411 110.269C171.649 110.791 171.961 111.235 172.346 111.602C172.73 111.968 173.187 112.241 173.714 112.42C174.25 112.597 174.849 112.649 175.513 112.575C176.79 112.433 177.85 111.803 178.692 110.686L178.018 104.644ZM184.607 107.557C184.862 108.741 185.405 109.646 186.237 110.274C187.068 110.902 188.087 111.149 189.292 111.015C190.141 110.92 190.878 110.662 191.502 110.24C192.127 109.818 192.576 109.33 192.85 108.775L194.104 109.446C193.626 110.302 193.018 110.984 192.28 111.492C191.542 111.992 190.598 112.306 189.45 112.434C188.576 112.531 187.76 112.475 186.999 112.265C186.239 112.055 185.563 111.721 184.971 111.263C184.387 110.796 183.909 110.219 183.538 109.531C183.166 108.844 182.931 108.059 182.833 107.178C182.738 106.32 182.779 105.517 182.958 104.769C183.143 104.011 183.454 103.342 183.888 102.761C184.33 102.171 184.891 101.691 185.57 101.321C186.249 100.942 187.029 100.704 187.91 100.605C188.873 100.498 189.732 100.566 190.488 100.809C191.244 101.053 191.892 101.435 192.433 101.956C192.982 102.468 193.413 103.108 193.728 103.875C194.051 104.641 194.266 105.506 194.373 106.468L184.607 107.557ZM192.456 105.245C192.132 104.028 191.58 103.156 190.801 102.629C190.022 102.102 189.11 101.896 188.067 102.013C187.533 102.072 187.05 102.216 186.617 102.445C186.183 102.665 185.81 102.956 185.498 103.319C185.186 103.681 184.939 104.106 184.756 104.593C184.572 105.072 184.478 105.586 184.473 106.135L192.456 105.245ZM207.729 106.945C207.803 107.608 207.698 108.176 207.415 108.65C207.132 109.124 206.742 109.519 206.246 109.837C205.757 110.153 205.195 110.4 204.559 110.577C203.933 110.762 203.313 110.888 202.698 110.957C201.671 111.071 200.631 111.036 199.579 110.85C198.526 110.665 197.601 110.371 196.803 109.968L197.383 108.454C198.275 108.887 199.141 109.2 199.981 109.393C200.821 109.586 201.674 109.634 202.54 109.538C205.039 109.259 206.216 108.473 206.072 107.178C206.037 106.863 205.903 106.62 205.671 106.449C205.447 106.27 205.154 106.139 204.792 106.056C204.43 105.965 204.018 105.909 203.557 105.887C203.104 105.863 202.628 105.847 202.127 105.837C201.486 105.819 200.848 105.783 200.212 105.732C199.575 105.68 198.985 105.561 198.44 105.376C197.903 105.19 197.455 104.913 197.094 104.544C196.742 104.174 196.529 103.657 196.455 102.994C196.392 102.428 196.479 101.922 196.716 101.478C196.961 101.033 197.307 100.647 197.753 100.319C198.208 99.9896 198.752 99.7243 199.384 99.5227C200.017 99.3212 200.681 99.1817 201.376 99.1041C202.371 98.9932 203.274 99.0113 204.085 99.1584C204.894 99.2974 205.639 99.546 206.317 99.9043L205.795 101.277C205.097 100.896 204.407 100.654 203.724 100.55C203.04 100.438 202.31 100.425 201.533 100.511C201.186 100.55 200.801 100.626 200.38 100.738C199.965 100.842 199.585 100.991 199.238 101.185C198.89 101.371 198.604 101.599 198.381 101.87C198.164 102.132 198.076 102.444 198.117 102.808C198.152 103.124 198.282 103.367 198.505 103.539C198.736 103.701 199.033 103.828 199.395 103.919C199.757 104.001 200.164 104.054 200.617 104.077C201.078 104.1 201.559 104.116 202.059 104.125C202.684 104.146 203.314 104.182 203.95 104.234C204.595 104.285 205.185 104.399 205.721 104.577C206.264 104.754 206.716 105.027 207.077 105.396C207.437 105.765 207.655 106.281 207.729 106.945ZM215.907 95.4697L213.65 95.7213L213.398 93.4526L215.654 93.2011L215.907 95.4697ZM219.676 108.782L212.894 109.538L212.736 108.118L215.296 107.833L214.351 99.3648L211.792 99.6502L211.633 98.2308L215.867 97.7587L216.97 107.646L219.517 107.362L219.676 108.782ZM234.9 106.961C234.986 107.738 234.93 108.444 234.731 109.081C234.531 109.717 234.213 110.272 233.774 110.747C233.344 111.221 232.813 111.603 232.183 111.895C231.561 112.193 230.85 112.387 230.049 112.477C228.925 112.602 227.943 112.499 227.103 112.166C226.272 111.833 225.525 111.302 224.862 110.574L225.927 109.546C226.333 110.033 226.884 110.418 227.579 110.701C228.273 110.984 229.041 111.078 229.883 110.984C231.031 110.856 231.904 110.464 232.503 109.808C233.11 109.159 233.353 108.288 233.231 107.197L233.096 105.983C232.206 106.967 231.131 107.529 229.869 107.67C228.098 107.867 226.65 107.517 225.527 106.618C224.403 105.72 223.743 104.394 223.548 102.638C223.452 101.781 223.494 100.978 223.672 100.229C223.858 99.4718 224.164 98.803 224.591 98.2232C225.025 97.6344 225.577 97.1552 226.248 96.7856C226.919 96.4079 227.695 96.1699 228.576 96.0716C229.191 96.0031 229.797 96.046 230.396 96.2003C231.002 96.3457 231.567 96.6061 232.092 96.9815L231.979 95.9625L233.653 95.7758L234.9 106.961ZM232.272 98.5951C231.736 98.1226 231.168 97.8011 230.568 97.6305C229.975 97.4591 229.364 97.4086 228.733 97.4789C228.07 97.5528 227.496 97.7355 227.013 98.0268C226.538 98.3173 226.157 98.6832 225.87 99.1246C225.584 99.5659 225.383 100.076 225.267 100.653C225.158 101.222 225.139 101.822 225.21 102.453C225.354 103.747 225.805 104.741 226.562 105.434C227.319 106.128 228.368 106.4 229.711 106.25C230.342 106.18 230.927 105.996 231.467 105.698C232.014 105.392 232.497 104.945 232.915 104.358L232.272 98.5951ZM248.477 105.571L246.803 105.757L246.025 98.7813C245.912 97.7704 245.606 97.0102 245.107 96.5008C244.608 95.9914 243.87 95.7913 242.891 95.9004C242.276 95.9689 241.734 96.1727 241.264 96.5117C240.802 96.8498 240.424 97.2768 240.129 97.7927C239.834 98.3006 239.627 98.8723 239.51 99.5077C239.4 100.134 239.382 100.779 239.455 101.442L240.021 106.513L238.359 106.699L237.098 95.3917L238.76 95.2064L239.077 98.0452C239.647 95.8854 240.959 94.691 243.013 94.462C245.795 94.1518 247.357 95.5294 247.699 98.5947L248.477 105.571Z" fill="white"/>
</svg>
