<svg width="1833" height="81" viewBox="0 0 1833 81" fill="none" xmlns="http://www.w3.org/2000/svg">
<rect width="1833" height="81" fill="black"/>
<path d="M42.3379 54.5117C42.3379 56.2695 42.0352 57.8418 41.4297 59.2285C40.8437 60.5957 40.0332 61.7578 38.998 62.7148C37.9824 63.6719 36.7617 64.4043 35.3359 64.9121C33.9297 65.4199 32.4258 65.6738 30.8242 65.6738C29.0273 65.6738 27.4062 65.3516 25.9609 64.707C24.5156 64.0625 23.2754 62.998 22.2402 61.5137V65H16.791V52.5195H22.2402C22.2402 53.7695 22.4551 54.873 22.8848 55.8301C23.334 56.7871 23.9199 57.5977 24.6426 58.2617C25.3652 58.9062 26.2051 59.4043 27.1621 59.7559C28.1191 60.0879 29.1348 60.2539 30.209 60.2539C32.0254 60.2539 33.4902 59.834 34.6035 58.9941C35.7168 58.1543 36.2734 56.8164 36.2734 54.9805C36.2734 54.0234 36.0977 53.2031 35.7461 52.5195C35.4141 51.8359 34.9258 51.2305 34.2812 50.7031C33.6562 50.1562 32.8848 49.6875 31.9668 49.2969C31.0488 48.8867 30.0039 48.457 28.832 48.0078C27.4453 47.5391 26.0586 47.0117 24.6719 46.4258C23.2852 45.8398 22.0449 45.1172 20.9512 44.2578C19.8574 43.3984 18.9687 42.3437 18.2852 41.0937C17.6016 39.8242 17.2598 38.2324 17.2598 36.3184C17.2598 34.6387 17.5625 33.1738 18.168 31.9238C18.793 30.6543 19.6133 29.5898 20.6289 28.7305C21.6641 27.8711 22.8555 27.2266 24.2031 26.7969C25.5703 26.3477 27.0156 26.123 28.5391 26.123C30.2969 26.123 31.8008 26.4941 33.0508 27.2363C34.3203 27.9785 35.2969 28.9648 35.9805 30.1953V26.7676H41.4297V38.6621H35.9805C35.9805 36.416 35.3848 34.668 34.1934 33.418C33.0215 32.1484 31.4395 31.5137 29.4473 31.5137C27.6895 31.5137 26.2246 31.9238 25.0527 32.7441C23.9004 33.5645 23.3242 34.7168 23.3242 36.2012C23.3242 36.9629 23.4707 37.6172 23.7637 38.1641C24.0762 38.6914 24.5156 39.1797 25.082 39.6289C25.668 40.0586 26.4004 40.4687 27.2793 40.8594C28.1582 41.2305 29.1738 41.6406 30.3262 42.0898C31.7715 42.5977 33.207 43.1738 34.6328 43.8184C36.0586 44.4629 37.3379 45.2539 38.4707 46.1914C39.6035 47.1289 40.5312 48.2715 41.2539 49.6191C41.9766 50.9473 42.3379 52.5781 42.3379 54.5117ZM74.623 65H50.1894V26.7676H74.623V32.2461H56.2539V42.793H70.5801V48.2715H56.2539V59.5508H74.623V65ZM109.398 53.3105C108.93 55.1855 108.305 56.8848 107.523 58.4082C106.742 59.9316 105.785 61.2305 104.652 62.3047C103.539 63.3789 102.23 64.209 100.727 64.7949C99.2422 65.3809 97.5332 65.6738 95.5996 65.6738C92.9238 65.6738 90.6582 65.1269 88.8027 64.0332C86.9473 62.9199 85.4238 61.4453 84.2324 59.6094C83.0605 57.7539 82.2109 55.6445 81.6836 53.2812C81.1758 50.8984 80.9219 48.4277 80.9219 45.8691C80.9219 43.3105 81.1758 40.8398 81.6836 38.457C82.2109 36.0742 83.0508 33.9746 84.2031 32.1582C85.375 30.3418 86.8594 28.8867 88.6562 27.793C90.4531 26.6797 92.6504 26.123 95.248 26.123C96.0879 26.123 96.9375 26.2305 97.7969 26.4453C98.6562 26.6602 99.457 26.9922 100.199 27.4414C100.941 27.8711 101.586 28.4082 102.133 29.0527C102.699 29.6973 103.1 30.4395 103.334 31.2793V26.7676H108.812V41.2402H103.334C103.334 40.0488 103.187 38.877 102.895 37.7246C102.602 36.5527 102.133 35.5176 101.488 34.6191C100.844 33.7207 100.033 32.9883 99.0566 32.4219C98.0801 31.8555 96.9277 31.5723 95.5996 31.5723C93.8809 31.5723 92.4746 31.9922 91.3809 32.832C90.2871 33.6719 89.4082 34.7754 88.7441 36.1426C88.0801 37.5098 87.6113 39.043 87.3379 40.7422C87.084 42.4414 86.957 44.1504 86.957 45.8691C86.957 47.5879 87.084 49.3066 87.3379 51.0254C87.6113 52.7441 88.0703 54.2871 88.7148 55.6543C89.3594 57.0019 90.2383 58.0957 91.3516 58.9355C92.4648 59.7754 93.8809 60.1953 95.5996 60.1953C98.0801 60.1953 99.9844 59.4043 101.312 57.8223C102.66 56.2402 103.734 54.1113 104.535 51.4355L109.398 53.3105ZM142.094 65H134.418L124.516 49.5312H121.762V65H115.697V26.7676H128.295C132.494 26.7676 135.756 27.7344 138.08 29.668C140.404 31.582 141.566 34.4238 141.566 38.1934C141.566 39.873 141.303 41.3574 140.775 42.6465C140.268 43.916 139.535 45.0098 138.578 45.9277C137.641 46.8457 136.537 47.5781 135.268 48.125C134.018 48.6523 132.66 49.0137 131.195 49.209L142.094 65ZM135.502 38.1055C135.502 36.1523 134.857 34.6875 133.568 33.7109C132.299 32.7344 130.541 32.2461 128.295 32.2461H121.762V44.0527H128.295C130.541 44.0527 132.299 43.5644 133.568 42.5879C134.857 41.6113 135.502 40.1172 135.502 38.1055ZM172.885 65H148.451V26.7676H172.885V32.2461H154.516V42.793H168.842V48.2715H154.516V59.5508H172.885V65ZM207.016 40.7129H201.596V32.2461H196.439V59.5508H202.504V65H184.34V59.5508H190.375V32.2461H185.16V40.7129H179.77V26.7676H207.016V40.7129ZM271.615 54.5117C271.615 56.2695 271.312 57.8418 270.707 59.2285C270.121 60.5957 269.311 61.7578 268.275 62.7148C267.26 63.6719 266.039 64.4043 264.613 64.9121C263.207 65.4199 261.703 65.6738 260.102 65.6738C258.305 65.6738 256.684 65.3516 255.238 64.707C253.793 64.0625 252.553 62.998 251.518 61.5137V65H246.068V52.5195H251.518C251.518 53.7695 251.732 54.873 252.162 55.8301C252.611 56.7871 253.197 57.5977 253.92 58.2617C254.643 58.9062 255.482 59.4043 256.439 59.7559C257.396 60.0879 258.412 60.2539 259.486 60.2539C261.303 60.2539 262.768 59.834 263.881 58.9941C264.994 58.1543 265.551 56.8164 265.551 54.9805C265.551 54.0234 265.375 53.2031 265.023 52.5195C264.691 51.8359 264.203 51.2305 263.559 50.7031C262.934 50.1562 262.162 49.6875 261.244 49.2969C260.326 48.8867 259.281 48.457 258.109 48.0078C256.723 47.5391 255.336 47.0117 253.949 46.4258C252.562 45.8398 251.322 45.1172 250.228 44.2578C249.135 43.3984 248.246 42.3437 247.562 41.0937C246.879 39.8242 246.537 38.2324 246.537 36.3184C246.537 34.6387 246.84 33.1738 247.445 31.9238C248.07 30.6543 248.891 29.5898 249.906 28.7305C250.941 27.8711 252.133 27.2266 253.48 26.7969C254.848 26.3477 256.293 26.123 257.816 26.123C259.574 26.123 261.078 26.4941 262.328 27.2363C263.598 27.9785 264.574 28.9648 265.258 30.1953V26.7676H270.707V38.6621H265.258C265.258 36.416 264.662 34.668 263.471 33.418C262.299 32.1484 260.717 31.5137 258.725 31.5137C256.967 31.5137 255.502 31.9238 254.33 32.7441C253.178 33.5645 252.602 34.7168 252.602 36.2012C252.602 36.9629 252.748 37.6172 253.041 38.1641C253.353 38.6914 253.793 39.1797 254.359 39.6289C254.945 40.0586 255.678 40.4687 256.557 40.8594C257.436 41.2305 258.451 41.6406 259.603 42.0898C261.049 42.5977 262.484 43.1738 263.91 43.8184C265.336 44.4629 266.615 45.2539 267.748 46.1914C268.881 47.1289 269.809 48.2715 270.531 49.6191C271.254 50.9473 271.615 52.5781 271.615 54.5117ZM303.9 65H279.467V26.7676H303.9V32.2461H285.531V42.793H299.857V48.2715H285.531V59.5508H303.9V65ZM338.676 53.3105C338.207 55.1855 337.582 56.8848 336.801 58.4082C336.019 59.9316 335.062 61.2305 333.93 62.3047C332.816 63.3789 331.508 64.209 330.004 64.7949C328.519 65.3809 326.811 65.6738 324.877 65.6738C322.201 65.6738 319.936 65.1269 318.08 64.0332C316.225 62.9199 314.701 61.4453 313.51 59.6094C312.338 57.7539 311.488 55.6445 310.961 53.2812C310.453 50.8984 310.199 48.4277 310.199 45.8691C310.199 43.3105 310.453 40.8398 310.961 38.457C311.488 36.0742 312.328 33.9746 313.48 32.1582C314.652 30.3418 316.137 28.8867 317.934 27.793C319.73 26.6797 321.928 26.123 324.525 26.123C325.365 26.123 326.215 26.2305 327.074 26.4453C327.934 26.6602 328.734 26.9922 329.477 27.4414C330.219 27.8711 330.863 28.4082 331.41 29.0527C331.977 29.6973 332.377 30.4395 332.611 31.2793V26.7676H338.09V41.2402L332.611 41.2402C332.611 40.0488 332.465 38.877 332.172 37.7246C331.879 36.5527 331.41 35.5176 330.766 34.6191C330.121 33.7207 329.311 32.9883 328.334 32.4219C327.357 31.8555 326.205 31.5723 324.877 31.5723C323.158 31.5723 321.752 31.9922 320.658 32.832C319.564 33.6719 318.686 34.7754 318.021 36.1426C317.357 37.5098 316.889 39.043 316.615 40.7422C316.361 42.4414 316.234 44.1504 316.234 45.8691C316.234 47.5879 316.361 49.3066 316.615 51.0254C316.889 52.7441 317.348 54.2871 317.992 55.6543C318.637 57.0019 319.516 58.0957 320.629 58.9355C321.742 59.7754 323.158 60.1953 324.877 60.1953C327.357 60.1953 329.262 59.4043 330.59 57.8223C331.937 56.2402 333.012 54.1113 333.812 51.4355L338.676 53.3105ZM371.371 65H363.695L353.793 49.5312H351.039V65H344.975V26.7676H357.572C361.771 26.7676 365.033 27.7344 367.357 29.668C369.682 31.582 370.844 34.4238 370.844 38.1934C370.844 39.873 370.58 41.3574 370.053 42.6465C369.545 43.916 368.812 45.0098 367.855 45.9277C366.918 46.8457 365.814 47.5781 364.545 48.125C363.295 48.6523 361.937 49.0137 360.473 49.209L371.371 65ZM364.779 38.1055C364.779 36.1523 364.135 34.6875 362.846 33.7109C361.576 32.7344 359.818 32.2461 357.572 32.2461H351.039V44.0527H357.572C359.818 44.0527 361.576 43.5644 362.846 42.5879C364.135 41.6113 364.779 40.1172 364.779 38.1055ZM402.162 65L377.728 65V26.7676H402.162V32.2461H383.793V42.793H398.119V48.2715H383.793V59.5508L402.162 59.5508V65ZM436.293 40.7129H430.873V32.2461H425.717V59.5508H431.781V65H413.617V59.5508H419.652V32.2461H414.437V40.7129H409.047V26.7676L436.293 26.7676V40.7129ZM500.893 54.5117C500.893 56.2695 500.59 57.8418 499.984 59.2285C499.398 60.5957 498.588 61.7578 497.553 62.7148C496.537 63.6719 495.316 64.4043 493.891 64.9121C492.484 65.4199 490.98 65.6738 489.379 65.6738C487.582 65.6738 485.961 65.3516 484.516 64.707C483.07 64.0625 481.83 62.998 480.795 61.5137V65H475.346V52.5195H480.795C480.795 53.7695 481.01 54.873 481.439 55.8301C481.889 56.7871 482.475 57.5977 483.197 58.2617C483.92 58.9062 484.76 59.4043 485.717 59.7559C486.674 60.0879 487.689 60.2539 488.764 60.2539C490.58 60.2539 492.045 59.834 493.158 58.9941C494.271 58.1543 494.828 56.8164 494.828 54.9805C494.828 54.0234 494.652 53.2031 494.301 52.5195C493.969 51.8359 493.48 51.2305 492.836 50.7031C492.211 50.1562 491.439 49.6875 490.521 49.2969C489.603 48.8867 488.559 48.457 487.387 48.0078C486 47.5391 484.613 47.0117 483.227 46.4258C481.84 45.8398 480.6 45.1172 479.506 44.2578C478.412 43.3984 477.523 42.3437 476.84 41.0937C476.156 39.8242 475.814 38.2324 475.814 36.3184C475.814 34.6387 476.117 33.1738 476.723 31.9238C477.348 30.6543 478.168 29.5898 479.184 28.7305C480.219 27.8711 481.41 27.2266 482.758 26.7969C484.125 26.3477 485.57 26.123 487.094 26.123C488.852 26.123 490.355 26.4941 491.605 27.2363C492.875 27.9785 493.852 28.9648 494.535 30.1953V26.7676H499.984V38.6621H494.535C494.535 36.416 493.939 34.668 492.748 33.418C491.576 32.1484 489.994 31.5137 488.002 31.5137C486.244 31.5137 484.779 31.9238 483.607 32.7441C482.455 33.5645 481.879 34.7168 481.879 36.2012C481.879 36.9629 482.025 37.6172 482.318 38.1641C482.631 38.6914 483.07 39.1797 483.637 39.6289C484.223 40.0586 484.955 40.4687 485.834 40.8594C486.713 41.2305 487.728 41.6406 488.881 42.0898C490.326 42.5977 491.762 43.1738 493.187 43.8184C494.613 44.4629 495.893 45.2539 497.025 46.1914C498.158 47.1289 499.086 48.2715 499.809 49.6191C500.531 50.9473 500.893 52.5781 500.893 54.5117ZM533.178 65H508.744V26.7676H533.178V32.2461H514.809V42.793H529.135V48.2715H514.809V59.5508H533.178V65ZM567.953 53.3105C567.484 55.1855 566.859 56.8848 566.078 58.4082C565.297 59.9316 564.34 61.2305 563.207 62.3047C562.094 63.3789 560.785 64.209 559.281 64.7949C557.797 65.3809 556.088 65.6738 554.154 65.6738C551.478 65.6738 549.213 65.1269 547.357 64.0332C545.502 62.9199 543.978 61.4453 542.787 59.6094C541.615 57.7539 540.766 55.6445 540.238 53.2812C539.73 50.8984 539.477 48.4277 539.477 45.8691C539.477 43.3105 539.73 40.8398 540.238 38.457C540.766 36.0742 541.605 33.9746 542.758 32.1582C543.93 30.3418 545.414 28.8867 547.211 27.793C549.008 26.6797 551.205 26.123 553.803 26.123C554.643 26.123 555.492 26.2305 556.351 26.4453C557.211 26.6602 558.012 26.9922 558.754 27.4414C559.496 27.8711 560.141 28.4082 560.687 29.0527C561.254 29.6973 561.654 30.4395 561.889 31.2793V26.7676H567.367V41.2402H561.889C561.889 40.0488 561.742 38.877 561.449 37.7246C561.156 36.5527 560.687 35.5176 560.043 34.6191C559.398 33.7207 558.588 32.9883 557.611 32.4219C556.635 31.8555 555.482 31.5723 554.154 31.5723C552.435 31.5723 551.029 31.9922 549.935 32.832C548.842 33.6719 547.963 34.7754 547.299 36.1426C546.635 37.5098 546.166 39.043 545.893 40.7422C545.639 42.4414 545.512 44.1504 545.512 45.8691C545.512 47.5879 545.639 49.3066 545.893 51.0254C546.166 52.7441 546.625 54.2871 547.269 55.6543C547.914 57.0019 548.793 58.0957 549.906 58.9355C551.019 59.7754 552.435 60.1953 554.154 60.1953C556.635 60.1953 558.539 59.4043 559.867 57.8223C561.215 56.2402 562.289 54.1113 563.09 51.4355L567.953 53.3105ZM600.648 65H592.973L583.07 49.5312H580.316V65H574.252V26.7676H586.85C591.049 26.7676 594.31 27.7344 596.635 29.668C598.959 31.582 600.121 34.4238 600.121 38.1934C600.121 39.873 599.857 41.3574 599.33 42.6465C598.822 43.916 598.09 45.0098 597.133 45.9277C596.195 46.8457 595.092 47.5781 593.822 48.125C592.572 48.6523 591.215 49.0137 589.75 49.209L600.648 65ZM594.057 38.1055C594.057 36.1523 593.412 34.6875 592.123 33.7109C590.853 32.7344 589.096 32.2461 586.85 32.2461H580.316V44.0527H586.85C589.096 44.0527 590.853 43.5644 592.123 42.5879C593.412 41.6113 594.057 40.1172 594.057 38.1055ZM631.439 65H607.006V26.7676L631.439 26.7676V32.2461H613.07V42.793H627.396V48.2715H613.07V59.5508H631.439V65ZM665.57 40.7129H660.15V32.2461H654.994V59.5508L661.059 59.5508V65L642.894 65V59.5508H648.93V32.2461H643.715V40.7129H638.324V26.7676H665.57V40.7129ZM730.17 54.5117C730.17 56.2695 729.867 57.8418 729.262 59.2285C728.676 60.5957 727.865 61.7578 726.83 62.7148C725.814 63.6719 724.594 64.4043 723.168 64.9121C721.762 65.4199 720.258 65.6738 718.656 65.6738C716.859 65.6738 715.238 65.3516 713.793 64.707C712.348 64.0625 711.107 62.998 710.072 61.5137V65H704.623V52.5195H710.072C710.072 53.7695 710.287 54.873 710.717 55.8301C711.166 56.7871 711.752 57.5977 712.475 58.2617C713.197 58.9062 714.037 59.4043 714.994 59.7559C715.951 60.0879 716.967 60.2539 718.041 60.2539C719.857 60.2539 721.322 59.834 722.435 58.9941C723.549 58.1543 724.105 56.8164 724.105 54.9805C724.105 54.0234 723.93 53.2031 723.578 52.5195C723.246 51.8359 722.758 51.2305 722.113 50.7031C721.488 50.1562 720.717 49.6875 719.799 49.2969C718.881 48.8867 717.836 48.457 716.664 48.0078C715.277 47.5391 713.891 47.0117 712.504 46.4258C711.117 45.8398 709.877 45.1172 708.783 44.2578C707.689 43.3984 706.801 42.3437 706.117 41.0937C705.434 39.8242 705.092 38.2324 705.092 36.3184C705.092 34.6387 705.394 33.1738 706 31.9238C706.625 30.6543 707.445 29.5898 708.461 28.7305C709.496 27.8711 710.687 27.2266 712.035 26.7969C713.402 26.3477 714.848 26.123 716.371 26.123C718.129 26.123 719.633 26.4941 720.883 27.2363C722.152 27.9785 723.129 28.9648 723.812 30.1953V26.7676H729.262V38.6621H723.812C723.812 36.416 723.217 34.668 722.025 33.418C720.853 32.1484 719.271 31.5137 717.279 31.5137C715.521 31.5137 714.057 31.9238 712.885 32.7441C711.732 33.5645 711.156 34.7168 711.156 36.2012C711.156 36.9629 711.303 37.6172 711.596 38.1641C711.908 38.6914 712.348 39.1797 712.914 39.6289C713.5 40.0586 714.232 40.4687 715.111 40.8594C715.99 41.2305 717.006 41.6406 718.158 42.0898C719.603 42.5977 721.039 43.1738 722.465 43.8184C723.891 44.4629 725.17 45.2539 726.303 46.1914C727.435 47.1289 728.363 48.2715 729.086 49.6191C729.809 50.9473 730.17 52.5781 730.17 54.5117ZM762.455 65H738.021V26.7676H762.455V32.2461H744.086V42.793H758.412V48.2715H744.086V59.5508H762.455V65ZM797.23 53.3105C796.762 55.1855 796.137 56.8848 795.355 58.4082C794.574 59.9316 793.617 61.2305 792.484 62.3047C791.371 63.3789 790.062 64.209 788.559 64.7949C787.074 65.3809 785.365 65.6738 783.432 65.6738C780.756 65.6738 778.49 65.1269 776.635 64.0332C774.779 62.9199 773.256 61.4453 772.064 59.6094C770.892 57.7539 770.043 55.6445 769.516 53.2812C769.008 50.8984 768.754 48.4277 768.754 45.8691C768.754 43.3105 769.008 40.8398 769.516 38.457C770.043 36.0742 770.883 33.9746 772.035 32.1582C773.207 30.3418 774.691 28.8867 776.488 27.793C778.285 26.6797 780.482 26.123 783.08 26.123C783.92 26.123 784.769 26.2305 785.629 26.4453C786.488 26.6602 787.289 26.9922 788.031 27.4414C788.773 27.8711 789.418 28.4082 789.965 29.0527C790.531 29.6973 790.932 30.4395 791.166 31.2793V26.7676H796.644V41.2402H791.166C791.166 40.0488 791.019 38.877 790.726 37.7246C790.434 36.5527 789.965 35.5176 789.32 34.6191C788.676 33.7207 787.865 32.9883 786.889 32.4219C785.912 31.8555 784.76 31.5723 783.432 31.5723C781.713 31.5723 780.307 31.9922 779.213 32.832C778.119 33.6719 777.24 34.7754 776.576 36.1426C775.912 37.5098 775.443 39.043 775.17 40.7422C774.916 42.4414 774.789 44.1504 774.789 45.8691C774.789 47.5879 774.916 49.3066 775.17 51.0254C775.443 52.7441 775.902 54.2871 776.547 55.6543C777.191 57.0019 778.07 58.0957 779.184 58.9355C780.297 59.7754 781.713 60.1953 783.432 60.1953C785.912 60.1953 787.816 59.4043 789.144 57.8223C790.492 56.2402 791.566 54.1113 792.367 51.4355L797.23 53.3105ZM829.926 65H822.25L812.348 49.5312H809.594V65H803.529V26.7676H816.127C820.326 26.7676 823.588 27.7344 825.912 29.668C828.236 31.582 829.398 34.4238 829.398 38.1934C829.398 39.873 829.135 41.3574 828.607 42.6465C828.1 43.916 827.367 45.0098 826.41 45.9277C825.473 46.8457 824.369 47.5781 823.1 48.125C821.85 48.6523 820.492 49.0137 819.027 49.209L829.926 65ZM823.334 38.1055C823.334 36.1523 822.689 34.6875 821.4 33.7109C820.131 32.7344 818.373 32.2461 816.127 32.2461H809.594V44.0527H816.127C818.373 44.0527 820.131 43.5644 821.4 42.5879C822.689 41.6113 823.334 40.1172 823.334 38.1055ZM860.717 65H836.283V26.7676H860.717V32.2461L842.348 32.2461V42.793L856.674 42.793V48.2715H842.348V59.5508H860.717V65ZM894.848 40.7129H889.428V32.2461H884.271V59.5508H890.336V65H872.172V59.5508H878.207V32.2461H872.992V40.7129H867.601V26.7676L894.848 26.7676V40.7129ZM959.447 54.5117C959.447 56.2695 959.144 57.8418 958.539 59.2285C957.953 60.5957 957.142 61.7578 956.107 62.7148C955.092 63.6719 953.871 64.4043 952.445 64.9121C951.039 65.4199 949.535 65.6738 947.933 65.6738C946.137 65.6738 944.516 65.3516 943.07 64.707C941.625 64.0625 940.385 62.998 939.349 61.5137V65H933.9V52.5195H939.349C939.349 53.7695 939.564 54.873 939.994 55.8301C940.443 56.7871 941.029 57.5977 941.752 58.2617C942.474 58.9062 943.314 59.4043 944.271 59.7559C945.228 60.0879 946.244 60.2539 947.318 60.2539C949.135 60.2539 950.599 59.834 951.713 58.9941C952.826 58.1543 953.383 56.8164 953.383 54.9805C953.383 54.0234 953.207 53.2031 952.855 52.5195C952.523 51.8359 952.035 51.2305 951.391 50.7031C950.766 50.1562 949.994 49.6875 949.076 49.2969C948.158 48.8867 947.113 48.457 945.941 48.0078C944.555 47.5391 943.168 47.0117 941.781 46.4258C940.394 45.8398 939.154 45.1172 938.06 44.2578C936.967 43.3984 936.078 42.3437 935.394 41.0937C934.711 39.8242 934.369 38.2324 934.369 36.3184C934.369 34.6387 934.672 33.1738 935.277 31.9238C935.902 30.6543 936.723 29.5898 937.738 28.7305C938.773 27.8711 939.965 27.2266 941.312 26.7969C942.68 26.3477 944.125 26.123 945.648 26.123C947.406 26.123 948.91 26.4941 950.16 27.2363C951.43 27.9785 952.406 28.9648 953.09 30.1953V26.7676H958.539V38.6621H953.09C953.09 36.416 952.494 34.668 951.303 33.418C950.131 32.1484 948.549 31.5137 946.557 31.5137C944.799 31.5137 943.334 31.9238 942.162 32.7441C941.01 33.5645 940.433 34.7168 940.433 36.2012C940.433 36.9629 940.58 37.6172 940.873 38.1641C941.185 38.6914 941.625 39.1797 942.191 39.6289C942.777 40.0586 943.51 40.4687 944.389 40.8594C945.267 41.2305 946.283 41.6406 947.435 42.0898C948.881 42.5977 950.316 43.1738 951.742 43.8184C953.168 44.4629 954.447 45.2539 955.58 46.1914C956.713 47.1289 957.641 48.2715 958.363 49.6191C959.086 50.9473 959.447 52.5781 959.447 54.5117ZM991.732 65H967.299V26.7676H991.732V32.2461H973.363V42.793H987.689V48.2715H973.363V59.5508H991.732V65ZM1026.51 53.3105C1026.04 55.1855 1025.41 56.8848 1024.63 58.4082C1023.85 59.9316 1022.89 61.2305 1021.76 62.3047C1020.65 63.3789 1019.34 64.209 1017.84 64.7949C1016.35 65.3809 1014.64 65.6738 1012.71 65.6738C1010.03 65.6738 1007.77 65.1269 1005.91 64.0332C1004.06 62.9199 1002.53 61.4453 1001.34 59.6094C1000.17 57.7539 999.32 55.6445 998.793 53.2812C998.285 50.8984 998.031 48.4277 998.031 45.8691C998.031 43.3105 998.285 40.8398 998.793 38.457C999.32 36.0742 1000.16 33.9746 1001.31 32.1582C1002.48 30.3418 1003.97 28.8867 1005.77 27.793C1007.56 26.6797 1009.76 26.123 1012.36 26.123C1013.2 26.123 1014.05 26.2305 1014.91 26.4453C1015.77 26.6602 1016.57 26.9922 1017.31 27.4414C1018.05 27.8711 1018.7 28.4082 1019.24 29.0527C1019.81 29.6973 1020.21 30.4395 1020.44 31.2793V26.7676H1025.92V41.2402H1020.44C1020.44 40.0488 1020.3 38.877 1020 37.7246C1019.71 36.5527 1019.24 35.5176 1018.6 34.6191C1017.95 33.7207 1017.14 32.9883 1016.17 32.4219C1015.19 31.8555 1014.04 31.5723 1012.71 31.5723C1010.99 31.5723 1009.58 31.9922 1008.49 32.832C1007.4 33.6719 1006.52 34.7754 1005.85 36.1426C1005.19 37.5098 1004.72 39.043 1004.45 40.7422C1004.19 42.4414 1004.07 44.1504 1004.07 45.8691C1004.07 47.5879 1004.19 49.3066 1004.45 51.0254C1004.72 52.7441 1005.18 54.2871 1005.82 55.6543C1006.47 57.0019 1007.35 58.0957 1008.46 58.9355C1009.57 59.7754 1010.99 60.1953 1012.71 60.1953C1015.19 60.1953 1017.09 59.4043 1018.42 57.8223C1019.77 56.2402 1020.84 54.1113 1021.64 51.4355L1026.51 53.3105ZM1059.2 65H1051.53L1041.62 49.5312H1038.87V65H1032.81V26.7676H1045.4C1049.6 26.7676 1052.87 27.7344 1055.19 29.668C1057.51 31.582 1058.68 34.4238 1058.68 38.1934C1058.68 39.873 1058.41 41.3574 1057.88 42.6465C1057.38 43.916 1056.64 45.0098 1055.69 45.9277C1054.75 46.8457 1053.65 47.5781 1052.38 48.125C1051.13 48.6523 1049.77 49.0137 1048.3 49.209L1059.2 65ZM1052.61 38.1055C1052.61 36.1523 1051.97 34.6875 1050.68 33.7109C1049.41 32.7344 1047.65 32.2461 1045.4 32.2461H1038.87V44.0527H1045.4C1047.65 44.0527 1049.41 43.5644 1050.68 42.5879C1051.97 41.6113 1052.61 40.1172 1052.61 38.1055ZM1089.99 65H1065.56V26.7676H1089.99V32.2461H1071.62V42.793H1085.95V48.2715H1071.62V59.5508H1089.99V65ZM1124.12 40.7129H1118.7V32.2461H1113.55V59.5508H1119.61V65H1101.45V59.5508H1107.48V32.2461H1102.27V40.7129H1096.88V26.7676H1124.12V40.7129ZM1188.72 54.5117C1188.72 56.2695 1188.42 57.8418 1187.82 59.2285C1187.23 60.5957 1186.42 61.7578 1185.38 62.7148C1184.37 63.6719 1183.15 64.4043 1181.72 64.9121C1180.32 65.4199 1178.81 65.6738 1177.21 65.6738C1175.41 65.6738 1173.79 65.3516 1172.35 64.707C1170.9 64.0625 1169.66 62.998 1168.63 61.5137V65H1163.18V52.5195L1168.63 52.5195C1168.63 53.7695 1168.84 54.873 1169.27 55.8301C1169.72 56.7871 1170.31 57.5977 1171.03 58.2617C1171.75 58.9062 1172.59 59.4043 1173.55 59.7559C1174.51 60.0879 1175.52 60.2539 1176.6 60.2539C1178.41 60.2539 1179.88 59.834 1180.99 58.9941C1182.1 58.1543 1182.66 56.8164 1182.66 54.9805C1182.66 54.0234 1182.48 53.2031 1182.13 52.5195C1181.8 51.8359 1181.31 51.2305 1180.67 50.7031C1180.04 50.1562 1179.27 49.6875 1178.35 49.2969C1177.44 48.8867 1176.39 48.457 1175.22 48.0078C1173.83 47.5391 1172.45 47.0117 1171.06 46.4258C1169.67 45.8398 1168.43 45.1172 1167.34 44.2578C1166.24 43.3984 1165.36 42.3437 1164.67 41.0937C1163.99 39.8242 1163.65 38.2324 1163.65 36.3184C1163.65 34.6387 1163.95 33.1738 1164.55 31.9238C1165.18 30.6543 1166 29.5898 1167.02 28.7305C1168.05 27.8711 1169.24 27.2266 1170.59 26.7969C1171.96 26.3477 1173.4 26.123 1174.93 26.123C1176.68 26.123 1178.19 26.4941 1179.44 27.2363C1180.71 27.9785 1181.68 28.9648 1182.37 30.1953V26.7676H1187.82V38.6621H1182.37C1182.37 36.416 1181.77 34.668 1180.58 33.418C1179.41 32.1484 1177.83 31.5137 1175.83 31.5137C1174.08 31.5137 1172.61 31.9238 1171.44 32.7441C1170.29 33.5645 1169.71 34.7168 1169.71 36.2012C1169.71 36.9629 1169.86 37.6172 1170.15 38.1641C1170.46 38.6914 1170.9 39.1797 1171.47 39.6289C1172.05 40.0586 1172.79 40.4687 1173.67 40.8594C1174.54 41.2305 1175.56 41.6406 1176.71 42.0898C1178.16 42.5977 1179.59 43.1738 1181.02 43.8184C1182.45 44.4629 1183.72 45.2539 1184.86 46.1914C1185.99 47.1289 1186.92 48.2715 1187.64 49.6191C1188.36 50.9473 1188.72 52.5781 1188.72 54.5117ZM1221.01 65H1196.58V26.7676L1221.01 26.7676V32.2461H1202.64V42.793H1216.97V48.2715H1202.64V59.5508H1221.01V65ZM1255.79 53.3105C1255.32 55.1855 1254.69 56.8848 1253.91 58.4082C1253.13 59.9316 1252.17 61.2305 1251.04 62.3047C1249.93 63.3789 1248.62 64.209 1247.11 64.7949C1245.63 65.3809 1243.92 65.6738 1241.99 65.6738C1239.31 65.6738 1237.04 65.1269 1235.19 64.0332C1233.33 62.9199 1231.81 61.4453 1230.62 59.6094C1229.45 57.7539 1228.6 55.6445 1228.07 53.2812C1227.56 50.8984 1227.31 48.4277 1227.31 45.8691C1227.31 43.3105 1227.56 40.8398 1228.07 38.457C1228.6 36.0742 1229.44 33.9746 1230.59 32.1582C1231.76 30.3418 1233.25 28.8867 1235.04 27.793C1236.84 26.6797 1239.04 26.123 1241.63 26.123C1242.47 26.123 1243.32 26.2305 1244.18 26.4453C1245.04 26.6602 1245.84 26.9922 1246.59 27.4414C1247.33 27.8711 1247.97 28.4082 1248.52 29.0527C1249.09 29.6973 1249.49 30.4395 1249.72 31.2793V26.7676H1255.2V41.2402H1249.72C1249.72 40.0488 1249.57 38.877 1249.28 37.7246C1248.99 36.5527 1248.52 35.5176 1247.87 34.6191C1247.23 33.7207 1246.42 32.9883 1245.44 32.4219C1244.47 31.8555 1243.31 31.5723 1241.99 31.5723C1240.27 31.5723 1238.86 31.9922 1237.77 32.832C1236.67 33.6719 1235.79 34.7754 1235.13 36.1426C1234.47 37.5098 1234 39.043 1233.72 40.7422C1233.47 42.4414 1233.34 44.1504 1233.34 45.8691C1233.34 47.5879 1233.47 49.3066 1233.72 51.0254C1234 52.7441 1234.46 54.2871 1235.1 55.6543C1235.75 57.0019 1236.62 58.0957 1237.74 58.9355C1238.85 59.7754 1240.27 60.1953 1241.99 60.1953C1244.47 60.1953 1246.37 59.4043 1247.7 57.8223C1249.05 56.2402 1250.12 54.1113 1250.92 51.4355L1255.79 53.3105ZM1288.48 65H1280.8L1270.9 49.5312H1268.15V65H1262.08V26.7676H1274.68C1278.88 26.7676 1282.14 27.7344 1284.47 29.668C1286.79 31.582 1287.95 34.4238 1287.95 38.1934C1287.95 39.873 1287.69 41.3574 1287.16 42.6465C1286.65 43.916 1285.92 45.0098 1284.96 45.9277C1284.03 46.8457 1282.92 47.5781 1281.65 48.125C1280.4 48.6523 1279.05 49.0137 1277.58 49.209L1288.48 65ZM1281.89 38.1055C1281.89 36.1523 1281.24 34.6875 1279.95 33.7109C1278.69 32.7344 1276.93 32.2461 1274.68 32.2461H1268.15V44.0527H1274.68C1276.93 44.0527 1278.69 43.5644 1279.95 42.5879C1281.24 41.6113 1281.89 40.1172 1281.89 38.1055ZM1319.27 65H1294.84V26.7676H1319.27V32.2461H1300.9V42.793H1315.23V48.2715H1300.9V59.5508H1319.27V65ZM1353.4 40.7129H1347.98V32.2461H1342.83V59.5508H1348.89V65H1330.73V59.5508H1336.76V32.2461H1331.55V40.7129H1326.16V26.7676H1353.4V40.7129ZM1418 54.5117C1418 56.2695 1417.7 57.8418 1417.09 59.2285C1416.51 60.5957 1415.7 61.7578 1414.66 62.7148C1413.65 63.6719 1412.43 64.4043 1411 64.9121C1409.59 65.4199 1408.09 65.6738 1406.49 65.6738C1404.69 65.6738 1403.07 65.3516 1401.62 64.707C1400.18 64.0625 1398.94 62.998 1397.9 61.5137V65H1392.45V52.5195H1397.9C1397.9 53.7695 1398.12 54.873 1398.55 55.8301C1399 56.7871 1399.58 57.5977 1400.31 58.2617C1401.03 58.9062 1401.87 59.4043 1402.83 59.7559C1403.78 60.0879 1404.8 60.2539 1405.87 60.2539C1407.69 60.2539 1409.15 59.834 1410.27 58.9941C1411.38 58.1543 1411.94 56.8164 1411.94 54.9805C1411.94 54.0234 1411.76 53.2031 1411.41 52.5195C1411.08 51.8359 1410.59 51.2305 1409.95 50.7031C1409.32 50.1562 1408.55 49.6875 1407.63 49.2969C1406.71 48.8867 1405.67 48.457 1404.5 48.0078C1403.11 47.5391 1401.72 47.0117 1400.34 46.4258C1398.95 45.8398 1397.71 45.1172 1396.62 44.2578C1395.52 43.3984 1394.63 42.3437 1393.95 41.0937C1393.27 39.8242 1392.92 38.2324 1392.92 36.3184C1392.92 34.6387 1393.23 33.1738 1393.83 31.9238C1394.46 30.6543 1395.28 29.5898 1396.29 28.7305C1397.33 27.8711 1398.52 27.2266 1399.87 26.7969C1401.23 26.3477 1402.68 26.123 1404.2 26.123C1405.96 26.123 1407.46 26.4941 1408.71 27.2363C1409.98 27.9785 1410.96 28.9648 1411.64 30.1953V26.7676H1417.09V38.6621H1411.64C1411.64 36.416 1411.05 34.668 1409.86 33.418C1408.69 32.1484 1407.1 31.5137 1405.11 31.5137C1403.35 31.5137 1401.89 31.9238 1400.72 32.7441C1399.56 33.5645 1398.99 34.7168 1398.99 36.2012C1398.99 36.9629 1399.13 37.6172 1399.43 38.1641C1399.74 38.6914 1400.18 39.1797 1400.75 39.6289C1401.33 40.0586 1402.06 40.4687 1402.94 40.8594C1403.82 41.2305 1404.84 41.6406 1405.99 42.0898C1407.44 42.5977 1408.87 43.1738 1410.3 43.8184C1411.72 44.4629 1413 45.2539 1414.13 46.1914C1415.27 47.1289 1416.2 48.2715 1416.92 49.6191C1417.64 50.9473 1418 52.5781 1418 54.5117ZM1450.29 65H1425.85V26.7676H1450.29V32.2461H1431.92V42.793H1446.24V48.2715H1431.92V59.5508H1450.29V65ZM1485.06 53.3105C1484.59 55.1855 1483.97 56.8848 1483.19 58.4082C1482.41 59.9316 1481.45 61.2305 1480.32 62.3047C1479.2 63.3789 1477.89 64.209 1476.39 64.7949C1474.91 65.3809 1473.2 65.6738 1471.26 65.6738C1468.59 65.6738 1466.32 65.1269 1464.47 64.0332C1462.61 62.9199 1461.09 61.4453 1459.9 59.6094C1458.72 57.7539 1457.87 55.6445 1457.35 53.2812C1456.84 50.8984 1456.59 48.4277 1456.59 45.8691C1456.59 43.3105 1456.84 40.8398 1457.35 38.457C1457.87 36.0742 1458.71 33.9746 1459.87 32.1582C1461.04 30.3418 1462.52 28.8867 1464.32 27.793C1466.12 26.6797 1468.31 26.123 1470.91 26.123C1471.75 26.123 1472.6 26.2305 1473.46 26.4453C1474.32 26.6602 1475.12 26.9922 1475.86 27.4414C1476.61 27.8711 1477.25 28.4082 1477.8 29.0527C1478.36 29.6973 1478.76 30.4395 1479 31.2793V26.7676H1484.48V41.2402H1479C1479 40.0488 1478.85 38.877 1478.56 37.7246C1478.27 36.5527 1477.8 35.5176 1477.15 34.6191C1476.51 33.7207 1475.7 32.9883 1474.72 32.4219C1473.74 31.8555 1472.59 31.5723 1471.26 31.5723C1469.54 31.5723 1468.14 31.9922 1467.04 32.832C1465.95 33.6719 1465.07 34.7754 1464.41 36.1426C1463.74 37.5098 1463.28 39.043 1463 40.7422C1462.75 42.4414 1462.62 44.1504 1462.62 45.8691C1462.62 47.5879 1462.75 49.3066 1463 51.0254C1463.28 52.7441 1463.73 54.2871 1464.38 55.6543C1465.02 57.0019 1465.9 58.0957 1467.02 58.9355C1468.13 59.7754 1469.54 60.1953 1471.26 60.1953C1473.74 60.1953 1475.65 59.4043 1476.98 57.8223C1478.32 56.2402 1479.4 54.1113 1480.2 51.4355L1485.06 53.3105ZM1517.76 65H1510.08L1500.18 49.5312H1497.43V65H1491.36V26.7676H1503.96C1508.16 26.7676 1511.42 27.7344 1513.74 29.668C1516.07 31.582 1517.23 34.4238 1517.23 38.1934C1517.23 39.873 1516.97 41.3574 1516.44 42.6465C1515.93 43.916 1515.2 45.0098 1514.24 45.9277C1513.3 46.8457 1512.2 47.5781 1510.93 48.125C1509.68 48.6523 1508.32 49.0137 1506.86 49.209L1517.76 65ZM1511.17 38.1055C1511.17 36.1523 1510.52 34.6875 1509.23 33.7109C1507.96 32.7344 1506.2 32.2461 1503.96 32.2461H1497.43V44.0527H1503.96C1506.2 44.0527 1507.96 43.5644 1509.23 42.5879C1510.52 41.6113 1511.17 40.1172 1511.17 38.1055ZM1548.55 65H1524.12V26.7676H1548.55V32.2461H1530.18V42.793H1544.51V48.2715H1530.18V59.5508H1548.55V65ZM1582.68 40.7129H1577.26V32.2461H1572.1V59.5508H1578.17V65H1560V59.5508H1566.04V32.2461H1560.82V40.7129H1555.43V26.7676H1582.68V40.7129ZM1647.28 54.5117C1647.28 56.2695 1646.98 57.8418 1646.37 59.2285C1645.78 60.5957 1644.97 61.7578 1643.94 62.7148C1642.92 63.6719 1641.7 64.4043 1640.28 64.9121C1638.87 65.4199 1637.37 65.6738 1635.77 65.6738C1633.97 65.6738 1632.35 65.3516 1630.9 64.707C1629.46 64.0625 1628.22 62.998 1627.18 61.5137V65H1621.73V52.5195H1627.18C1627.18 53.7695 1627.4 54.873 1627.83 55.8301C1628.28 56.7871 1628.86 57.5977 1629.58 58.2617C1630.31 58.9062 1631.15 59.4043 1632.1 59.7559C1633.06 60.0879 1634.08 60.2539 1635.15 60.2539C1636.97 60.2539 1638.43 59.834 1639.54 58.9941C1640.66 58.1543 1641.21 56.8164 1641.21 54.9805C1641.21 54.0234 1641.04 53.2031 1640.69 52.5195C1640.36 51.8359 1639.87 51.2305 1639.22 50.7031C1638.6 50.1562 1637.83 49.6875 1636.91 49.2969C1635.99 48.8867 1634.95 48.457 1633.77 48.0078C1632.39 47.5391 1631 47.0117 1629.61 46.4258C1628.23 45.8398 1626.99 45.1172 1625.89 44.2578C1624.8 43.3984 1623.91 42.3437 1623.23 41.0937C1622.54 39.8242 1622.2 38.2324 1622.2 36.3184C1622.2 34.6387 1622.5 33.1738 1623.11 31.9238C1623.73 30.6543 1624.55 29.5898 1625.57 28.7305C1626.61 27.8711 1627.8 27.2266 1629.14 26.7969C1630.51 26.3477 1631.96 26.123 1633.48 26.123C1635.24 26.123 1636.74 26.4941 1637.99 27.2363C1639.26 27.9785 1640.24 28.9648 1640.92 30.1953V26.7676H1646.37V38.6621H1640.92C1640.92 36.416 1640.33 34.668 1639.13 33.418C1637.96 32.1484 1636.38 31.5137 1634.39 31.5137C1632.63 31.5137 1631.17 31.9238 1629.99 32.7441C1628.84 33.5645 1628.27 34.7168 1628.27 36.2012C1628.27 36.9629 1628.41 37.6172 1628.7 38.1641C1629.02 38.6914 1629.46 39.1797 1630.02 39.6289C1630.61 40.0586 1631.34 40.4687 1632.22 40.8594C1633.1 41.2305 1634.12 41.6406 1635.27 42.0898C1636.71 42.5977 1638.15 43.1738 1639.57 43.8184C1641 44.4629 1642.28 45.2539 1643.41 46.1914C1644.54 47.1289 1645.47 48.2715 1646.2 49.6191C1646.92 50.9473 1647.28 52.5781 1647.28 54.5117ZM1679.56 65H1655.13V26.7676H1679.56V32.2461H1661.2V42.793H1675.52V48.2715H1661.2V59.5508H1679.56V65ZM1714.34 53.3105C1713.87 55.1855 1713.25 56.8848 1712.46 58.4082C1711.68 59.9316 1710.73 61.2305 1709.59 62.3047C1708.48 63.3789 1707.17 64.209 1705.67 64.7949C1704.18 65.3809 1702.47 65.6738 1700.54 65.6738C1697.87 65.6738 1695.6 65.1269 1693.74 64.0332C1691.89 62.9199 1690.37 61.4453 1689.17 59.6094C1688 57.7539 1687.15 55.6445 1686.62 53.2812C1686.12 50.8984 1685.86 48.4277 1685.86 45.8691C1685.86 43.3105 1686.12 40.8398 1686.62 38.457C1687.15 36.0742 1687.99 33.9746 1689.14 32.1582C1690.32 30.3418 1691.8 28.8867 1693.6 27.793C1695.39 26.6797 1697.59 26.123 1700.19 26.123C1701.03 26.123 1701.88 26.2305 1702.74 26.4453C1703.6 26.6602 1704.4 26.9922 1705.14 27.4414C1705.88 27.8711 1706.53 28.4082 1707.07 29.0527C1707.64 29.6973 1708.04 30.4395 1708.28 31.2793V26.7676L1713.75 26.7676V41.2402H1708.28C1708.28 40.0488 1708.13 38.877 1707.84 37.7246C1707.54 36.5527 1707.07 35.5176 1706.43 34.6191C1705.78 33.7207 1704.97 32.9883 1704 32.4219C1703.02 31.8555 1701.87 31.5723 1700.54 31.5723C1698.82 31.5723 1697.42 31.9922 1696.32 32.832C1695.23 33.6719 1694.35 34.7754 1693.69 36.1426C1693.02 37.5098 1692.55 39.043 1692.28 40.7422C1692.03 42.4414 1691.9 44.1504 1691.9 45.8691C1691.9 47.5879 1692.03 49.3066 1692.28 51.0254C1692.55 52.7441 1693.01 54.2871 1693.66 55.6543C1694.3 57.0019 1695.18 58.0957 1696.29 58.9355C1697.41 59.7754 1698.82 60.1953 1700.54 60.1953C1703.02 60.1953 1704.93 59.4043 1706.25 57.8223C1707.6 56.2402 1708.68 54.1113 1709.48 51.4355L1714.34 53.3105ZM1747.03 65H1739.36L1729.46 49.5312H1726.7V65H1720.64V26.7676H1733.24C1737.44 26.7676 1740.7 27.7344 1743.02 29.668C1745.35 31.582 1746.51 34.4238 1746.51 38.1934C1746.51 39.873 1746.24 41.3574 1745.72 42.6465C1745.21 43.916 1744.48 45.0098 1743.52 45.9277C1742.58 46.8457 1741.48 47.5781 1740.21 48.125C1738.96 48.6523 1737.6 49.0137 1736.14 49.209L1747.03 65ZM1740.44 38.1055C1740.44 36.1523 1739.8 34.6875 1738.51 33.7109C1737.24 32.7344 1735.48 32.2461 1733.24 32.2461H1726.7V44.0527H1733.24C1735.48 44.0527 1737.24 43.5644 1738.51 42.5879C1739.8 41.6113 1740.44 40.1172 1740.44 38.1055ZM1777.83 65H1753.39V26.7676H1777.83V32.2461H1759.46V42.793H1773.78V48.2715H1759.46V59.5508H1777.83V65ZM1811.96 40.7129H1806.54V32.2461H1801.38V59.5508H1807.45V65H1789.28V59.5508H1795.32V32.2461H1790.1V40.7129H1784.71V26.7676H1811.96V40.7129Z" fill="white"/>
</svg>
