<svg width="412" height="180" viewBox="0 0 412 180" fill="none" xmlns="http://www.w3.org/2000/svg">
<path d="M13.7637 0L411.714 37.745L399.096 170.362L363.374 175.863L331.495 155.844L314.403 167.562L299.963 157.602L176.297 136.65L88.4368 148.065L38.8129 125.76L24.2159 134.597L2.1434 133.003L13.7637 0Z" fill="black"/>
<path d="M58.0267 46.3593L56.2403 46.1898L55.1755 41.5152L48.9048 40.9204L47.0044 45.3138L45.218 45.1444L51.9964 29.7856L54.2567 30L58.0267 46.3593ZM54.841 39.9998L52.9553 31.5687L49.5182 39.4949L54.841 39.9998ZM70.2521 47.5188L68.5751 47.3598L69.2379 40.3721C69.3339 39.3594 69.1897 38.5528 68.8052 37.9523C68.4208 37.3518 67.7384 37.005 66.7581 36.912C66.1424 36.8536 65.5699 36.9424 65.0407 37.1783C64.5196 37.415 64.0622 37.7558 63.6685 38.2008C63.2755 38.6376 62.9567 39.1551 62.712 39.7531C62.4761 40.3438 62.3267 40.9714 62.2636 41.6357L61.7818 46.7154L60.1169 46.5575L61.1912 35.2314L62.8561 35.3893L62.5864 38.233C63.5852 36.2351 65.1135 35.3337 67.1713 35.5289C69.9583 35.7932 71.2061 37.4606 70.9149 40.5312L70.2521 47.5188ZM85.2594 43.265C85.1757 44.1481 84.9578 44.9367 84.6059 45.6309C84.262 46.3258 83.8022 46.9076 83.2264 47.3761C82.6595 47.8373 81.9976 48.1792 81.2408 48.4017C80.484 48.6242 79.6559 48.6928 78.7567 48.6075C77.8736 48.5237 77.0813 48.3015 76.3798 47.9406C75.6783 47.5798 75.0885 47.1192 74.6103 46.5589C74.141 45.9912 73.7987 45.3334 73.5835 44.5854C73.3765 43.8383 73.3148 43.0231 73.3986 42.1401C73.48 41.2813 73.6935 40.4963 74.0388 39.7852C74.3931 39.0668 74.8541 38.4729 75.4217 38.0035C75.9983 37.5269 76.665 37.1773 77.4218 36.9548C78.1794 36.7242 78.9997 36.6508 79.8828 36.7345C80.7821 36.8198 81.5821 37.0469 82.2828 37.4158C82.9843 37.7767 83.5693 38.245 84.0379 38.8208C84.5153 39.3892 84.8564 40.0592 85.0611 40.8307C85.2748 41.5948 85.3409 42.4063 85.2594 43.265ZM83.5945 43.1071C83.656 42.459 83.6153 41.8543 83.4723 41.2931C83.3382 40.7245 83.1044 40.2159 82.7709 39.7674C82.4375 39.3188 82.0145 38.9517 81.5021 38.6661C80.9978 38.3812 80.4134 38.2072 79.7491 38.1442C79.0848 38.0812 78.4741 38.1418 77.9171 38.326C77.3682 38.511 76.8919 38.7928 76.4881 39.1715C76.0843 39.5501 75.7591 40.0056 75.5124 40.5381C75.2746 41.0632 75.1249 41.6498 75.0635 42.298C75.002 42.9461 75.0383 43.5545 75.1724 44.1231C75.3153 44.6843 75.5503 45.1807 75.8772 45.6123C76.2041 46.0438 76.6201 46.398 77.1252 46.6748C77.6384 46.9524 78.2272 47.1227 78.8915 47.1857C79.5559 47.2487 80.1621 47.1917 80.7102 47.0148C81.2664 46.8387 81.7497 46.5698 82.16 46.2082C82.5704 45.8466 82.8944 45.4032 83.1323 44.878C83.379 44.3456 83.533 43.7553 83.5945 43.1071ZM97.4251 50.0962L95.748 49.9371L96.4108 42.9494C96.5069 41.9367 96.3627 41.1301 95.9782 40.5296C95.5937 39.9291 94.9113 39.5823 93.931 39.4894C93.3153 39.431 92.7429 39.5197 92.2137 39.7556C91.6926 39.9923 91.2352 40.3331 90.8415 40.7781C90.4485 41.2149 90.1297 41.7324 89.8849 42.3304C89.6491 42.9212 89.4996 43.5487 89.4366 44.213L88.9548 49.2928L87.2899 49.1349L88.3642 37.8087L90.0291 37.9666L89.7594 40.8103C90.7581 38.8124 92.2864 37.911 94.3443 38.1062C97.1312 38.3705 98.3791 40.0379 98.0879 43.1085L97.4251 50.0962ZM113.034 40.1486L105.563 53.7618C105.171 54.5258 104.677 55.002 104.078 55.1905C103.479 55.3871 102.831 55.4524 102.135 55.3863C101.357 55.3125 100.593 55.097 99.8417 54.7396L100.306 53.3368C100.671 53.5349 101.033 53.6837 101.392 53.7831C101.749 53.8906 102.041 53.9551 102.268 53.9766C102.819 54.0288 103.209 53.9309 103.437 53.6827C103.673 53.4354 103.885 53.1367 104.073 52.7867L104.929 51.1389L100.978 39.0052L102.947 39.1919L106.091 49.4835L111.041 39.9596L113.034 40.1486ZM125.194 52.73L123.529 52.572L124.301 44.4299C124.362 43.7817 124.297 43.2687 124.104 42.8907C123.911 42.5127 123.599 42.3033 123.17 42.2626C122.538 42.2027 122.041 42.4907 121.678 43.1266C121.323 43.7632 121.089 44.6811 120.975 45.8801L120.369 52.2724L118.692 52.1133L119.464 43.9711C119.526 43.323 119.456 42.8095 119.255 42.4308C119.062 42.0528 118.75 41.8434 118.321 41.8027C117.924 41.7651 117.597 41.8526 117.34 42.0652C117.083 42.2779 116.868 42.56 116.695 42.9115C116.531 43.2638 116.408 43.6608 116.325 44.1025C116.242 44.5443 116.18 44.9839 116.139 45.4214L115.532 51.8136L113.867 51.6557L114.942 40.3296L116.607 40.4875L116.451 42.1281C116.92 40.8892 117.738 40.325 118.904 40.4357C120.014 40.5409 120.715 41.1674 121.007 42.315C121.663 41.2573 122.493 40.7761 123.498 40.8714C124.462 40.9628 125.14 41.3173 125.531 41.9348C125.931 42.5449 126.076 43.4293 125.966 44.5878L125.194 52.73ZM139.605 48.4197C139.522 49.3028 139.304 50.0914 138.952 50.7855C138.608 51.4804 138.148 52.0622 137.572 52.5307C137.005 52.992 136.344 53.3338 135.587 53.5563C134.83 53.7788 134.002 53.8474 133.103 53.7621C132.22 53.6784 131.427 53.4561 130.726 53.0953C130.024 52.7345 129.434 52.2739 128.956 51.7135C128.487 51.1458 128.145 50.488 127.929 49.7401C127.722 48.9929 127.661 48.1778 127.745 47.2947C127.826 46.4359 128.039 45.651 128.385 44.9398C128.739 44.2214 129.2 43.6275 129.768 43.1582C130.344 42.6815 131.011 42.3319 131.768 42.1094C132.525 41.8788 133.346 41.8054 134.229 41.8892C135.128 41.9745 135.928 42.2016 136.629 42.5705C137.33 42.9313 137.915 43.3996 138.384 43.9754C138.861 44.5438 139.202 45.2138 139.407 45.9853C139.621 46.7494 139.687 47.5609 139.605 48.4197ZM137.94 48.2618C138.002 47.6136 137.961 47.0089 137.818 46.4477C137.684 45.8791 137.45 45.3705 137.117 44.922C136.783 44.4735 136.36 44.1064 135.848 43.8207C135.344 43.5358 134.759 43.3619 134.095 43.2988C133.431 43.2358 132.82 43.2964 132.263 43.4807C131.714 43.6657 131.238 43.9475 130.834 44.3261C130.43 44.7047 130.105 45.1602 129.858 45.6927C129.621 46.2178 129.471 46.8045 129.409 47.4526C129.348 48.1007 129.384 48.7091 129.518 49.2777C129.661 49.8389 129.896 50.3353 130.223 50.7669C130.55 51.1985 130.966 51.5526 131.471 51.8294C131.984 52.107 132.573 52.2773 133.237 52.3403C133.902 52.4033 134.508 52.3464 135.056 52.1695C135.612 51.9933 136.096 51.7245 136.506 51.3628C136.916 51.0012 137.24 50.5578 137.478 50.0327C137.725 49.5002 137.879 48.9099 137.94 48.2618ZM142.71 42.9634L144.375 43.1213L143.711 50.1211C143.615 51.1338 143.759 51.9404 144.144 52.5409C144.537 53.1341 145.224 53.4772 146.204 53.5702C146.82 53.6286 147.388 53.5394 147.909 53.3028C148.43 53.0661 148.888 52.7293 149.28 52.2924C149.674 51.8475 149.989 51.3297 150.225 50.7389C150.47 50.1409 150.623 49.5097 150.686 48.8454L151.168 43.7656L152.845 43.9247L151.771 55.2508L150.094 55.0917L150.363 52.2602C149.372 54.2589 147.848 55.1607 145.79 54.9655C143.003 54.7012 141.755 53.0337 142.046 49.9632L142.71 42.9634ZM165.947 53.4318C165.884 54.0961 165.665 54.6313 165.292 55.0373C164.918 55.4432 164.455 55.7509 163.904 55.9602C163.361 56.1703 162.761 56.2972 162.102 56.3411C161.452 56.3938 160.818 56.3909 160.203 56.3325C159.174 56.235 158.163 55.9879 157.171 55.5913C156.178 55.1947 155.333 54.718 154.633 54.1612L155.511 52.7975C156.295 53.4033 157.079 53.8864 157.862 54.2468C158.646 54.6072 159.471 54.8285 160.338 54.9107C162.841 55.1481 164.154 54.6187 164.277 53.3225C164.307 53.0065 164.226 52.7413 164.034 52.5269C163.85 52.3051 163.59 52.117 163.253 51.9624C162.917 51.7997 162.526 51.6604 162.079 51.5445C161.64 51.4293 161.177 51.3159 160.689 51.2042C160.066 51.0551 159.448 50.8903 158.835 50.7096C158.223 50.5289 157.669 50.2924 157.174 50.0002C156.686 49.7087 156.304 49.3455 156.026 48.9104C155.757 48.4761 155.654 47.9268 155.717 47.2625C155.771 46.6954 155.959 46.2187 156.282 45.8324C156.612 45.4469 157.03 45.139 157.534 44.9089C158.046 44.6796 158.633 44.5308 159.293 44.4627C159.953 44.3945 160.632 44.3935 161.329 44.4596C162.325 44.5541 163.205 44.7561 163.969 45.0656C164.733 45.367 165.411 45.7623 166.002 46.2516L165.211 47.4886C164.605 46.9734 163.979 46.5952 163.332 46.3539C162.685 46.1046 161.973 45.943 161.195 45.8693C160.847 45.8362 160.455 45.8317 160.019 45.8558C159.593 45.8726 159.19 45.9406 158.81 46.06C158.432 46.1712 158.106 46.3365 157.832 46.5557C157.566 46.7676 157.416 47.0558 157.382 47.4204C157.352 47.7364 157.429 48.0012 157.613 48.2148C157.806 48.4211 158.07 48.6056 158.406 48.7683C158.743 48.9229 159.131 49.0577 159.57 49.1729C160.016 49.2889 160.484 49.4027 160.972 49.5144C161.579 49.6619 162.189 49.826 162.801 50.0067C163.422 50.1882 163.976 50.4206 164.464 50.7039C164.96 50.9881 165.347 51.3476 165.625 51.7827C165.902 52.2177 166.01 52.7674 165.947 53.4318ZM194.176 47.8448C194.031 49.376 193.445 50.469 192.418 51.1237C191.391 51.7783 190.015 52.0238 188.29 51.8602L184.705 51.5201L184.06 58.3134L182.395 58.1555L183.9 42.2965L189.125 42.7921C190.867 42.9573 192.18 43.466 193.064 44.3183C193.948 45.1624 194.319 46.3379 194.176 47.8448ZM192.511 47.6869C192.615 46.5932 192.345 45.7706 191.703 45.2192C191.061 44.6597 190.165 44.3254 189.015 44.2163L185.43 43.8762L184.839 50.0983L188.424 50.4383C189.575 50.5474 190.517 50.3916 191.252 49.9708C191.988 49.5419 192.407 48.7806 192.511 47.6869ZM207.016 50.669C206.445 50.3124 205.746 50.0949 204.92 50.0165C204.239 49.9519 203.618 50.0401 203.055 50.2811C202.493 50.522 202.003 50.8638 201.585 51.3065C201.168 51.741 200.828 52.2565 200.568 52.8531C200.315 53.4422 200.159 54.0609 200.097 54.709L199.75 58.3669L202.314 58.6101L202.18 60.032L195.386 59.3876L195.521 57.9658L198.085 58.209L198.89 49.7266L196.326 49.4834L196.461 48.0615L200.69 48.4626L200.42 51.3063C201.378 49.3045 202.923 48.4047 205.053 48.6068C205.629 48.6613 206.123 48.7451 206.538 48.8579C206.96 48.9716 207.345 49.1389 207.692 49.3598L207.016 50.669ZM221.124 56.1516C221.04 57.0347 220.823 57.8233 220.471 58.5175C220.127 59.2124 219.667 59.7941 219.091 60.2627C218.524 60.7239 217.862 61.0658 217.106 61.2883C216.349 61.5108 215.521 61.5794 214.621 61.4941C213.738 61.4103 212.946 61.188 212.245 60.8272C211.543 60.4664 210.953 60.0058 210.475 59.4455C210.006 58.8778 209.664 58.22 209.448 57.472C209.241 56.7249 209.18 55.9097 209.263 55.0266C209.345 54.1679 209.558 53.3829 209.904 52.6718C210.258 51.9533 210.719 51.3594 211.287 50.8901C211.863 50.4135 212.53 50.0639 213.287 49.8414C214.044 49.6108 214.865 49.5374 215.748 49.6211C216.647 49.7064 217.447 49.9335 218.148 50.3024C218.849 50.6633 219.434 51.1316 219.903 51.7073C220.38 52.2758 220.721 52.9458 220.926 53.7172C221.14 54.4814 221.206 55.2929 221.124 56.1516ZM219.459 55.9937C219.521 55.3456 219.48 54.7409 219.337 54.1796C219.203 53.6111 218.969 53.1025 218.636 52.654C218.302 52.2054 217.879 51.8383 217.367 51.5527C216.863 51.2678 216.278 51.0938 215.614 51.0308C214.95 50.9678 214.339 51.0284 213.782 51.2126C213.233 51.3976 212.757 51.6794 212.353 52.058C211.949 52.4366 211.624 52.8922 211.377 53.4247C211.139 53.9498 210.99 54.5364 210.928 55.1846C210.867 55.8327 210.903 56.4411 211.037 57.0096C211.18 57.5709 211.415 58.0673 211.742 58.4989C212.069 58.9304 212.485 59.2846 212.99 59.5614C213.503 59.839 214.092 60.0092 214.756 60.0723C215.421 60.1353 216.027 60.0783 216.575 59.9014C217.131 59.7253 217.615 59.4564 218.025 59.0948C218.435 58.7331 218.759 58.2898 218.997 57.7646C219.244 57.2322 219.398 56.6419 219.459 55.9937ZM247.249 62.1487C246.701 62.8487 245.988 63.3779 245.112 63.7362C244.245 64.0872 243.241 64.2086 242.098 64.1002C241.215 64.0165 240.419 63.7938 239.709 63.4322C239 63.0706 238.406 62.6056 237.929 62.0371C237.46 61.4614 237.114 60.7991 236.891 60.0504C236.668 59.3017 236.598 58.4858 236.682 57.6027C236.763 56.7439 236.972 55.9627 237.309 55.2589C237.646 54.547 238.086 53.9552 238.63 53.4836C239.174 53.0038 239.816 52.652 240.557 52.4279C241.306 52.1965 242.119 52.1224 242.994 52.2053C243.342 52.2384 243.695 52.3127 244.051 52.4283C244.408 52.5439 244.741 52.7021 245.049 52.903C245.357 53.0958 245.63 53.3219 245.867 53.5815C246.105 53.8329 246.274 54.1228 246.373 54.451L246.529 52.8104L248.024 52.9522L247.594 57.4851L246.099 57.3433C246.147 56.841 246.097 56.3744 245.95 55.9436C245.811 55.5135 245.597 55.1336 245.31 54.8038C245.022 54.4741 244.667 54.2075 244.245 54.0039C243.824 53.7923 243.362 53.6627 242.86 53.615C242.179 53.5505 241.573 53.6115 241.04 53.798C240.515 53.9853 240.064 54.2654 239.685 54.6382C239.306 55.011 239.002 55.4644 238.771 55.9984C238.55 56.5251 238.408 57.1125 238.347 57.7606C238.285 58.4088 238.326 59.0175 238.468 59.5869C238.619 60.1489 238.862 60.6461 239.197 61.0784C239.54 61.5115 239.964 61.8705 240.468 62.1554C240.98 62.441 241.569 62.6154 242.233 62.6784C243.076 62.7583 243.84 62.6674 244.527 62.4055C245.214 62.1437 245.758 61.7539 246.159 61.236L247.249 62.1487ZM261.884 60.0176C261.8 60.9007 261.582 61.6893 261.23 62.3835C260.886 63.0784 260.426 63.6601 259.851 64.1287C259.284 64.5899 258.622 64.9318 257.865 65.1543C257.108 65.3768 256.28 65.4454 255.381 65.3601C254.498 65.2763 253.706 65.054 253.004 64.6932C252.303 64.3324 251.713 63.8718 251.235 63.3115C250.765 62.7438 250.423 62.086 250.208 61.338C250.001 60.5908 249.939 59.7757 250.023 58.8926C250.104 58.0338 250.318 57.2489 250.663 56.5378C251.017 55.8193 251.478 55.2254 252.046 54.7561C252.623 54.2794 253.289 53.9299 254.046 53.7074C254.804 53.4768 255.624 53.4033 256.507 53.4871C257.406 53.5724 258.206 53.7995 258.907 54.1684C259.609 54.5292 260.194 54.9975 260.662 55.5733C261.14 56.1418 261.481 56.8117 261.685 57.5832C261.899 58.3474 261.965 59.1588 261.884 60.0176ZM260.219 59.8597C260.28 59.2116 260.24 58.6069 260.097 58.0456C259.963 57.477 259.729 56.9685 259.395 56.5199C259.062 56.0714 258.639 55.7043 258.126 55.4186C257.622 55.1337 257.038 54.9598 256.373 54.8968C255.709 54.8338 255.098 54.8944 254.541 55.0786C253.992 55.2636 253.516 55.5454 253.112 55.924C252.709 56.3026 252.383 56.7582 252.137 57.2906C251.899 57.8158 251.749 58.4024 251.688 59.0505C251.626 59.6987 251.663 60.307 251.797 60.8756C251.94 61.4369 252.175 61.9333 252.501 62.3648C252.828 62.7964 253.244 63.1506 253.75 63.4274C254.263 63.7049 254.851 63.8752 255.516 63.9382C256.18 64.0012 256.786 63.9443 257.334 63.7674C257.891 63.5913 258.374 63.3224 258.784 62.9608C259.195 62.5991 259.519 62.1557 259.757 61.6306C260.003 61.0981 260.157 60.5078 260.219 59.8597ZM274.829 58.6336C274.776 59.1846 274.533 59.6846 274.098 60.1338C273.672 60.5757 273.055 60.8238 272.249 60.8781C272.981 61.0947 273.55 61.4675 273.958 61.9966C274.374 62.5184 274.555 63.071 274.5 63.6543C274.448 64.1971 274.256 64.6734 273.923 65.0833C273.59 65.485 273.155 65.8115 272.616 66.0629C272.085 66.315 271.468 66.4854 270.765 66.574C270.061 66.6707 269.304 66.6806 268.493 66.6038C267.197 66.4808 266.147 66.1809 265.342 65.704C264.546 65.2198 263.931 64.5484 263.497 63.6898L264.74 62.9984C265.065 63.6178 265.546 64.113 266.181 64.4839C266.816 64.8547 267.632 65.0874 268.628 65.1819C269.819 65.2949 270.801 65.2041 271.573 64.9094C272.352 64.6155 272.773 64.1445 272.835 63.4964C272.855 63.2776 272.803 63.052 272.678 62.8194C272.562 62.5795 272.374 62.3614 272.115 62.1651C271.856 61.9608 271.529 61.7867 271.134 61.643C270.74 61.4911 270.267 61.3891 269.716 61.3368L267.821 61.157L267.954 59.7473L269.85 59.9272C270.912 60.0278 271.715 59.916 272.261 59.5918C272.815 59.2602 273.112 58.8878 273.152 58.4746C273.208 57.8751 272.922 57.3656 272.291 56.9461C271.669 56.5274 270.782 56.2634 269.632 56.1543C268.676 56.0636 267.87 56.1589 267.214 56.44C266.557 56.7211 266.036 57.1294 265.651 57.665L264.492 56.6968C265.063 55.9335 265.772 55.3877 266.621 55.0595C267.478 54.732 268.526 54.6271 269.765 54.7446C270.551 54.8192 271.261 54.9682 271.893 55.1917C272.535 55.4079 273.081 55.6845 273.531 56.0215C273.991 56.3511 274.333 56.7433 274.56 57.1981C274.787 57.6447 274.877 58.1232 274.829 58.6336ZM277.04 65.6978C277.429 65.6529 277.814 65.4687 278.196 65.1453C278.578 64.8218 278.929 64.3564 279.248 63.7491C279.567 63.1418 279.847 62.3958 280.086 61.5111C280.334 60.6191 280.514 59.5857 280.625 58.4109L280.847 56.0655L287.033 56.6522L286.094 66.5565L288.366 66.772L287.864 72.0705L286.369 71.9287L286.737 68.0521L278.4 67.2614L278.032 71.138L276.538 70.9962L277.04 65.6978ZM282.29 58.5688C282.201 59.5086 282.048 60.3852 281.832 61.1985C281.625 62.0045 281.381 62.7211 281.101 63.3485C280.829 63.9767 280.533 64.5126 280.213 64.9564C279.893 65.3921 279.589 65.7107 279.3 65.9121L284.429 66.3986L285.233 57.9161L282.377 57.6453L282.29 58.5688ZM290.758 65.3435C290.825 64.6306 291.06 64.052 291.462 63.6078C291.865 63.1555 292.367 62.8189 292.968 62.598C293.578 62.3698 294.262 62.2303 295.019 62.1795C295.784 62.1213 296.556 62.1291 297.334 62.2029C297.634 62.2313 297.901 62.2607 298.135 62.2911C298.377 62.3222 298.603 62.3559 298.812 62.3921C299.029 62.429 299.246 62.4701 299.462 62.5151C299.679 62.5602 299.915 62.6112 300.171 62.6682L300.248 61.854C300.301 61.303 300.222 60.8378 300.013 60.4583C299.812 60.0795 299.547 59.7724 299.217 59.5368C298.889 59.2931 298.538 59.1127 298.165 58.9956C297.793 58.8703 297.473 58.795 297.206 58.7697C296.363 58.6898 295.575 58.7294 294.84 58.8886C294.106 59.0479 293.413 59.2887 292.761 59.611L292.126 58.2879C292.846 57.9392 293.639 57.6752 294.506 57.4959C295.382 57.3092 296.327 57.2639 297.339 57.36C297.955 57.4184 298.551 57.5566 299.127 57.7748C299.712 57.9856 300.224 58.2793 300.662 58.6561C301.109 59.0255 301.449 59.491 301.682 60.0526C301.915 60.6142 301.996 61.2677 301.925 62.013L301.222 69.426L299.545 69.267L299.725 67.3712C299.399 67.7081 299.036 67.9966 298.638 68.2367C298.247 68.4776 297.841 68.6679 297.419 68.8078C296.997 68.9395 296.58 69.0307 296.166 69.0814C295.752 69.1402 295.363 69.1523 294.998 69.1177C293.499 68.9755 292.392 68.5804 291.677 67.9321C290.962 67.2839 290.656 66.421 290.758 65.3435ZM295.133 67.6959C295.83 67.7619 296.463 67.7198 297.033 67.5696C297.612 67.4119 298.111 67.1976 298.529 66.9267C298.947 66.6557 299.278 66.356 299.521 66.0276C299.773 65.7 299.913 65.3944 299.94 65.1108L300.041 64.0414C299.506 63.9089 298.987 63.8148 298.486 63.759C297.993 63.7041 297.564 63.6593 297.199 63.6247C296.599 63.5678 296.016 63.5534 295.45 63.5814C294.891 63.6102 294.396 63.6981 293.965 63.8453C293.535 63.9843 293.181 64.1878 292.902 64.4556C292.623 64.7234 292.463 65.072 292.423 65.5014C292.377 65.9794 292.566 66.4429 292.99 66.8918C293.422 67.3333 294.136 67.6013 295.133 67.6959ZM314.809 70.7147L313.132 70.5556L313.614 65.4759L306.82 64.8316L306.339 69.9113L304.674 69.7534L305.748 58.4273L307.413 58.5852L306.955 63.4097L313.748 64.0541L314.206 59.2295L315.883 59.3886L314.809 70.7147ZM54.305 71.1185L52.628 70.9594L53.8809 57.7497L50.2979 65.662L49.107 65.5491L47.0877 57.1053L45.8347 70.3151L44.1698 70.1572L45.674 54.2982L47.8372 54.5033L49.9434 63.0657L53.6461 55.0543L55.8092 55.2595L54.305 71.1185ZM57.427 68.3246C57.4946 67.6117 57.7294 67.0331 58.1312 66.5889C58.5337 66.1366 59.0357 65.8 59.637 65.5791C60.2473 65.3509 60.9308 65.2114 61.6877 65.1606C62.4534 65.1024 63.2252 65.1102 64.003 65.184C64.3027 65.2124 64.5697 65.2418 64.8039 65.2722C65.0461 65.3033 65.2718 65.337 65.4809 65.3732C65.6982 65.4101 65.915 65.4511 66.1314 65.4962C66.3479 65.5413 66.5842 65.5923 66.8403 65.6493L66.9176 64.8351C66.9698 64.2841 66.8913 63.8189 66.6821 63.4394C66.481 63.0606 66.2158 62.7535 65.8866 62.5179C65.5583 62.2742 65.2075 62.0938 64.8344 61.9767C64.4621 61.8514 64.1423 61.7761 63.8749 61.7508C63.0323 61.6709 62.2438 61.7105 61.5093 61.8697C60.7749 62.029 60.0817 62.2698 59.4299 62.5921L58.7952 61.269C59.5149 60.9203 60.3083 60.6563 61.1755 60.477C62.0515 60.2903 62.9959 60.245 64.0086 60.3411C64.6243 60.3995 65.2202 60.5377 65.7963 60.7559C66.3812 60.9667 66.8929 61.2604 67.3312 61.6372C67.7785 62.0066 68.1186 62.4721 68.3514 63.0337C68.5842 63.5953 68.6653 64.2488 68.5946 64.9941L67.8915 72.4071L66.2145 72.2481L66.3943 70.3523C66.068 70.6892 65.7055 70.9777 65.3067 71.2178C64.916 71.4587 64.5097 71.649 64.0877 71.7889C63.6665 71.9206 63.2491 72.0118 62.8355 72.0625C62.4212 72.1213 62.0318 72.1334 61.6672 72.0988C60.1684 71.9566 59.0615 71.5615 58.3464 70.9132C57.6313 70.265 57.3248 69.4021 57.427 68.3246ZM61.8021 70.677C62.4988 70.743 63.1323 70.7009 63.7024 70.5507C64.2814 70.393 64.7799 70.1787 65.198 69.9078C65.6161 69.6368 65.947 69.3371 66.1906 69.0087C66.4424 68.6811 66.5818 68.3755 66.6087 68.0919L66.7101 67.0225C66.175 66.89 65.6566 66.7959 65.1551 66.7401C64.6617 66.6852 64.2327 66.6404 63.8681 66.6058C63.2686 66.5489 62.6855 66.5345 62.1188 66.5625C61.5602 66.5913 61.0654 66.6792 60.6346 66.8264C60.2045 66.9654 59.85 67.1689 59.5712 67.4367C59.2924 67.7045 59.1326 68.0531 59.0919 68.4825C59.0466 68.9605 59.2356 69.424 59.659 69.8729C60.0912 70.3144 60.8056 70.5824 61.8021 70.677ZM82.6094 68.1014C82.5257 68.9845 82.3119 69.7735 81.968 70.4684C81.6242 71.1633 81.1761 71.7502 80.6239 72.2292C80.0805 72.7008 79.4426 73.0491 78.7101 73.2739C77.9775 73.4987 77.1738 73.5696 76.2988 73.4866C75.6993 73.4297 75.1264 73.265 74.58 72.9925C74.0417 72.7207 73.5499 72.3471 73.1045 71.8716L72.5778 77.4253L70.9129 77.2674L72.4171 61.4084L74.082 61.5663L73.9828 62.6114C75.0947 61.834 76.2421 61.5014 77.425 61.6136C78.2999 61.6966 79.076 61.9173 79.7532 62.2759C80.4311 62.6263 80.9919 63.0923 81.4353 63.6739C81.8877 64.2481 82.2166 64.9169 82.4222 65.6803C82.6285 66.4356 82.6909 67.2426 82.6094 68.1014ZM80.9445 67.9435C81.0045 67.3115 80.9715 66.7117 80.8455 66.1438C80.7284 65.5687 80.5148 65.062 80.2049 64.6239C79.8949 64.1858 79.4959 63.8251 79.0078 63.5417C78.5278 63.2591 77.9556 63.0863 77.2912 63.0233C76.6593 62.9634 76.0568 63.0247 75.4836 63.2074C74.9185 63.3909 74.3679 63.7229 73.8318 64.2034L73.2555 70.2796C73.6917 70.8523 74.1704 71.2779 74.6917 71.5562C75.2211 71.8353 75.8017 72.0048 76.4337 72.0647C77.098 72.1278 77.6925 72.0656 78.2171 71.8783C78.7498 71.6918 79.2095 71.4125 79.5963 71.0404C79.9831 70.6684 80.2873 70.219 80.5089 69.6924C80.7394 69.1584 80.8846 68.5754 80.9445 67.9435ZM95.6356 75.0386L93.2659 74.8139L89.1176 69.295L86.8985 70.9728L86.5942 74.1811L84.9293 74.0232L86.0036 62.697L87.6685 62.8549L87.0898 68.9555L94.1214 63.467L96.5033 63.6929L90.3348 68.3559L95.6356 75.0386ZM110.072 70.7307C109.988 71.6137 109.77 72.4024 109.418 73.0965C109.074 73.7914 108.615 74.3732 108.039 74.8417C107.472 75.303 106.81 75.6448 106.053 75.8673C105.296 76.0898 104.468 76.1584 103.569 76.0731C102.686 75.9894 101.894 75.7671 101.192 75.4063C100.491 75.0454 99.9008 74.5849 99.4226 74.0245C98.9533 73.4568 98.6111 72.799 98.3959 72.0511C98.1888 71.3039 98.1272 70.4888 98.2109 69.6057C98.2924 68.7469 98.5058 67.962 98.8512 67.2508C99.2054 66.5324 99.6664 65.9385 100.234 65.4691C100.811 64.9925 101.477 64.6429 102.234 64.4204C102.992 64.1898 103.812 64.1164 104.695 64.2001C105.594 64.2854 106.394 64.5125 107.095 64.8815C107.797 65.2423 108.382 65.7106 108.85 66.2864C109.328 66.8548 109.669 67.5248 109.873 68.2963C110.087 69.0604 110.153 69.8719 110.072 70.7307ZM108.407 70.5727C108.468 69.9246 108.428 69.3199 108.285 68.7587C108.151 68.1901 107.917 67.6815 107.583 67.233C107.25 66.7845 106.827 66.4174 106.314 66.1317C105.81 65.8468 105.226 65.6728 104.561 65.6098C103.897 65.5468 103.286 65.6074 102.729 65.7917C102.181 65.9767 101.704 66.2585 101.3 66.6371C100.897 67.0157 100.571 67.4712 100.325 68.0037C100.087 68.5288 99.9373 69.1155 99.8758 69.7636C99.8143 70.4117 99.8507 71.0201 99.9847 71.5887C100.128 72.1499 100.363 72.6463 100.69 73.0779C101.016 73.5095 101.432 73.8636 101.938 74.1404C102.451 74.418 103.04 74.5883 103.704 74.6513C104.368 74.7143 104.974 74.6574 105.523 74.4805C106.079 74.3043 106.562 74.0354 106.972 73.6738C107.383 73.3122 107.707 72.8688 107.945 72.3437C108.191 71.8112 108.345 71.2209 108.407 70.5727ZM122.237 77.5618L120.56 77.4027L121.412 68.422L118.073 74.0277L116.882 73.9148L114.619 67.7777L113.767 76.7584L112.102 76.6005L113.177 65.2744L115.34 65.4795L117.696 71.6623L121.149 66.0305L123.312 66.2357L122.237 77.5618ZM150.497 76.0486C149.955 77.3705 149.177 78.3798 148.162 79.0766C147.148 79.7733 145.928 80.054 144.502 79.9188C143.392 79.8135 142.473 79.5016 141.746 78.983C141.019 78.4644 140.444 77.8049 140.021 77.0046C139.606 76.205 139.336 75.3007 139.211 74.2915C139.095 73.2832 139.086 72.2483 139.187 71.187C139.288 70.1257 139.49 69.1108 139.795 68.1424C140.107 67.1747 140.543 66.3332 141.101 65.6177C141.667 64.903 142.357 64.3553 143.17 63.9747C143.983 63.5859 144.945 63.4441 146.055 63.5494C147.035 63.6424 147.857 63.8961 148.521 64.3105C149.184 64.725 149.648 65.3044 149.913 66.0489L150.088 64.2017L151.51 64.3366L151.017 69.5378L149.595 69.403C149.648 68.844 149.589 68.307 149.417 67.792C149.254 67.2698 149.007 66.809 148.677 66.4099C148.347 66.0107 147.941 65.6861 147.458 65.4359C146.983 65.1784 146.471 65.0235 145.92 64.9712C145.061 64.8898 144.329 65.0247 143.723 65.376C143.126 65.728 142.626 66.216 142.223 66.84C141.821 67.464 141.509 68.1701 141.287 68.9583C141.073 69.7473 140.928 70.5428 140.852 71.3449C140.777 72.1389 140.769 72.9475 140.83 73.7707C140.9 74.5866 141.075 75.3307 141.354 76.003C141.635 76.6672 142.035 77.2324 142.555 77.6986C143.083 78.1575 143.777 78.4276 144.636 78.5091C146.613 78.6966 148.102 77.6403 149.105 75.3403L150.497 76.0486ZM153.936 69.1403L155.601 69.2982L154.734 78.4369L161.726 69.8792L164.071 70.1016L162.997 81.4278L161.32 81.2687L162.226 71.7168L154.928 80.6624L152.862 80.4664L153.936 69.1403ZM176.583 82.7164L174.906 82.5573L175.758 73.5767L172.418 79.1824L171.228 79.0694L168.965 72.9323L168.113 81.913L166.448 81.7551L167.522 70.429L169.686 70.6342L172.042 76.8169L175.494 71.1851L177.658 71.3903L176.583 82.7164ZM191.591 78.4626C191.507 79.3457 191.289 80.1343 190.937 80.8285C190.593 81.5234 190.133 82.1051 189.558 82.5737C188.991 83.0349 188.329 83.3768 187.572 83.5993C186.815 83.8218 185.987 83.8904 185.088 83.8051C184.205 83.7213 183.413 83.499 182.711 83.1382C182.01 82.7774 181.42 82.3168 180.942 81.7565C180.472 81.1888 180.13 80.531 179.915 79.783C179.708 79.0358 179.646 78.2207 179.73 77.3376C179.811 76.4789 180.025 75.6939 180.37 74.9828C180.724 74.2643 181.185 73.6704 181.753 73.2011C182.33 72.7244 182.996 72.3749 183.753 72.1524C184.511 71.9218 185.331 71.8483 186.214 71.9321C187.113 72.0174 187.913 72.2445 188.614 72.6134C189.316 72.9742 189.901 73.4425 190.369 74.0183C190.847 74.5868 191.188 75.2568 191.392 76.0282C191.606 76.7924 191.672 77.6038 191.591 78.4626ZM189.926 78.3047C189.987 77.6566 189.947 77.0519 189.804 76.4906C189.669 75.922 189.436 75.4135 189.102 74.9649C188.769 74.5164 188.346 74.1493 187.833 73.8636C187.329 73.5787 186.745 73.4048 186.08 73.3418C185.416 73.2788 184.805 73.3394 184.248 73.5236C183.699 73.7086 183.223 73.9904 182.819 74.369C182.416 74.7476 182.09 75.2032 181.844 75.7356C181.606 76.2608 181.456 76.8474 181.395 77.4955C181.333 78.1437 181.37 78.752 181.504 79.3206C181.647 79.8819 181.882 80.3783 182.208 80.8098C182.535 81.2414 182.951 81.5956 183.456 81.8724C183.97 82.1499 184.558 82.3202 185.223 82.3832C185.887 82.4462 186.493 82.3893 187.041 82.2124C187.598 82.0363 188.081 81.7674 188.491 81.4058C188.902 81.0441 189.226 80.6007 189.464 80.0756C189.71 79.5431 189.864 78.9528 189.926 78.3047ZM204.129 83.171C203.581 83.871 202.868 84.4002 201.992 84.7586C201.125 85.1096 200.121 85.2309 198.978 85.1226C198.095 85.0388 197.299 84.8161 196.589 84.4545C195.88 84.0929 195.286 83.6279 194.809 83.0595C194.34 82.4837 193.994 81.8214 193.771 81.0727C193.548 80.324 193.478 79.5081 193.562 78.625C193.643 77.7663 193.852 76.985 194.189 76.2812C194.526 75.5693 194.966 74.9775 195.51 74.5059C196.054 74.0262 196.696 73.6743 197.437 73.4502C198.186 73.2189 198.998 73.1447 199.873 73.2277C200.222 73.2607 200.574 73.335 200.931 73.4506C201.288 73.5662 201.621 73.7245 201.929 73.9253C202.237 74.1181 202.51 74.3443 202.747 74.6038C202.985 74.8552 203.154 75.1451 203.253 75.4733L203.409 73.8328L204.904 73.9745L204.474 78.5074L202.979 78.3656C203.026 77.8633 202.977 77.3967 202.83 76.9659C202.691 76.5358 202.477 76.1559 202.19 75.8262C201.902 75.4964 201.547 75.2298 201.125 75.0263C200.704 74.8146 200.242 74.685 199.74 74.6374C199.059 74.5728 198.453 74.6338 197.92 74.8203C197.395 75.0076 196.944 75.2877 196.565 75.6605C196.186 76.0333 195.882 76.4867 195.651 77.0207C195.43 77.5474 195.288 78.1348 195.227 78.7829C195.165 79.4311 195.205 80.0398 195.348 80.6092C195.499 81.1712 195.742 81.6684 196.077 82.1007C196.42 82.5338 196.844 82.8928 197.348 83.1777C197.86 83.4634 198.449 83.6377 199.113 83.7007C199.956 83.7806 200.72 83.6897 201.407 83.4279C202.094 83.166 202.638 82.7762 203.039 82.2583L204.129 83.171ZM218.764 81.0399C218.68 81.923 218.462 82.7116 218.11 83.4058C217.766 84.1007 217.306 84.6824 216.731 85.151C216.164 85.6122 215.502 85.9541 214.745 86.1766C213.988 86.3991 213.16 86.4677 212.261 86.3824C211.378 86.2986 210.586 86.0763 209.884 85.7155C209.183 85.3547 208.593 84.8941 208.115 84.3338C207.645 83.7661 207.303 83.1083 207.088 82.3603C206.881 81.6132 206.819 80.798 206.903 79.9149C206.984 79.0562 207.198 78.2712 207.543 77.5601C207.897 76.8416 208.358 76.2477 208.926 75.7784C209.503 75.3018 210.169 74.9522 210.926 74.7297C211.684 74.4991 212.504 74.4257 213.387 74.5094C214.286 74.5947 215.086 74.8218 215.787 75.1907C216.489 75.5516 217.074 76.0199 217.542 76.5956C218.02 77.1641 218.361 77.8341 218.565 78.6055C218.779 79.3697 218.845 80.1812 218.764 81.0399ZM217.099 80.882C217.16 80.2339 217.119 79.6292 216.977 79.0679C216.842 78.4994 216.609 77.9908 216.275 77.5423C215.942 77.0937 215.519 76.7266 215.006 76.441C214.502 76.1561 213.918 75.9821 213.253 75.9191C212.589 75.8561 211.978 75.9167 211.421 76.1009C210.872 76.2859 210.396 76.5677 209.992 76.9463C209.589 77.3249 209.263 77.7805 209.017 78.313C208.779 78.8381 208.629 79.4247 208.568 80.0729C208.506 80.721 208.543 81.3294 208.677 81.8979C208.82 82.4592 209.055 82.9556 209.381 83.3872C209.708 83.8187 210.124 84.1729 210.629 84.4497C211.143 84.7273 211.731 84.8975 212.396 84.9606C213.06 85.0236 213.666 84.9666 214.214 84.7897C214.771 84.6136 215.254 84.3447 215.664 83.9831C216.075 83.6214 216.399 83.1781 216.636 82.6529C216.883 82.1205 217.037 81.5302 217.099 80.882ZM230.929 87.871L229.252 87.712L229.734 82.6322L222.941 81.9879L222.459 87.0677L220.794 86.9097L221.868 75.5836L223.533 75.7415L223.076 80.5661L229.869 81.2104L230.327 76.3859L232.004 76.5449L230.929 87.871ZM245.937 83.6172C245.853 84.5003 245.635 85.2889 245.283 85.9831C244.939 86.678 244.479 87.2598 243.904 87.7283C243.337 88.1895 242.675 88.5314 241.918 88.7539C241.161 88.9764 240.333 89.045 239.434 88.9597C238.551 88.876 237.758 88.6537 237.057 88.2928C236.356 87.932 235.766 87.4714 235.287 86.9111C234.818 86.3434 234.476 85.6856 234.261 84.9376C234.054 84.1905 233.992 83.3753 234.076 82.4923C234.157 81.6335 234.371 80.8485 234.716 80.1374C235.07 79.419 235.531 78.8251 236.099 78.3557C236.675 77.8791 237.342 77.5295 238.099 77.307C238.857 77.0764 239.677 77.003 240.56 77.0867C241.459 77.172 242.259 77.3991 242.96 77.7681C243.661 78.1289 244.246 78.5972 244.715 79.173C245.192 79.7414 245.534 80.4114 245.738 81.1829C245.952 81.947 246.018 82.7585 245.937 83.6172ZM244.272 83.4593C244.333 82.8112 244.292 82.2065 244.149 81.6453C244.015 81.0767 243.782 80.5681 243.448 80.1196C243.115 79.671 242.692 79.3039 242.179 79.0183C241.675 78.7334 241.091 78.5594 240.426 78.4964C239.762 78.4334 239.151 78.494 238.594 78.6783C238.045 78.8633 237.569 79.1451 237.165 79.5237C236.762 79.9023 236.436 80.3578 236.19 80.8903C235.952 81.4154 235.802 82.002 235.741 82.6502C235.679 83.2983 235.715 83.9067 235.85 84.4753C235.993 85.0365 236.227 85.5329 236.554 85.9645C236.881 86.396 237.297 86.7502 237.802 87.027C238.316 87.3046 238.904 87.4749 239.569 87.5379C240.233 87.6009 240.839 87.5439 241.387 87.367C241.944 87.1909 242.427 86.922 242.837 86.5604C243.248 86.1988 243.572 85.7554 243.809 85.2302C244.056 84.6978 244.21 84.1075 244.272 83.4593ZM258.102 90.4484L256.425 90.2893L257.277 81.3086L253.937 86.9143L252.746 86.8013L250.484 80.6643L249.632 89.645L247.967 89.4871L249.041 78.1609L251.205 78.3661L253.561 84.5489L257.013 78.9171L259.177 79.1222L258.102 90.4484ZM286.153 89.8473C286.049 90.941 285.567 91.7168 284.706 92.1747C283.854 92.6252 282.675 92.779 281.168 92.6361L275.14 92.0644L276.214 80.7383L281.865 81.2742C282.416 81.3265 282.955 81.4225 283.481 81.5624C284.016 81.6949 284.484 81.8905 284.884 82.1492C285.286 82.3998 285.602 82.7281 285.833 83.1343C286.065 83.5404 286.151 84.0514 286.093 84.6671C286.037 85.2504 285.849 85.7271 285.528 86.0972C285.207 86.4673 284.623 86.7184 283.776 86.8507C284.767 87.1817 285.426 87.5958 285.755 88.0929C286.085 88.582 286.218 89.1668 286.153 89.8473ZM284.418 84.6064C284.451 84.258 284.385 83.9697 284.218 83.7414C284.053 83.5049 283.838 83.3169 283.573 83.1774C283.317 83.0305 283.025 82.9211 282.697 82.8491C282.368 82.777 282.046 82.726 281.73 82.6961L277.744 82.318L277.435 85.5749L281.421 85.9529C281.754 85.9845 282.092 85.9961 282.436 85.9879C282.78 85.9796 283.096 85.9278 283.383 85.8324C283.67 85.7289 283.905 85.5836 284.086 85.3964C284.276 85.2019 284.387 84.9386 284.418 84.6064ZM284.495 89.6165C284.558 88.9521 284.333 88.4403 283.819 88.0809C283.306 87.7216 282.579 87.4974 281.639 87.4082L277.301 86.9967L276.94 90.8004L281.278 91.2119C282.218 91.3011 282.974 91.2134 283.547 90.9489C284.12 90.6845 284.436 90.2403 284.495 89.6165ZM313.563 83.8515C313.521 84.289 313.444 84.6781 313.329 85.0188C313.224 85.3603 313.052 85.6996 312.816 86.0369C312.588 86.3749 312.293 86.7271 311.931 87.0933C311.569 87.4595 311.117 87.8744 310.575 88.338L304.514 93.4158L311.21 94.0509L311.505 90.9399L312.927 91.0747L312.497 95.6076L302.192 94.6302L302.331 93.1597L309.099 87.4746C309.445 87.1886 309.775 86.901 310.088 86.612C310.41 86.3237 310.7 86.0283 310.957 85.7257C311.215 85.4232 311.425 85.1038 311.588 84.7678C311.75 84.4317 311.85 84.0733 311.886 83.6925C311.978 82.7203 311.723 81.9563 311.122 81.4007C310.53 80.8377 309.76 80.5112 308.812 80.4213C307.483 80.2953 306.444 80.5686 305.693 81.2413C304.943 81.914 304.501 82.9471 304.369 84.3406L302.826 84.1942C302.996 82.4037 303.607 81.0475 304.659 80.1255C305.711 79.2034 307.14 78.8281 308.947 78.9995C309.627 79.064 310.258 79.226 310.838 79.4854C311.427 79.7375 311.935 80.0717 312.361 80.4882C312.796 80.9055 313.121 81.3982 313.337 81.9663C313.554 82.5264 313.629 83.1548 313.563 83.8515ZM317.318 88.0825C317.207 89.2572 317.244 90.3725 317.43 91.4283L325.599 84.2942C325.279 83.5282 324.85 82.9234 324.312 82.48C323.781 82.0373 323.136 81.7799 322.374 81.7076C320.948 81.5724 319.797 82.0763 318.92 83.2193C318.052 84.355 317.518 85.976 317.318 88.0825ZM317.873 92.8314C318.54 94.3334 319.611 95.1543 321.085 95.2941C322.479 95.4263 323.618 94.9253 324.502 93.7912C325.387 92.6489 325.929 91.0246 326.129 88.9181C326.184 88.3348 326.2 87.7805 326.176 87.255C326.153 86.7215 326.1 86.2096 326.015 85.7193L317.873 92.8314ZM315.653 87.9246C315.754 86.8632 315.965 85.8491 316.285 84.8823C316.606 83.9154 317.041 83.0738 317.592 82.3576C318.142 81.6414 318.823 81.0929 319.636 80.7122C320.457 80.3242 321.415 80.1821 322.509 80.2858C323.603 80.3895 324.512 80.7088 325.238 81.2436C325.973 81.7711 326.547 82.4386 326.961 83.2463C327.375 84.054 327.644 84.9624 327.769 85.9715C327.894 86.9807 327.907 88.0159 327.806 89.0772C327.705 90.1385 327.499 91.153 327.186 92.1207C326.874 93.0883 326.443 93.9262 325.893 94.6343C325.344 95.3424 324.658 95.8905 323.837 96.2785C323.024 96.6592 322.063 96.7969 320.953 96.6917C319.843 96.5864 318.92 96.27 318.186 95.7426C317.46 95.2078 316.89 94.5406 316.475 93.741C316.068 92.9422 315.807 92.0386 315.69 91.0303C315.565 90.0211 315.553 88.9859 315.653 87.9246ZM337.944 98.0213L331.151 97.3769L331.286 95.9551L333.85 96.1983L334.877 85.3704C334.7 85.6888 334.435 86.0233 334.083 86.3741C333.731 86.7168 333.326 87.0258 332.867 87.3011C332.408 87.5682 331.91 87.7825 331.371 87.944C330.841 88.1062 330.3 88.1612 329.749 88.1089L329.913 86.3833C330.407 86.4301 330.952 86.3265 331.549 86.0725C332.145 85.8184 332.705 85.475 333.228 85.0424C333.752 84.6097 334.2 84.1046 334.574 83.5269C334.947 82.9492 335.162 82.3607 335.219 81.7611L336.896 81.9202L335.527 96.3574L338.079 96.5994L337.944 98.0213ZM344.491 90.6598C344.38 91.8345 344.417 92.9498 344.603 94.0056L352.772 86.8715C352.452 86.1055 352.023 85.5008 351.485 85.0573C350.954 84.6146 350.308 84.3572 349.547 84.285C348.121 84.1497 346.97 84.6536 346.093 85.7966C345.225 86.9323 344.691 88.5534 344.491 90.6598ZM345.046 95.4087C345.713 96.9107 346.784 97.7316 348.258 97.8714C349.652 98.0036 350.791 97.5026 351.675 96.3685C352.56 95.2262 353.102 93.6019 353.302 91.4955C353.357 90.9121 353.373 90.3578 353.349 89.8324C353.326 89.2988 353.273 88.7869 353.188 88.2966L345.046 95.4087ZM342.826 90.5019C342.927 89.4406 343.138 88.4265 343.458 87.4596C343.779 86.4927 344.214 85.6511 344.764 84.9349C345.315 84.2187 345.996 83.6702 346.809 83.2896C347.63 82.9015 348.588 82.7594 349.682 82.8631C350.776 82.9669 351.685 83.2861 352.411 83.8209C353.146 84.3484 353.72 85.0159 354.134 85.8236C354.548 86.6313 354.817 87.5397 354.942 88.5488C355.067 89.558 355.08 90.5932 354.979 91.6545C354.878 92.7158 354.672 93.7303 354.359 94.698C354.047 95.6656 353.616 96.5035 353.066 97.2116C352.517 97.9198 351.831 98.4678 351.01 98.8559C350.197 99.2366 349.236 99.3743 348.126 99.269C347.016 99.1637 346.093 98.8473 345.359 98.3199C344.633 97.7851 344.063 97.1179 343.648 96.3183C343.241 95.5196 342.98 94.616 342.863 93.6076C342.738 92.5984 342.726 91.5632 342.826 90.5019ZM42.8835 83.7194L53.6141 84.7371L53.4793 86.159L44.4135 85.2991L43.4741 95.2034L41.8092 95.0455L42.8835 83.7194ZM66.9517 91.753C66.8679 92.6361 66.6501 93.4247 66.2981 94.1188C65.9543 94.8138 65.4945 95.3955 64.9187 95.8641C64.3518 96.3253 63.6899 96.6671 62.9331 96.8896C62.1763 97.1121 61.3482 97.1807 60.4489 97.0954C59.5659 97.0117 58.7736 96.7894 58.0721 96.4286C57.3706 96.0678 56.7808 95.6072 56.3026 95.0468C55.8332 94.4791 55.491 93.8213 55.2758 93.0734C55.0688 92.3262 55.0071 91.5111 55.0909 90.628C55.1723 89.7692 55.3857 88.9843 55.7311 88.2731C56.0854 87.5547 56.5463 86.9608 57.114 86.4915C57.6906 86.0148 58.3573 85.6652 59.1141 85.4427C59.8717 85.2121 60.692 85.1387 61.5751 85.2225C62.4744 85.3078 63.2744 85.5349 63.9751 85.9038C64.6766 86.2646 65.2616 86.7329 65.7301 87.3087C66.2076 87.8772 66.5487 88.5471 66.7534 89.3186C66.9671 90.0827 67.0331 90.8942 66.9517 91.753ZM65.2868 91.5951C65.3483 90.9469 65.3075 90.3422 65.1646 89.781C65.0305 89.2124 64.7967 88.7038 64.4632 88.2553C64.1297 87.8068 63.7068 87.4397 63.1944 87.154C62.69 86.8691 62.1057 86.6952 61.4414 86.6322C60.777 86.5691 60.1664 86.6298 59.6094 86.814C59.0605 86.999 58.5841 87.2808 58.1804 87.6594C57.7766 88.038 57.4514 88.4935 57.2047 89.026C56.9669 89.5511 56.8172 90.1378 56.7558 90.7859C56.6943 91.434 56.7306 92.0424 56.8647 92.611C57.0076 93.1722 57.2426 93.6687 57.5695 94.1002C57.8964 94.5318 58.3124 94.886 58.8175 95.1627C59.3307 95.4403 59.9195 95.6106 60.5838 95.6736C61.2481 95.7366 61.8544 95.6797 62.4025 95.5028C62.9587 95.3266 63.442 95.0578 63.8523 94.6961C64.2626 94.3345 64.5867 93.8911 64.8245 93.366C65.0712 92.8335 65.2253 92.2432 65.2868 91.5951ZM68.5216 96.1445C68.91 96.0996 69.2954 95.9154 69.6775 95.592C70.0597 95.2685 70.4104 94.8032 70.7296 94.1958C71.0488 93.5885 71.328 92.8425 71.5672 91.9578C71.8153 91.0658 71.9951 90.0324 72.1065 88.8576L72.329 86.5122L78.5146 87.0989L77.5752 97.0032L79.8477 97.2187L79.3451 102.517L77.8504 102.375L78.2181 98.4988L69.8815 97.7081L69.5138 101.585L68.019 101.443L68.5216 96.1445ZM73.7714 89.0156C73.6823 89.9554 73.5296 90.8319 73.3135 91.6452C73.1063 92.4512 72.8626 93.1679 72.5823 93.7952C72.3102 94.4234 72.0142 94.9594 71.6941 95.4031C71.3749 95.8388 71.0708 96.1574 70.7819 96.3589L75.9103 96.8453L76.7148 88.3628L73.859 88.092L73.7714 89.0156ZM94.726 88.6365L87.2549 102.25C86.8636 103.014 86.3688 103.49 85.7706 103.678C85.1715 103.875 84.5236 103.94 83.8269 103.874C83.0491 103.8 82.2848 103.585 81.5339 103.228L81.9981 101.825C82.3635 102.023 82.7254 102.172 83.0838 102.271C83.4415 102.378 83.7337 102.443 83.9606 102.465C84.5115 102.517 84.9009 102.419 85.1288 102.171C85.3648 101.923 85.5771 101.625 85.7656 101.275L86.6208 99.6269L82.6707 87.4931L84.6394 87.6798L87.7833 97.9714L92.733 88.4475L94.726 88.6365ZM102.353 100.788L100.093 100.574L100.307 98.3132L102.567 98.5276L102.353 100.788Z" fill="#FFFBFB"/>
</svg>
