<svg width="438" height="213" viewBox="0 0 438 213" fill="none" xmlns="http://www.w3.org/2000/svg">
<path d="M2.92345 80.4643L403.976 1.8845L402.111 20.4942L414.249 41.078L414.024 74.1414L430.032 94.6997L416.579 110.803L423.16 124.191L429.768 133.522L28.7158 212.102L32.2505 163.959L10.5624 134.655L17.0777 118.598L12.8701 109.328L17.271 90.1844L2.92345 80.4643Z" fill="black"/>
<path d="M57.5032 125.357L55.7422 125.702L53.3933 121.522L47.212 122.733L46.638 127.486L44.8771 127.831L47.013 111.179L49.2412 110.743L57.5032 125.357ZM52.6421 120.164L48.439 112.616L47.3952 121.192L52.6421 120.164ZM69.5543 122.996L67.9012 123.32L66.5516 116.431C66.356 115.433 65.9886 114.701 65.4494 114.234C64.9101 113.768 64.1574 113.629 63.191 113.818C62.5841 113.937 62.0604 114.185 61.62 114.562C61.1877 114.937 60.8459 115.393 60.5948 115.932C60.3422 116.462 60.1835 117.049 60.1187 117.692C60.0604 118.325 60.0954 118.969 60.2237 119.624L61.2048 124.632L59.5636 124.953L57.3761 113.788L59.0173 113.467L59.5665 116.27C59.9565 114.071 61.1658 112.772 63.1943 112.375C65.9415 111.837 67.6117 113.081 68.2047 116.108L69.5543 122.996ZM82.7349 114.654C82.9055 115.524 82.9206 116.342 82.7804 117.108C82.6481 117.872 82.3725 118.56 81.9535 119.173C81.541 119.776 81.0035 120.292 80.3411 120.72C79.6787 121.149 78.9042 121.45 78.0177 121.623C77.1473 121.794 76.3245 121.806 75.5494 121.659C74.7743 121.513 74.0779 121.239 73.4602 120.837C72.849 120.426 72.334 119.893 71.9152 119.237C71.5044 118.579 71.2137 117.815 71.0431 116.945C70.8773 116.098 70.8589 115.285 70.988 114.505C71.1236 113.715 71.3969 113.015 71.8078 112.404C72.2252 111.783 72.7651 111.258 73.4276 110.83C74.0884 110.394 74.8541 110.09 75.7246 109.92C76.6111 109.746 77.4426 109.737 78.2193 109.891C78.9944 110.038 79.6883 110.321 80.3011 110.74C80.9204 111.149 81.4377 111.694 81.8532 112.376C82.2751 113.048 82.569 113.807 82.7349 114.654ZM81.0937 114.975C80.9686 114.336 80.7577 113.768 80.4612 113.271C80.1711 112.764 79.8025 112.342 79.3553 112.007C78.9082 111.672 78.3983 111.44 77.8259 111.312C77.2614 111.182 76.6517 111.181 75.9969 111.309C75.342 111.438 74.7737 111.669 74.292 112.004C73.8183 112.337 73.4416 112.743 73.1621 113.221C72.8825 113.698 72.7001 114.227 72.6148 114.808C72.5359 115.379 72.5591 115.984 72.6843 116.623C72.8095 117.262 73.0171 117.835 73.3072 118.342C73.6037 118.839 73.97 119.249 74.406 119.57C74.8421 119.891 75.3416 120.112 75.9045 120.234C76.4754 120.354 77.0883 120.35 77.7431 120.222C78.398 120.094 78.9631 119.867 79.4384 119.541C79.9216 119.215 80.3086 118.819 80.5993 118.356C80.89 117.893 81.0748 117.376 81.1536 116.805C81.2389 116.224 81.2189 115.614 81.0937 114.975ZM96.3399 117.747L94.6868 118.071L93.3372 111.183C93.1416 110.185 92.7742 109.453 92.235 108.986C91.6958 108.519 90.943 108.381 89.9766 108.57C89.3697 108.689 88.846 108.937 88.4057 109.313C87.9733 109.688 87.6315 110.145 87.3805 110.684C87.1278 111.214 86.9691 111.801 86.9043 112.444C86.846 113.077 86.881 113.721 87.0093 114.376L87.9904 119.383L86.3492 119.705L84.1617 108.54L85.8029 108.219L86.3521 111.022C86.7421 108.822 87.9514 107.524 89.9799 107.127C92.7271 106.588 94.3973 107.833 94.9903 110.859L96.3399 117.747ZM108.48 103.776L105.184 118.95C105.025 119.794 104.686 120.391 104.166 120.742C103.648 121.1 103.045 121.347 102.358 121.482C101.592 121.632 100.798 121.642 99.9761 121.513L100.023 120.036C100.429 120.122 100.818 120.162 101.19 120.156C101.564 120.157 101.862 120.136 102.086 120.092C102.629 119.986 102.975 119.781 103.123 119.478C103.279 119.174 103.397 118.828 103.479 118.438L103.83 116.616L96.5962 106.104L98.5368 105.724L104.475 114.698L106.515 104.16L108.48 103.776ZM123.713 112.384L122.071 112.706L120.499 104.68C120.374 104.041 120.165 103.568 119.872 103.26C119.58 102.952 119.222 102.84 118.799 102.923C118.176 103.045 117.781 103.462 117.614 104.175C117.454 104.886 117.491 105.833 117.722 107.015L118.957 113.316L117.304 113.64L115.731 105.614C115.606 104.975 115.393 104.502 115.093 104.196C114.8 103.889 114.442 103.777 114.019 103.859C113.628 103.936 113.339 104.113 113.153 104.39C112.966 104.667 112.841 104.998 112.775 105.384C112.718 105.769 112.712 106.185 112.758 106.632C112.805 107.079 112.87 107.518 112.954 107.949L114.189 114.25L112.548 114.572L110.36 103.407L112.001 103.085L112.318 104.703C112.416 103.382 113.04 102.608 114.19 102.383C115.284 102.169 116.134 102.57 116.74 103.588C117.068 102.387 117.728 101.69 118.718 101.496C119.668 101.31 120.419 101.457 120.969 101.938C121.526 102.409 121.916 103.216 122.14 104.358L123.713 112.384ZM136.306 104.157C136.477 105.028 136.492 105.846 136.352 106.611C136.219 107.375 135.944 108.064 135.525 108.677C135.112 109.28 134.575 109.796 133.912 110.224C133.25 110.652 132.475 110.953 131.589 111.127C130.718 111.298 129.896 111.31 129.121 111.163C128.346 111.016 127.649 110.742 127.031 110.341C126.42 109.93 125.905 109.396 125.486 108.74C125.076 108.083 124.785 107.319 124.614 106.448C124.449 105.602 124.43 104.788 124.559 104.008C124.695 103.219 124.968 102.519 125.379 101.907C125.796 101.286 126.336 100.762 126.999 100.334C127.66 99.8973 128.425 99.5938 129.296 99.4233C130.182 99.2496 131.014 99.2401 131.79 99.3947C132.566 99.5414 133.26 99.8242 133.872 100.243C134.492 100.653 135.009 101.198 135.424 101.88C135.846 102.552 136.14 103.311 136.306 104.157ZM134.665 104.479C134.54 103.84 134.329 103.272 134.032 102.774C133.742 102.267 133.374 101.846 132.927 101.511C132.479 101.175 131.97 100.944 131.397 100.815C130.833 100.685 130.223 100.685 129.568 100.813C128.913 100.941 128.345 101.173 127.863 101.508C127.39 101.841 127.013 102.246 126.733 102.724C126.454 103.202 126.271 103.731 126.186 104.312C126.107 104.883 126.13 105.488 126.256 106.127C126.381 106.765 126.588 107.338 126.878 107.846C127.175 108.343 127.541 108.752 127.977 109.073C128.413 109.394 128.913 109.615 129.476 109.737C130.047 109.858 130.659 109.854 131.314 109.725C131.969 109.597 132.534 109.37 133.01 109.045C133.493 108.718 133.88 108.323 134.171 107.86C134.461 107.396 134.646 106.879 134.725 106.308C134.81 105.728 134.79 105.118 134.665 104.479ZM137.733 98.0438L139.374 97.7223L140.726 104.622C140.922 105.621 141.289 106.353 141.828 106.82C142.374 107.277 143.13 107.41 144.096 107.221C144.703 107.102 145.223 106.855 145.655 106.48C146.088 106.105 146.43 105.653 146.683 105.122C146.934 104.584 147.089 103.998 147.147 103.364C147.212 102.721 147.18 102.072 147.052 101.418L146.07 96.4102L147.724 96.0863L149.911 107.251L148.258 107.575L147.711 104.784C147.329 106.982 146.124 108.279 144.095 108.677C141.348 109.215 139.678 107.971 139.085 104.944L137.733 98.0438ZM162.986 101.48C163.114 102.135 163.057 102.71 162.814 103.205C162.571 103.701 162.215 104.127 161.746 104.484C161.285 104.84 160.745 105.132 160.127 105.361C159.518 105.597 158.91 105.774 158.303 105.893C157.288 106.092 156.249 106.142 155.185 106.043C154.121 105.945 153.175 105.728 152.346 105.393L152.8 103.836C153.724 104.194 154.613 104.435 155.466 104.558C156.32 104.681 157.174 104.659 158.028 104.491C160.496 104.008 161.605 103.127 161.354 101.849C161.293 101.538 161.14 101.307 160.895 101.156C160.656 100.995 160.353 100.889 159.986 100.836C159.618 100.776 159.203 100.753 158.742 100.769C158.288 100.783 157.812 100.806 157.312 100.838C156.672 100.872 156.033 100.889 155.394 100.89C154.756 100.891 154.158 100.821 153.6 100.682C153.05 100.541 152.58 100.301 152.19 99.9629C151.808 99.6231 151.553 99.1257 151.425 98.4709C151.315 97.9118 151.361 97.4013 151.56 96.9392C151.768 96.4756 152.081 96.0619 152.499 95.698C152.925 95.3326 153.445 95.0234 154.059 94.7704C154.672 94.5175 155.323 94.3237 156.01 94.1892C156.992 93.9967 157.893 93.9404 158.713 94.0202C159.532 94.092 160.294 94.2785 161 94.5797L160.592 95.9906C159.865 95.6686 159.157 95.4839 158.468 95.4365C157.777 95.3811 157.048 95.4285 156.282 95.5787C155.938 95.646 155.561 95.7531 155.151 95.8999C154.746 96.0372 154.379 96.2169 154.05 96.439C153.718 96.6532 153.452 96.9043 153.252 97.1924C153.058 97.471 152.996 97.7899 153.066 98.1493C153.127 98.4608 153.276 98.6928 153.514 98.8453C153.757 98.9883 154.063 99.0901 154.432 99.1506C154.799 99.2031 155.209 99.2222 155.662 99.208C156.123 99.1923 156.604 99.1686 157.103 99.1371C157.728 99.106 158.359 99.0901 158.997 99.0894C159.644 99.0872 160.241 99.1525 160.79 99.2856C161.346 99.417 161.819 99.6519 162.209 99.9902C162.599 100.328 162.858 100.825 162.986 101.48ZM188.465 88.1037C188.761 89.6131 188.509 90.8274 187.711 91.7468C186.913 92.6662 185.663 93.2925 183.962 93.6258L180.428 94.3182L181.74 101.015L180.099 101.336L177.036 85.7032L182.187 84.694C183.904 84.3575 185.307 84.4724 186.397 85.0384C187.485 85.5965 188.174 86.6182 188.465 88.1037ZM186.824 88.4252C186.613 87.3471 186.121 86.6349 185.348 86.2888C184.574 85.9346 183.62 85.8687 182.486 86.0908L178.952 86.7833L180.153 92.9166L183.687 92.2242C184.821 92.002 185.681 91.5848 186.266 90.9727C186.849 90.3525 187.035 89.5034 186.824 88.4252ZM201.578 87.1639C200.93 86.9842 200.198 86.9741 199.383 87.1337C198.712 87.2652 198.142 87.5263 197.671 87.917C197.2 88.3078 196.827 88.7748 196.552 89.318C196.275 89.8531 196.097 90.4438 196.016 91.0898C195.942 91.7263 195.967 92.364 196.092 93.0029L196.799 96.6087L199.326 96.1134L199.601 97.515L192.905 98.8271L192.63 97.4255L195.158 96.9303L193.519 88.5687L190.992 89.064L190.717 87.6624L194.886 86.8456L195.435 89.6487C195.785 87.4572 197.011 86.1557 199.111 85.7441C199.678 85.633 200.176 85.5727 200.605 85.5632C201.043 85.5522 201.459 85.6033 201.855 85.7166L201.578 87.1639ZM216.663 88.4127C216.834 89.2832 216.849 90.1012 216.708 90.8667C216.576 91.6307 216.301 92.3191 215.882 92.9319C215.469 93.5352 214.932 94.051 214.269 94.4793C213.607 94.9077 212.832 95.2087 211.946 95.3824C211.075 95.5529 210.253 95.5649 209.477 95.4182C208.702 95.2715 208.006 94.9975 207.388 94.5961C206.777 94.1851 206.262 93.6516 205.843 92.9956C205.432 92.338 205.142 91.574 204.971 90.7035C204.805 89.857 204.787 89.0437 204.916 88.2638C205.052 87.4743 205.325 86.7739 205.736 86.1627C206.153 85.5419 206.693 85.0173 207.356 84.589C208.016 84.1526 208.782 83.8492 209.653 83.6786C210.539 83.505 211.371 83.4954 212.147 83.6501C212.922 83.7968 213.616 84.0796 214.229 84.4985C214.848 84.9079 215.366 85.4534 215.781 86.1349C216.203 86.8069 216.497 87.5662 216.663 88.4127ZM215.022 88.7343C214.897 88.0954 214.686 87.5272 214.389 87.0296C214.099 86.5226 213.731 86.1014 213.283 85.7661C212.836 85.4307 212.326 85.1989 211.754 85.0706C211.189 84.9407 210.58 84.9399 209.925 85.0682C209.27 85.1965 208.702 85.4281 208.22 85.763C207.746 86.0963 207.37 86.5018 207.09 86.9795C206.811 87.4572 206.628 87.9864 206.543 88.567C206.464 89.1381 206.487 89.7431 206.612 90.382C206.738 91.0209 206.945 91.5938 207.235 92.1009C207.532 92.5984 207.898 93.0076 208.334 93.3285C208.77 93.6495 209.27 93.8709 209.833 93.9928C210.403 94.1131 211.016 94.1091 211.671 93.9808C212.326 93.8525 212.891 93.6257 213.366 93.3004C213.85 92.9735 214.237 92.5784 214.527 92.1151C214.818 91.6518 215.003 91.1346 215.082 90.5635C215.167 89.9829 215.147 89.3732 215.022 88.7343ZM243.449 83.1645C243.619 84.035 243.634 84.853 243.494 85.6185C243.362 86.3825 243.086 87.0709 242.667 87.6837C242.255 88.287 241.717 88.8028 241.055 89.2311C240.392 89.6595 239.618 89.9605 238.731 90.1342C237.861 90.3047 237.038 90.3167 236.263 90.17C235.488 90.0233 234.792 89.7493 234.174 89.3479C233.563 88.9369 233.048 88.4034 232.629 87.7474C232.218 87.0898 231.927 86.3258 231.757 85.4553C231.591 84.6088 231.573 83.7955 231.702 83.0156C231.837 82.2261 232.111 81.5257 232.522 80.9145C232.939 80.2936 233.479 79.7691 234.141 79.3407C234.802 78.9044 235.568 78.601 236.438 78.4304C237.325 78.2567 238.156 78.2472 238.933 78.4019C239.708 78.5486 240.402 78.8314 241.015 79.2503C241.634 79.6597 242.151 80.2052 242.567 80.8867C242.989 81.5587 243.283 82.318 243.449 83.1645ZM241.807 83.4861C241.682 82.8472 241.471 82.279 241.175 81.7814C240.885 81.2744 240.516 80.8532 240.069 80.5179C239.622 80.1825 239.112 79.9507 238.54 79.8224C237.975 79.6925 237.365 79.6917 236.711 79.82C236.056 79.9483 235.487 80.1799 235.006 80.5148C234.532 80.8481 234.155 81.2536 233.876 81.7313C233.596 82.209 233.414 82.7382 233.328 83.3188C233.25 83.8899 233.273 84.4949 233.398 85.1337C233.523 85.7726 233.731 86.3456 234.021 86.8527C234.317 87.3502 234.684 87.7594 235.12 88.0803C235.556 88.4012 236.055 88.6226 236.618 88.7445C237.189 88.8649 237.802 88.8609 238.457 88.7326C239.112 88.6043 239.677 88.3775 240.152 88.0521C240.635 87.7253 241.022 87.3302 241.313 86.8669C241.604 86.4036 241.788 85.8864 241.867 85.3153C241.953 84.7347 241.933 84.1249 241.807 83.4861ZM256.808 84.1169C256.481 84.944 255.948 85.6537 255.21 86.2461C254.479 86.829 253.55 87.2307 252.424 87.4514C251.553 87.6219 250.726 87.6347 249.943 87.4896C249.16 87.3444 248.459 87.0672 247.84 86.6578C247.227 86.2388 246.707 85.7021 246.281 85.0477C245.854 84.3933 245.555 83.6308 245.385 82.7603C245.219 81.9138 245.197 81.1053 245.32 80.3349C245.441 79.5565 245.695 78.8641 246.082 78.2575C246.467 77.6429 246.983 77.1231 247.63 76.6979C248.283 76.2631 249.04 75.9612 249.903 75.7922C250.246 75.725 250.606 75.696 250.981 75.7055C251.356 75.7149 251.719 75.7722 252.072 75.8773C252.422 75.9745 252.748 76.1138 253.049 76.2953C253.348 76.4689 253.593 76.6988 253.781 76.9853L253.465 75.3681L254.938 75.0794L255.813 79.5476L254.34 79.8363C254.243 79.3412 254.063 78.908 253.799 78.5367C253.544 78.1638 253.231 77.8601 252.862 77.6257C252.493 77.3912 252.077 77.2364 251.614 77.1611C251.15 77.0779 250.67 77.0848 250.175 77.1818C249.504 77.3133 248.94 77.5441 248.482 77.8743C248.033 78.2029 247.679 78.5997 247.422 79.0647C247.165 79.5298 247.002 80.051 246.932 80.6285C246.869 81.1964 246.9 81.7998 247.026 82.4387C247.151 83.0776 247.362 83.6498 247.661 84.1553C247.965 84.6513 248.339 85.0589 248.783 85.3783C249.235 85.6961 249.744 85.9199 250.308 86.0498C250.881 86.1781 251.494 86.1781 252.149 86.0498C252.98 85.8871 253.687 85.5826 254.271 85.1364C254.856 84.6902 255.266 84.162 255.503 83.5516L256.808 84.1169ZM270.446 83.634L268.793 83.9579L267.812 78.9506L261.116 80.2626L262.097 85.27L260.456 85.5915L258.268 74.4269L259.909 74.1053L260.841 78.8611L267.538 77.549L266.606 72.7933L268.259 72.4694L270.446 83.634ZM283.627 75.2922C283.798 76.1627 283.813 76.9807 283.672 77.7462C283.54 78.5102 283.265 79.1986 282.846 79.8114C282.433 80.4147 281.896 80.9305 281.233 81.3588C280.571 81.7871 279.796 82.0882 278.91 82.2618C278.039 82.4324 277.217 82.4443 276.441 82.2977C275.666 82.151 274.97 81.877 274.352 81.4755C273.741 81.0646 273.226 80.5311 272.807 79.8751C272.396 79.2175 272.106 78.4535 271.935 77.583C271.769 76.7365 271.751 75.9232 271.88 75.1433C272.016 74.3538 272.289 73.6534 272.7 73.0421C273.117 72.4213 273.657 71.8968 274.32 71.4684C274.981 71.0321 275.746 70.7287 276.617 70.5581C277.503 70.3844 278.335 70.3749 279.111 70.5296C279.886 70.6762 280.58 70.9591 281.193 71.378C281.812 71.7874 282.33 72.3329 282.745 73.0144C283.167 73.6864 283.461 74.4456 283.627 75.2922ZM281.986 75.6137C281.861 74.9748 281.65 74.4066 281.353 73.9091C281.063 73.402 280.695 72.9809 280.247 72.6455C279.8 72.3102 279.29 72.0784 278.718 71.9501C278.153 71.8202 277.544 71.8194 276.889 71.9477C276.234 72.076 275.666 72.3076 275.184 72.6425C274.71 72.9758 274.334 73.3813 274.054 73.859C273.775 74.3367 273.592 74.8659 273.507 75.4465C273.428 76.0176 273.451 76.6225 273.576 77.2614C273.702 77.9003 273.909 78.4733 274.199 78.9804C274.496 79.4779 274.862 79.8871 275.298 80.208C275.734 80.5289 276.234 80.7503 276.797 80.8722C277.367 80.9926 277.98 80.9886 278.635 80.8603C279.29 80.732 279.855 80.5051 280.33 80.1798C280.814 79.8529 281.201 79.4578 281.491 78.9945C281.782 78.5312 281.967 78.0141 282.046 77.443C282.131 76.8624 282.111 76.2526 281.986 75.6137ZM297.171 75.089C297.382 76.1671 297.14 77.048 296.445 77.7316C295.756 78.4056 294.668 78.8881 293.183 79.1791L287.241 80.3433L285.054 69.1787L290.624 68.0872C291.167 67.9808 291.711 67.9199 292.255 67.9045C292.806 67.8795 293.31 67.9342 293.768 68.0684C294.224 68.1947 294.62 68.4197 294.957 68.7434C295.294 69.0671 295.522 69.5324 295.641 70.1394C295.754 70.7144 295.709 71.2249 295.506 71.671C295.303 72.1171 294.815 72.5238 294.041 72.891C295.084 72.927 295.835 73.1366 296.291 73.5199C296.746 73.8951 297.039 74.4182 297.171 75.089ZM294.019 70.5568C293.951 70.2134 293.806 69.9558 293.581 69.7842C293.355 69.6046 293.096 69.4854 292.802 69.4268C292.515 69.3587 292.204 69.3367 291.869 69.3609C291.534 69.3852 291.21 69.4278 290.899 69.4888L286.97 70.2587L287.599 73.4691L291.528 72.6992C291.855 72.6351 292.183 72.5502 292.51 72.4445C292.838 72.3389 293.126 72.1996 293.374 72.0266C293.62 71.8456 293.804 71.6396 293.924 71.4087C294.052 71.1682 294.083 70.8842 294.019 70.5568ZM295.515 75.3387C295.387 74.6838 295.026 74.2571 294.431 74.0584C293.837 73.8598 293.076 73.8512 292.15 74.0328L287.873 74.8707L288.608 78.6202L292.884 77.7823C293.811 77.6007 294.511 77.3018 294.985 76.8855C295.459 76.4692 295.636 75.9536 295.515 75.3387ZM299.432 74.8201C299.294 74.1174 299.355 73.496 299.614 72.9559C299.871 72.4079 300.257 71.9426 300.771 71.56C301.291 71.1678 301.907 70.8398 302.618 70.5761C303.336 70.3028 304.078 70.091 304.845 69.9408C305.14 69.8829 305.404 69.8352 305.638 69.7978C305.879 69.7589 306.105 69.7271 306.315 69.7023C306.534 69.6761 306.754 69.6538 306.974 69.6355C307.194 69.6172 307.435 69.599 307.697 69.5809L307.54 68.7783C307.434 68.2352 307.226 67.8114 306.918 67.507C306.617 67.201 306.276 66.9818 305.893 66.8494C305.509 66.7091 305.122 66.6357 304.731 66.6294C304.338 66.6151 304.01 66.6338 303.746 66.6854C302.916 66.8481 302.171 67.1102 301.512 67.4715C300.853 67.8328 300.257 68.2606 299.724 68.7549L298.739 67.6665C299.33 67.1278 300.016 66.6493 300.796 66.231C301.583 65.8031 302.476 65.4914 303.474 65.2958C304.081 65.1769 304.692 65.1402 305.306 65.1857C305.927 65.2216 306.501 65.3579 307.028 65.5946C307.562 65.8217 308.02 66.1715 308.403 66.6438C308.786 67.1161 309.049 67.7196 309.193 68.4544L310.625 75.7617L308.972 76.0856L308.606 74.2168C308.388 74.6325 308.123 75.0122 307.809 75.3557C307.503 75.6976 307.167 75.9955 306.802 76.2495C306.436 76.4954 306.061 76.7014 305.679 76.8675C305.299 77.0416 304.929 77.1638 304.569 77.2343C303.092 77.5237 301.918 77.4593 301.049 77.0409C300.179 76.6226 299.64 75.8823 299.432 74.8201ZM304.295 75.8327C304.982 75.6981 305.577 75.4778 306.081 75.1717C306.591 74.8561 307.008 74.509 307.332 74.1305C307.656 73.7519 307.888 73.3705 308.029 72.9865C308.177 72.6008 308.224 72.2682 308.169 71.9887L307.962 70.9345C307.412 70.9595 306.888 71.0165 306.391 71.1055C305.903 71.193 305.479 71.2719 305.119 71.3424C304.528 71.4581 303.965 71.61 303.43 71.7978C302.902 71.9841 302.453 72.2089 302.082 72.4724C301.709 72.7279 301.427 73.0237 301.235 73.3597C301.044 73.6957 300.99 74.0753 301.073 74.4986C301.165 74.9698 301.478 75.3604 302.012 75.6705C302.551 75.9711 303.312 76.0252 304.295 75.8327ZM324.018 73.1376L322.365 73.4615L321.383 68.4542L314.687 69.7662L315.668 74.7736L314.027 75.0951L311.839 63.9304L313.481 63.6089L314.412 68.3646L321.109 67.0526L320.177 62.2968L321.83 61.9729L324.018 73.1376ZM60.9685 150.153L59.3153 150.477L58.3342 145.47L51.6378 146.782L52.6189 151.789L50.9778 152.111L48.7902 140.946L50.4314 140.625L51.3632 145.38L58.0596 144.068L57.1278 139.312L58.7809 138.989L60.9685 150.153ZM63.1682 146.588C63.0305 145.885 63.0911 145.263 63.3502 144.723C63.6077 144.175 63.9934 143.71 64.5072 143.327C65.0274 142.935 65.6432 142.607 66.3544 142.343C67.0721 142.07 67.8143 141.858 68.581 141.708C68.8765 141.65 69.1408 141.603 69.3739 141.565C69.6151 141.526 69.8411 141.494 70.0518 141.47C70.2706 141.443 70.4901 141.421 70.7104 141.403C70.9308 141.385 71.1718 141.366 71.4336 141.348L71.2764 140.546C71.17 140.003 70.9626 139.579 70.6541 139.274C70.3537 138.968 70.0122 138.749 69.6297 138.617C69.2456 138.476 68.858 138.403 68.467 138.397C68.0745 138.383 67.7464 138.401 67.4829 138.453C66.6523 138.616 65.9076 138.878 65.2486 139.239C64.5896 139.6 63.9934 140.028 63.46 140.522L62.4755 139.434C63.0666 138.895 63.7523 138.417 64.5328 137.998C65.3197 137.571 66.2123 137.259 67.2106 137.063C67.8176 136.944 68.4282 136.908 69.0425 136.953C69.6632 136.989 70.2372 137.125 70.7646 137.362C71.2983 137.589 71.7566 137.939 72.1394 138.411C72.5222 138.884 72.7856 139.487 72.9295 140.222L74.3613 147.529L72.7081 147.853L72.342 145.984C72.1249 146.4 71.8593 146.78 71.5451 147.123C71.2389 147.465 70.9034 147.763 70.5385 148.017C70.1721 148.263 69.7978 148.469 69.4157 148.635C69.0352 148.809 68.6652 148.931 68.3058 149.002C66.8284 149.291 65.6548 149.227 64.785 148.808C63.9152 148.39 63.3763 147.65 63.1682 146.588ZM68.0312 147.6C68.718 147.466 69.3134 147.245 69.8174 146.939C70.3277 146.624 70.7448 146.276 71.0687 145.898C71.3926 145.519 71.6247 145.138 71.7651 144.754C71.9134 144.368 71.9602 144.036 71.9054 143.756L71.6989 142.702C71.1481 142.727 70.6244 142.784 70.1277 142.873C69.639 142.96 69.215 143.039 68.8556 143.11C68.2646 143.226 67.7014 143.377 67.166 143.565C66.6386 143.751 66.1892 143.976 65.8179 144.24C65.4451 144.495 65.163 144.791 64.9718 145.127C64.7805 145.463 64.7264 145.843 64.8093 146.266C64.9016 146.737 65.2145 147.128 65.748 147.438C66.2878 147.739 67.0489 147.793 68.0312 147.6ZM91.324 138.683C91.5728 139.952 92.1157 140.903 92.9527 141.535C93.7882 142.16 94.8089 142.353 96.0148 142.117C96.5738 142.008 97.0701 141.811 97.5038 141.527C97.9438 141.233 98.2995 140.869 98.571 140.435C98.8408 139.992 99.0175 139.497 99.1011 138.95C99.191 138.393 99.1742 137.8 99.0506 137.169C98.8002 135.891 98.2653 134.938 97.4458 134.311C96.6248 133.676 95.5993 133.479 94.3694 133.72C93.0437 133.979 92.1405 134.554 91.6598 135.445C91.1856 136.326 91.0736 137.405 91.324 138.683ZM89.0412 136.555C88.8065 135.357 88.7159 134.239 88.7695 133.2C88.831 132.16 89.0197 131.239 89.3357 130.439C89.6596 129.638 90.0979 128.976 90.6506 128.453C91.2032 127.93 91.8629 127.593 92.6296 127.443C92.989 127.373 93.2995 127.349 93.5611 127.372C93.8228 127.396 94.0596 127.441 94.2716 127.507C94.4901 127.564 94.6942 127.611 94.8839 127.648C95.0817 127.684 95.3044 127.678 95.552 127.629C95.8794 127.565 96.144 127.455 96.3457 127.3C96.5554 127.142 96.7981 126.9 97.0739 126.572L98.1169 127.388C97.8376 127.783 97.4883 128.137 97.0689 128.451C96.648 128.758 96.2339 128.951 95.8266 129.031C95.5151 129.092 95.2365 129.109 94.9909 129.083C94.7452 129.056 94.5131 129.014 94.2947 128.958C94.0827 128.891 93.8658 128.843 93.6441 128.812C93.4303 128.779 93.1837 128.79 92.9042 128.845C92.417 128.94 91.9844 129.166 91.6064 129.522C91.2348 129.868 90.9393 130.328 90.72 130.902C90.4991 131.468 90.3673 132.128 90.3244 132.883C90.2895 133.636 90.3605 134.464 90.5373 135.366C90.6666 134.968 90.8476 134.601 91.0803 134.265C91.313 133.929 91.5863 133.631 91.9002 133.37C92.2124 133.102 92.5588 132.88 92.9394 132.706C93.3199 132.532 93.7058 132.407 94.0971 132.33C94.8798 132.177 95.63 132.154 96.3478 132.262C97.064 132.362 97.7119 132.6 98.2913 132.976C98.8772 133.342 99.378 133.845 99.7937 134.485C100.209 135.126 100.509 135.913 100.692 136.847C100.845 137.63 100.849 138.392 100.704 139.133C100.559 139.875 100.289 140.546 99.8921 141.146C99.5019 141.737 98.9996 142.241 98.3851 142.66C97.7706 143.079 97.072 143.365 96.2894 143.519C94.4126 143.886 92.8708 143.509 91.6638 142.385C90.4568 141.262 89.5826 139.318 89.0412 136.555ZM114.327 133.939C114.498 134.81 114.513 135.628 114.373 136.393C114.241 137.157 113.965 137.845 113.546 138.458C113.134 139.062 112.596 139.577 111.934 140.006C111.271 140.434 110.497 140.735 109.61 140.909C108.74 141.079 107.917 141.091 107.142 140.945C106.367 140.798 105.67 140.524 105.053 140.122C104.442 139.711 103.927 139.178 103.508 138.522C103.097 137.864 102.806 137.1 102.636 136.23C102.47 135.383 102.451 134.57 102.581 133.79C102.716 133.001 102.989 132.3 103.4 131.689C103.818 131.068 104.358 130.544 105.02 130.115C105.681 129.679 106.447 129.376 107.317 129.205C108.204 129.031 109.035 129.022 109.812 129.176C110.587 129.323 111.281 129.606 111.894 130.025C112.513 130.434 113.03 130.98 113.446 131.661C113.868 132.333 114.162 133.093 114.327 133.939ZM112.686 134.261C112.561 133.622 112.35 133.054 112.054 132.556C111.764 132.049 111.395 131.628 110.948 131.292C110.501 130.957 109.991 130.725 109.418 130.597C108.854 130.467 108.244 130.466 107.589 130.595C106.935 130.723 106.366 130.955 105.885 131.289C105.411 131.623 105.034 132.028 104.755 132.506C104.475 132.984 104.293 133.513 104.207 134.093C104.129 134.664 104.152 135.269 104.277 135.908C104.402 136.547 104.61 137.12 104.9 137.627C105.196 138.125 105.563 138.534 105.999 138.855C106.435 139.176 106.934 139.397 107.497 139.519C108.068 139.639 108.681 139.635 109.336 139.507C109.991 139.379 110.556 139.152 111.031 138.827C111.514 138.5 111.901 138.105 112.192 137.641C112.483 137.178 112.667 136.661 112.746 136.09C112.831 135.509 112.811 134.9 112.686 134.261ZM125.745 125.868L127.933 137.033L126.279 137.357L124.366 127.594L119.323 128.582L120.75 135.865C120.836 136.304 120.837 136.71 120.753 137.084C120.676 137.455 120.537 137.781 120.335 138.061C120.132 138.341 119.879 138.573 119.575 138.757C119.273 138.949 118.942 139.08 118.583 139.151C117.912 139.282 117.401 139.279 117.051 139.14L117.118 137.771C117.244 137.821 117.378 137.848 117.52 137.854C117.67 137.858 117.861 137.837 118.093 137.791C118.939 137.626 119.274 137.091 119.097 136.189L117.395 127.504L125.745 125.868ZM131.408 131.152C131.759 132.311 132.375 133.169 133.255 133.726C134.136 134.283 135.171 134.445 136.361 134.212C137.199 134.048 137.913 133.73 138.5 133.258C139.088 132.786 139.495 132.263 139.722 131.688L141.027 132.253C140.622 133.145 140.072 133.875 139.379 134.442C138.684 135.001 137.77 135.391 136.636 135.614C135.773 135.783 134.954 135.794 134.179 135.647C133.404 135.5 132.703 135.223 132.076 134.815C131.455 134.398 130.931 133.862 130.504 133.208C130.078 132.553 129.779 131.791 129.608 130.92C129.442 130.074 129.418 129.27 129.534 128.509C129.657 127.739 129.911 127.046 130.296 126.432C130.688 125.808 131.207 125.283 131.854 124.858C132.499 124.425 133.256 124.123 134.127 123.952C135.077 123.766 135.939 123.763 136.712 123.943C137.486 124.123 138.163 124.451 138.746 124.925C139.334 125.391 139.817 125.993 140.194 126.731C140.579 127.469 140.865 128.312 141.051 129.263L131.408 131.152ZM139.039 128.202C138.616 127.016 137.995 126.192 137.175 125.731C136.354 125.27 135.429 125.14 134.399 125.342C133.872 125.445 133.402 125.628 132.989 125.892C132.575 126.147 132.227 126.468 131.946 126.855C131.666 127.241 131.454 127.685 131.312 128.186C131.168 128.678 131.116 129.198 131.157 129.746L139.039 128.202ZM144.8 128.528C145.152 129.687 145.768 130.544 146.648 131.102C147.529 131.659 148.564 131.821 149.754 131.588C150.592 131.424 151.305 131.106 151.893 130.634C152.48 130.162 152.888 129.639 153.115 129.063L154.42 129.629C154.014 130.521 153.465 131.251 152.772 131.818C152.077 132.377 151.162 132.767 150.028 132.989C149.166 133.158 148.347 133.17 147.572 133.023C146.797 132.876 146.096 132.599 145.468 132.191C144.848 131.774 144.324 131.238 143.897 130.583C143.47 129.929 143.172 129.167 143.001 128.296C142.835 127.45 142.81 126.646 142.927 125.885C143.049 125.115 143.304 124.422 143.689 123.808C144.081 123.183 144.6 122.659 145.246 122.234C145.891 121.8 146.649 121.499 147.52 121.328C148.47 121.142 149.332 121.139 150.105 121.319C150.878 121.499 151.556 121.827 152.139 122.301C152.727 122.766 153.21 123.368 153.587 124.107C153.972 124.845 154.258 125.688 154.444 126.639L144.8 128.528ZM152.432 125.577C152.009 124.392 151.387 123.568 150.567 123.107C149.747 122.645 148.822 122.516 147.792 122.718C147.265 122.821 146.795 123.004 146.382 123.267C145.968 123.523 145.62 123.844 145.339 124.231C145.058 124.617 144.847 125.061 144.704 125.562C144.56 126.054 144.509 126.574 144.55 127.122L152.432 125.577ZM180.999 120.851C181.17 121.721 181.189 122.539 181.057 123.303C180.924 124.067 180.662 124.757 180.268 125.373C179.881 125.979 179.368 126.494 178.73 126.918C178.092 127.342 177.341 127.638 176.479 127.807C175.888 127.923 175.291 127.928 174.69 127.822C174.097 127.714 173.519 127.495 172.957 127.166L174.03 132.64L172.389 132.962L169.325 117.329L170.967 117.008L171.169 118.038C172.014 116.977 173.019 116.332 174.185 116.103C175.048 115.934 175.855 115.925 176.606 116.077C177.355 116.22 178.025 116.508 178.616 116.939C179.213 117.361 179.718 117.909 180.132 118.583C180.544 119.248 180.833 120.004 180.999 120.851ZM179.358 121.172C179.236 120.55 179.034 119.984 178.752 119.475C178.476 118.957 178.128 118.532 177.706 118.2C177.284 117.868 176.799 117.635 176.251 117.502C175.71 117.368 175.112 117.365 174.458 117.493C173.835 117.615 173.274 117.845 172.777 118.183C172.287 118.519 171.853 118.994 171.476 119.607L172.65 125.597C173.23 126.022 173.81 126.294 174.389 126.413C174.976 126.53 175.581 126.527 176.204 126.405C176.859 126.277 177.411 126.049 177.861 125.72C178.319 125.39 178.68 124.991 178.945 124.525C179.21 124.058 179.374 123.541 179.437 122.973C179.507 122.396 179.48 121.795 179.358 121.172ZM183.703 122.971C183.566 122.268 183.626 121.646 183.885 121.106C184.143 120.558 184.529 120.093 185.042 119.71C185.563 119.318 186.178 118.99 186.89 118.727C187.607 118.453 188.35 118.241 189.116 118.091C189.412 118.033 189.676 117.986 189.909 117.948C190.15 117.909 190.376 117.878 190.587 117.853C190.806 117.827 191.025 117.804 191.246 117.786C191.466 117.768 191.707 117.749 191.969 117.731L191.812 116.929C191.705 116.386 191.498 115.962 191.189 115.657C190.889 115.351 190.547 115.132 190.165 115C189.781 114.86 189.393 114.786 189.002 114.78C188.61 114.766 188.282 114.784 188.018 114.836C187.188 114.999 186.443 115.261 185.784 115.622C185.125 115.983 184.529 116.411 183.995 116.905L183.011 115.817C183.602 115.278 184.288 114.8 185.068 114.381C185.855 113.954 186.748 113.642 187.746 113.446C188.353 113.327 188.963 113.291 189.578 113.336C190.198 113.372 190.772 113.508 191.3 113.745C191.834 113.972 192.292 114.322 192.675 114.794C193.057 115.267 193.321 115.87 193.465 116.605L194.897 123.912L193.243 124.236L192.877 122.367C192.66 122.783 192.395 123.163 192.08 123.506C191.774 123.848 191.439 124.146 191.074 124.4C190.707 124.646 190.333 124.852 189.951 125.018C189.57 125.192 189.2 125.314 188.841 125.385C187.364 125.674 186.19 125.61 185.32 125.191C184.45 124.773 183.912 124.033 183.703 122.971ZM188.566 123.983C189.253 123.849 189.849 123.628 190.353 123.322C190.863 123.007 191.28 122.66 191.604 122.281C191.928 121.902 192.16 121.521 192.3 121.137C192.449 120.751 192.495 120.419 192.441 120.139L192.234 119.085C191.683 119.11 191.16 119.167 190.663 119.256C190.174 119.343 189.75 119.422 189.391 119.493C188.8 119.609 188.237 119.76 187.701 119.948C187.174 120.135 186.725 120.359 186.353 120.623C185.98 120.878 185.698 121.174 185.507 121.51C185.316 121.846 185.262 122.226 185.345 122.649C185.437 123.12 185.75 123.511 186.283 123.821C186.823 124.122 187.584 124.176 188.566 123.983ZM208.289 121.288L206.636 121.612L205.655 116.605L198.959 117.917L199.94 122.924L198.299 123.246L196.111 112.081L197.752 111.759L198.684 116.515L205.38 115.203L204.449 110.447L206.102 110.123L208.289 121.288ZM221.682 118.664L220.029 118.988L219.048 113.981L212.352 115.293L213.333 120.3L211.691 120.621L209.504 109.457L211.145 109.135L212.077 113.891L218.773 112.579L217.841 107.823L219.495 107.499L221.682 118.664ZM225.157 112.783C225.509 113.942 226.125 114.8 227.005 115.357C227.885 115.914 228.921 116.076 230.111 115.843C230.949 115.679 231.662 115.361 232.25 114.889C232.837 114.418 233.245 113.894 233.472 113.319L234.777 113.884C234.371 114.776 233.822 115.506 233.128 116.073C232.434 116.632 231.519 117.023 230.385 117.245C229.523 117.414 228.704 117.425 227.929 117.278C227.154 117.132 226.453 116.854 225.825 116.447C225.204 116.029 224.681 115.493 224.254 114.839C223.827 114.184 223.528 113.422 223.358 112.551C223.192 111.705 223.167 110.901 223.284 110.14C223.406 109.37 223.66 108.677 224.046 108.063C224.438 107.439 224.957 106.914 225.603 106.489C226.248 106.056 227.006 105.754 227.876 105.583C228.827 105.397 229.689 105.394 230.462 105.574C231.235 105.755 231.913 106.082 232.495 106.557C233.084 107.022 233.567 107.624 233.944 108.363C234.329 109.1 234.614 109.944 234.801 110.894L225.157 112.783ZM232.789 109.833C232.366 108.647 231.744 107.823 230.924 107.362C230.104 106.901 229.179 106.771 228.149 106.973C227.622 107.076 227.152 107.26 226.739 107.523C226.324 107.778 225.977 108.099 225.696 108.486C225.415 108.873 225.204 109.316 225.061 109.817C224.917 110.31 224.866 110.83 224.907 111.377L232.789 109.833ZM248.468 113.416L246.815 113.74L245.08 104.887L243.471 111.21L242.297 111.44L238.384 106.199L240.118 115.052L238.477 115.373L236.29 104.209L238.422 103.791L242.438 109.049L244.148 102.669L246.28 102.251L248.468 113.416ZM267.244 98.1436L268.897 97.8197L270.81 107.583L273.925 106.973L272.012 97.2094L273.653 96.8879L275.84 108.053L264.676 110.24L262.488 99.0754L264.129 98.7538L266.042 108.517L269.157 107.907L267.244 98.1436ZM288.142 99.8581C288.312 100.729 288.331 101.546 288.199 102.31C288.067 103.074 287.804 103.764 287.411 104.38C287.024 104.986 286.511 105.502 285.872 105.925C285.234 106.349 284.483 106.645 283.621 106.814C283.03 106.93 282.434 106.935 281.833 106.829C281.239 106.721 280.662 106.503 280.099 106.173L281.172 111.648L279.531 111.969L276.468 96.3363L278.109 96.0147L278.311 97.0449C279.156 95.9837 280.162 95.3389 281.328 95.1104C282.19 94.9414 282.997 94.9326 283.748 95.084C284.498 95.2273 285.168 95.5149 285.758 95.9465C286.355 96.3686 286.86 96.9164 287.274 97.5899C287.687 98.2555 287.976 99.0115 288.142 99.8581ZM286.501 100.18C286.379 99.5567 286.176 98.9909 285.894 98.4823C285.619 97.9641 285.27 97.539 284.848 97.207C284.427 96.8749 283.942 96.6424 283.393 96.5094C282.853 96.3748 282.255 96.3717 281.6 96.5C280.977 96.622 280.417 96.8521 279.919 97.1901C279.429 97.5265 278.996 98.0012 278.618 98.6142L279.792 104.604C280.373 105.029 280.953 105.301 281.532 105.42C282.119 105.537 282.723 105.535 283.346 105.413C284.001 105.284 284.554 105.056 285.003 104.727C285.461 104.397 285.823 103.999 286.088 103.532C286.353 103.065 286.517 102.548 286.58 101.98C286.649 101.403 286.623 100.803 286.501 100.18ZM289.861 93.7122L291.502 93.3906L293.267 102.399L297.539 92.2077L299.851 91.7547L302.039 102.919L300.386 103.243L298.541 93.8275L294.085 104.478L292.048 104.877L289.861 93.7122ZM307.866 92.5353C307.262 91.8658 306.625 91.5968 305.954 91.7283C305.363 91.844 304.987 92.2743 304.826 93.019C304.673 93.7621 304.754 94.9363 305.068 96.5415C305.383 98.1468 305.75 99.2606 306.171 99.8831C306.599 100.504 307.109 100.757 307.7 100.641C308.371 100.509 308.86 100.024 309.169 99.1838L307.866 92.5353ZM309.462 100.681C309.173 101.451 308.678 101.905 307.975 102.042C306.833 102.266 305.88 101.93 305.115 101.035C304.351 100.14 303.785 98.7502 303.415 96.8655C303.048 94.9887 303.048 93.4877 303.416 92.3623C303.784 91.237 304.54 90.5624 305.682 90.3387C306.384 90.201 307.015 90.4341 307.573 91.0379L306.547 85.803L308.2 85.4791L309.226 90.714C309.514 89.9443 310.01 89.4906 310.713 89.3529C311.855 89.1291 312.809 89.4688 313.575 90.3719C314.34 91.2751 314.907 92.665 315.275 94.5418C315.644 96.4265 315.644 97.9276 315.274 99.0449C314.904 100.162 314.148 100.833 313.006 101.057C312.303 101.194 311.673 100.961 311.115 100.357L312.138 105.58L310.485 105.904L309.462 100.681ZM310.822 98.8599C311.424 99.5214 312.061 99.7865 312.731 99.655C313.322 99.5392 313.695 99.1138 313.85 98.3786C314.012 97.6419 313.936 96.4709 313.622 94.8657C313.307 93.2605 312.935 92.1434 312.505 91.5145C312.083 90.884 311.576 90.6267 310.985 90.7425C310.314 90.8739 309.826 91.3636 309.519 92.2114L310.822 98.8599ZM328.257 91.6623L326.855 91.9369L326.097 88.0676L322.743 88.7248L324.381 97.0863L326.897 96.5934L327.171 97.995L320.475 99.3071L320.2 97.9055L322.728 97.4102L321.09 89.0487L317.736 89.7059L318.494 93.5752L317.092 93.8498L316.059 88.579L327.224 86.3914L328.257 91.6623ZM332.3 91.7906C332.651 92.9491 333.267 93.807 334.147 94.3643C335.028 94.9215 336.063 95.0836 337.253 94.8504C338.092 94.6861 338.805 94.3681 339.392 93.8964C339.98 93.4247 340.387 92.9012 340.614 92.3259L341.919 92.8912C341.514 93.7834 340.964 94.513 340.271 95.0801C339.576 95.6392 338.662 96.0298 337.528 96.252C336.665 96.421 335.846 96.4321 335.071 96.2855C334.296 96.1388 333.595 95.8615 332.968 95.4537C332.347 95.0363 331.823 94.5004 331.396 93.846C330.97 93.1915 330.671 92.4291 330.5 91.5586C330.335 90.712 330.31 89.9083 330.426 89.1475C330.549 88.3771 330.803 87.6846 331.188 87.0701C331.58 86.446 332.099 85.9213 332.746 85.4961C333.391 85.0629 334.148 84.7611 335.019 84.5905C335.969 84.4043 336.831 84.4013 337.604 84.5815C338.378 84.7617 339.056 85.0891 339.638 85.5638C340.227 86.0289 340.709 86.6309 341.086 87.3698C341.471 88.107 341.757 88.9508 341.943 89.9012L332.3 91.7906ZM339.931 88.84C339.508 87.6541 338.887 86.8305 338.067 86.3692C337.246 85.908 336.321 85.7782 335.291 85.9801C334.764 86.0834 334.294 86.2667 333.881 86.53C333.467 86.7853 333.119 87.1064 332.838 87.4931C332.558 87.8798 332.346 88.3235 332.204 88.8241C332.06 89.3167 332.008 89.8368 332.049 90.3844L339.931 88.84ZM67.1171 174.424L65.3561 174.769L63.0072 170.589L56.8259 171.8L56.2519 176.553L54.491 176.898L56.6269 160.246L58.8551 159.81L67.1171 174.424ZM62.256 169.231L58.0529 161.683L57.0091 170.259L62.256 169.231ZM79.1682 172.063L77.5151 172.387L76.1655 165.498C75.9699 164.5 75.6025 163.768 75.0633 163.301C74.524 162.835 73.7713 162.696 72.8049 162.885C72.198 163.004 71.6743 163.252 71.2339 163.629C70.8016 164.004 70.4598 164.46 70.2087 164.999C69.9561 165.529 69.7974 166.116 69.7326 166.759C69.6743 167.392 69.7093 168.036 69.8376 168.691L70.8187 173.699L69.1775 174.02L66.99 162.855L68.6311 162.534L69.1804 165.337C69.5704 163.138 70.7797 161.839 72.8082 161.442C75.5554 160.904 77.2256 162.148 77.8186 165.175L79.1682 172.063ZM92.3488 163.721C92.5194 164.591 92.5345 165.409 92.3943 166.175C92.262 166.939 91.9864 167.627 91.5674 168.24C91.1549 168.843 90.6174 169.359 89.955 169.787C89.2926 170.216 88.5181 170.517 87.6316 170.69C86.7612 170.861 85.9384 170.873 85.1633 170.726C84.3882 170.58 83.6918 170.306 83.0741 169.904C82.4629 169.493 81.9478 168.96 81.5291 168.304C81.1183 167.646 80.8276 166.882 80.657 166.012C80.4912 165.165 80.4728 164.352 80.6019 163.572C80.7375 162.782 81.0108 162.082 81.4217 161.471C81.8391 160.85 82.379 160.325 83.0415 159.897C83.7023 159.461 84.468 159.157 85.3385 158.987C86.225 158.813 87.0565 158.804 87.8332 158.958C88.6083 159.105 89.3022 159.388 89.915 159.807C90.5343 160.216 91.0516 160.762 91.4671 161.443C91.889 162.115 92.1829 162.874 92.3488 163.721ZM90.7076 164.042C90.5825 163.403 90.3716 162.835 90.0751 162.338C89.785 161.831 89.4164 161.409 88.9692 161.074C88.5221 160.739 88.0122 160.507 87.4398 160.379C86.8753 160.249 86.2656 160.248 85.6108 160.376C84.9559 160.505 84.3876 160.736 83.9059 161.071C83.4322 161.404 83.0555 161.81 82.7759 162.288C82.4964 162.765 82.314 163.294 82.2287 163.875C82.1498 164.446 82.173 165.051 82.2982 165.69C82.4234 166.329 82.631 166.902 82.9211 167.409C83.2176 167.907 83.5839 168.316 84.0199 168.637C84.456 168.958 84.9555 169.179 85.5184 169.301C86.0893 169.421 86.7022 169.417 87.357 169.289C88.0119 169.161 88.577 168.934 89.0523 168.608C89.5355 168.282 89.9225 167.886 90.2132 167.423C90.5039 166.96 90.6887 166.443 90.7675 165.872C90.8528 165.291 90.8328 164.681 90.7076 164.042ZM105.954 166.814L104.301 167.138L102.951 160.25C102.756 159.252 102.388 158.52 101.849 158.053C101.31 157.586 100.557 157.448 99.5905 157.637C98.9836 157.756 98.4599 158.004 98.0196 158.38C97.5872 158.755 97.2454 159.212 96.9943 159.751C96.7417 160.281 96.583 160.868 96.5182 161.511C96.4599 162.144 96.4949 162.788 96.6232 163.443L97.6043 168.45L95.9631 168.772L93.7756 157.607L95.4168 157.286L95.966 160.089C96.356 157.889 97.5653 156.591 99.5938 156.194C102.341 155.655 104.011 156.9 104.604 159.926L105.954 166.814ZM118.093 152.843L114.797 168.017C114.639 168.861 114.3 169.458 113.78 169.809C113.262 170.168 112.659 170.414 111.972 170.549C111.205 170.699 110.411 170.709 109.59 170.58L109.636 169.103C110.043 169.189 110.432 169.229 110.804 169.223C111.178 169.224 111.476 169.203 111.7 169.159C112.243 169.053 112.588 168.848 112.736 168.545C112.892 168.241 113.011 167.895 113.092 167.505L113.444 165.683L106.21 155.171L108.151 154.791L114.089 163.765L116.129 153.228L118.093 152.843ZM133.326 161.451L131.685 161.773L130.113 153.747C129.988 153.108 129.779 152.635 129.486 152.327C129.194 152.019 128.836 151.907 128.413 151.99C127.79 152.112 127.395 152.529 127.227 153.242C127.068 153.953 127.104 154.9 127.336 156.082L128.571 162.383L126.918 162.707L125.345 154.681C125.22 154.042 125.007 153.569 124.707 153.263C124.414 152.956 124.056 152.844 123.633 152.926C123.242 153.003 122.953 153.18 122.767 153.457C122.58 153.734 122.455 154.065 122.389 154.451C122.332 154.836 122.326 155.252 122.372 155.699C122.419 156.146 122.484 156.585 122.568 157.016L123.803 163.317L122.162 163.639L119.974 152.474L121.615 152.153L121.932 153.77C122.03 152.449 122.654 151.675 123.804 151.45C124.898 151.236 125.748 151.637 126.354 152.655C126.682 151.454 127.342 150.757 128.332 150.563C129.282 150.377 130.033 150.524 130.583 151.005C131.14 151.476 131.53 152.283 131.754 153.425L133.326 161.451ZM145.92 153.224C146.091 154.095 146.106 154.913 145.965 155.678C145.833 156.442 145.558 157.131 145.139 157.744C144.726 158.347 144.189 158.863 143.526 159.291C142.864 159.719 142.089 160.02 141.203 160.194C140.332 160.365 139.51 160.377 138.735 160.23C137.959 160.083 137.263 159.809 136.645 159.408C136.034 158.997 135.519 158.463 135.1 157.807C134.69 157.15 134.399 156.386 134.228 155.515C134.062 154.669 134.044 153.855 134.173 153.075C134.309 152.286 134.582 151.586 134.993 150.974C135.41 150.354 135.95 149.829 136.613 149.401C137.274 148.964 138.039 148.661 138.91 148.49C139.796 148.317 140.628 148.307 141.404 148.462C142.179 148.608 142.873 148.891 143.486 149.31C144.106 149.72 144.623 150.265 145.038 150.947C145.46 151.619 145.754 152.378 145.92 153.224ZM144.279 153.546C144.154 152.907 143.943 152.339 143.646 151.841C143.356 151.334 142.988 150.913 142.54 150.578C142.093 150.242 141.583 150.011 141.011 149.882C140.447 149.752 139.837 149.752 139.182 149.88C138.527 150.008 137.959 150.24 137.477 150.575C137.003 150.908 136.627 151.313 136.347 151.791C136.068 152.269 135.885 152.798 135.8 153.379C135.721 153.95 135.744 154.555 135.869 155.194C135.995 155.833 136.202 156.405 136.492 156.913C136.789 157.41 137.155 157.819 137.591 158.14C138.027 158.461 138.527 158.683 139.09 158.804C139.661 158.925 140.273 158.921 140.928 158.792C141.583 158.664 142.148 158.437 142.623 158.112C143.107 157.785 143.494 157.39 143.784 156.927C144.075 156.463 144.26 155.946 144.339 155.375C144.424 154.795 144.404 154.185 144.279 153.546ZM147.347 147.111L148.988 146.789L150.34 153.689C150.536 154.688 150.903 155.42 151.442 155.887C151.988 156.344 152.744 156.477 153.71 156.288C154.317 156.169 154.837 155.922 155.269 155.547C155.702 155.172 156.044 154.72 156.297 154.189C156.548 153.651 156.702 153.065 156.761 152.431C156.826 151.788 156.794 151.139 156.665 150.485L155.684 145.477L157.338 145.153L159.525 156.318L157.872 156.642L157.325 153.851C156.943 156.049 155.738 157.346 153.709 157.744C150.962 158.282 149.292 157.038 148.699 154.011L147.347 147.111ZM172.6 150.547C172.728 151.202 172.671 151.777 172.428 152.272C172.185 152.768 171.829 153.194 171.36 153.551C170.899 153.907 170.359 154.199 169.741 154.428C169.132 154.664 168.524 154.841 167.917 154.96C166.902 155.159 165.863 155.209 164.799 155.111C163.735 155.012 162.788 154.795 161.96 154.46L162.414 152.903C163.338 153.261 164.227 153.502 165.08 153.625C165.934 153.748 166.787 153.726 167.642 153.558C170.11 153.075 171.218 152.194 170.968 150.916C170.907 150.605 170.754 150.374 170.509 150.223C170.27 150.062 169.967 149.956 169.6 149.903C169.232 149.843 168.817 149.82 168.356 149.836C167.902 149.85 167.426 149.873 166.926 149.905C166.286 149.939 165.647 149.956 165.008 149.957C164.37 149.958 163.772 149.888 163.214 149.749C162.664 149.608 162.194 149.368 161.804 149.03C161.422 148.69 161.167 148.193 161.039 147.538C160.929 146.979 160.974 146.468 161.174 146.006C161.382 145.543 161.695 145.129 162.113 144.765C162.539 144.4 163.059 144.09 163.672 143.837C164.286 143.585 164.937 143.391 165.623 143.256C166.606 143.064 167.507 143.007 168.327 143.087C169.145 143.159 169.908 143.346 170.613 143.647L170.206 145.058C169.479 144.736 168.771 144.551 168.082 144.504C167.391 144.448 166.662 144.496 165.896 144.646C165.552 144.713 165.175 144.82 164.764 144.967C164.36 145.104 163.993 145.284 163.664 145.506C163.332 145.72 163.066 145.971 162.866 146.259C162.672 146.538 162.61 146.857 162.68 147.216C162.741 147.528 162.89 147.76 163.127 147.912C163.371 148.055 163.677 148.157 164.046 148.218C164.412 148.27 164.823 148.289 165.276 148.275C165.737 148.259 166.218 148.236 166.717 148.204C167.341 148.173 167.973 148.157 168.611 148.156C169.258 148.154 169.855 148.22 170.404 148.353C170.96 148.484 171.433 148.719 171.823 149.057C172.212 149.395 172.472 149.892 172.6 150.547ZM197.579 153.477C196.594 152.973 195.685 152.359 194.855 151.635C194.026 150.918 193.294 150.12 192.657 149.242C192.021 148.363 191.479 147.42 191.033 146.413C190.587 145.406 190.258 144.363 190.047 143.285C189.836 142.207 189.748 141.121 189.782 140.028C189.815 138.927 189.961 137.853 190.221 136.807C190.479 135.753 190.856 134.738 191.353 133.762C191.849 132.777 192.458 131.866 193.181 131.028L194.255 131.937C193.615 132.692 193.071 133.512 192.622 134.396C192.181 135.279 191.839 136.2 191.596 137.16C191.359 138.11 191.226 139.081 191.197 140.074C191.175 141.065 191.259 142.044 191.449 143.01C191.641 143.992 191.934 144.938 192.328 145.848C192.728 146.748 193.217 147.594 193.795 148.384C194.38 149.165 195.039 149.886 195.774 150.547C196.518 151.213 197.337 151.774 198.231 152.23L197.579 153.477ZM210.827 134.238C210.911 134.669 210.947 135.064 210.934 135.423C210.93 135.781 210.862 136.155 210.731 136.545C210.609 136.934 210.426 137.355 210.183 137.809C209.94 138.263 209.625 138.79 209.236 139.388L204.867 145.979L211.468 144.685L210.867 141.619L212.269 141.344L213.144 145.812L202.986 147.803L202.702 146.353L207.576 138.979C207.827 138.607 208.061 138.238 208.28 137.871C208.506 137.504 208.7 137.138 208.861 136.775C209.022 136.412 209.133 136.046 209.193 135.677C209.254 135.309 209.247 134.937 209.173 134.562C208.986 133.603 208.525 132.943 207.79 132.581C207.062 132.21 206.231 132.115 205.297 132.298C203.987 132.555 203.068 133.112 202.54 133.971C202.011 134.829 201.881 135.945 202.151 137.318L200.629 137.616C200.283 135.851 200.484 134.378 201.231 133.195C201.977 132.012 203.241 131.246 205.022 130.897C205.693 130.765 206.344 130.742 206.974 130.825C207.61 130.9 208.192 131.076 208.719 131.354C209.254 131.631 209.706 132.011 210.075 132.494C210.441 132.97 210.692 133.551 210.827 134.238ZM215.629 137.227C215.856 138.385 216.209 139.444 216.687 140.404L222.492 131.243C221.968 130.599 221.385 130.141 220.743 129.869C220.109 129.595 219.416 129.532 218.666 129.679C217.26 129.954 216.299 130.765 215.783 132.11C215.274 133.445 215.222 135.151 215.629 137.227ZM217.511 141.623C218.577 142.874 219.836 143.357 221.29 143.072C222.663 142.803 223.613 141.999 224.139 140.66C224.663 139.314 224.721 137.602 224.314 135.526C224.202 134.951 224.059 134.415 223.887 133.918C223.714 133.413 223.517 132.937 223.297 132.491L217.511 141.623ZM213.988 137.549C213.783 136.503 213.697 135.471 213.73 134.452C213.762 133.434 213.941 132.504 214.265 131.661C214.589 130.818 215.087 130.098 215.758 129.502C216.435 128.897 217.313 128.489 218.391 128.277C219.469 128.066 220.432 128.114 221.28 128.42C222.134 128.717 222.875 129.194 223.501 129.851C224.127 130.508 224.644 131.302 225.05 132.234C225.457 133.166 225.762 134.156 225.967 135.202C226.172 136.248 226.262 137.279 226.238 138.296C226.213 139.312 226.038 140.238 225.712 141.073C225.387 141.908 224.885 142.629 224.207 143.234C223.536 143.83 222.654 144.235 221.56 144.449C220.466 144.664 219.491 144.622 218.637 144.325C217.789 144.019 217.053 143.541 216.428 142.892C215.812 142.242 215.304 141.45 214.905 140.516C214.499 139.584 214.193 138.595 213.988 137.549ZM229.022 134.603C229.249 135.761 229.602 136.82 230.08 137.779L235.885 128.619C235.361 127.975 234.778 127.517 234.136 127.245C233.502 126.971 232.809 126.908 232.058 127.055C230.653 127.33 229.692 128.14 229.176 129.485C228.667 130.821 228.615 132.527 229.022 134.603ZM230.903 138.999C231.969 140.25 233.229 140.732 234.683 140.448C236.056 140.179 237.006 139.375 237.531 138.036C238.055 136.69 238.114 134.978 237.707 132.902C237.594 132.327 237.452 131.791 237.28 131.294C237.106 130.789 236.91 130.313 236.689 129.867L230.903 138.999ZM227.381 134.925C227.176 133.879 227.09 132.847 227.123 131.828C227.155 130.81 227.334 129.88 227.658 129.037C227.982 128.194 228.479 127.474 229.15 126.878C229.828 126.273 230.706 125.865 231.784 125.653C232.862 125.442 233.825 125.49 234.673 125.796C235.527 126.093 236.267 126.57 236.894 127.227C237.52 127.884 238.036 128.678 238.443 129.61C238.849 130.542 239.155 131.532 239.36 132.578C239.565 133.624 239.655 134.655 239.631 135.672C239.606 136.688 239.431 137.614 239.105 138.449C238.779 139.284 238.278 140.004 237.6 140.61C236.929 141.206 236.047 141.611 234.953 141.825C233.858 142.04 232.884 141.998 232.03 141.701C231.182 141.395 230.446 140.917 229.821 140.268C229.204 139.618 228.697 138.826 228.298 137.892C227.892 136.96 227.586 135.971 227.381 134.925ZM251.622 138.273L244.925 139.585L244.651 138.184L247.178 137.688L245.087 127.015C245.007 127.37 244.849 127.766 244.611 128.203C244.371 128.631 244.07 129.043 243.708 129.437C243.344 129.823 242.927 130.171 242.457 130.478C241.994 130.785 241.491 130.991 240.948 131.097L240.615 129.396C241.102 129.301 241.596 129.047 242.095 128.633C242.595 128.22 243.034 127.732 243.413 127.169C243.792 126.605 244.078 125.993 244.272 125.333C244.466 124.673 244.506 124.048 244.39 123.457L246.043 123.133L248.831 137.364L251.347 136.872L251.622 138.273ZM263.724 128.874C263.935 129.952 264.024 131.037 263.989 132.131C263.955 133.224 263.8 134.299 263.526 135.356C263.261 136.411 262.879 137.427 262.382 138.404C261.895 139.387 261.289 140.297 260.566 141.135L259.493 140.226C260.132 139.471 260.672 138.648 261.111 137.757C261.56 136.873 261.907 135.955 262.151 135.003C262.402 134.042 262.539 133.07 262.562 132.087C262.592 131.094 262.512 130.115 262.323 129.148C262.133 128.182 261.837 127.241 261.434 126.325C261.038 125.407 260.543 124.554 259.95 123.767C259.362 122.97 258.694 122.247 257.945 121.597C257.204 120.946 256.394 120.392 255.517 119.933L256.168 118.686C257.154 119.19 258.058 119.805 258.88 120.531C259.709 121.247 260.446 122.044 261.09 122.921C261.741 123.789 262.29 124.73 262.738 125.746C263.184 126.753 263.513 127.796 263.724 128.874Z" fill="white"/>
</svg>
