<svg width="412" height="180" viewBox="0 0 412 180" fill="none" xmlns="http://www.w3.org/2000/svg">
<path d="M13.502 0L411.452 37.745L398.834 170.362L363.112 175.863L331.233 155.844L314.141 167.562L299.701 157.602L176.036 136.65L88.1751 148.065L38.5512 125.76L23.9542 134.597L1.88168 133.003L13.502 0Z" fill="black"/>
<path d="M57.7648 46.3593L55.9783 46.1898L54.9135 41.5152L48.6428 40.9204L46.7424 45.3138L44.956 45.1444L51.7344 29.7856L53.9948 30L57.7648 46.3593ZM54.579 39.9998L52.6934 31.5687L49.2563 39.4949L54.579 39.9998ZM69.9902 47.5188L68.3131 47.3598L68.9759 40.3721C69.0719 39.3594 68.9277 38.5528 68.5433 37.9523C68.1588 37.3518 67.4764 37.005 66.4961 36.912C65.8804 36.8536 65.3079 36.9424 64.7787 37.1783C64.2576 37.415 63.8002 37.7558 63.4065 38.2008C63.0136 38.6376 62.6947 39.1551 62.45 39.7531C62.2141 40.3438 62.0647 40.9714 62.0017 41.6357L61.5199 46.7154L59.855 46.5575L60.9292 35.2314L62.5941 35.3893L62.3244 38.233C63.3232 36.2351 64.8515 35.3337 66.9093 35.5289C69.6963 35.7932 70.9442 37.4606 70.6529 40.5312L69.9902 47.5188ZM84.9975 43.265C84.9137 44.1481 84.6958 44.9367 84.3439 45.6309C84 46.3258 83.5402 46.9076 82.9644 47.3761C82.3975 47.8373 81.7357 48.1792 80.9788 48.4017C80.222 48.6242 79.394 48.6928 78.4947 48.6075C77.6116 48.5237 76.8193 48.3015 76.1178 47.9406C75.4164 47.5798 74.8265 47.1192 74.3483 46.5589C73.879 45.9912 73.5367 45.3334 73.3216 44.5854C73.1145 43.8383 73.0529 43.0231 73.1366 42.1401C73.2181 41.2813 73.4315 40.4963 73.7769 39.7852C74.1311 39.0668 74.5921 38.4729 75.1598 38.0035C75.7363 37.5269 76.403 37.1773 77.1598 36.9548C77.9174 36.7242 78.7378 36.6508 79.6208 36.7345C80.5201 36.8198 81.3201 37.0469 82.0208 37.4158C82.7223 37.7767 83.3073 38.245 83.7759 38.8208C84.2533 39.3892 84.5944 40.0592 84.7992 40.8307C85.0128 41.5948 85.0789 42.4063 84.9975 43.265ZM83.3326 43.1071C83.394 42.459 83.3533 41.8543 83.2103 41.2931C83.0763 40.7245 82.8425 40.2159 82.509 39.7674C82.1755 39.3188 81.7525 38.9517 81.2401 38.6661C80.7358 38.3812 80.1515 38.2072 79.4871 38.1442C78.8228 38.0812 78.2121 38.1418 77.6551 38.326C77.1062 38.511 76.6299 38.7928 76.2261 39.1715C75.8224 39.5501 75.4972 40.0056 75.2505 40.5381C75.0126 41.0632 74.863 41.6498 74.8015 42.298C74.74 42.9461 74.7763 43.5545 74.9104 44.1231C75.0534 44.6843 75.2883 45.1807 75.6152 45.6123C75.9422 46.0438 76.3582 46.398 76.8633 46.6748C77.3765 46.9524 77.9652 47.1227 78.6296 47.1857C79.2939 47.2487 79.9001 47.1917 80.4482 47.0148C81.0045 46.8387 81.4877 46.5698 81.8981 46.2082C82.3084 45.8466 82.6325 45.4032 82.8703 44.878C83.117 44.3456 83.2711 43.7553 83.3326 43.1071ZM97.1631 50.0962L95.4861 49.9371L96.1489 42.9494C96.2449 41.9367 96.1007 41.1301 95.7162 40.5296C95.3318 39.9291 94.6494 39.5823 93.6691 39.4894C93.0534 39.431 92.4809 39.5197 91.9517 39.7556C91.4306 39.9923 90.9732 40.3331 90.5795 40.7781C90.1865 41.2149 89.8677 41.7324 89.623 42.3304C89.3871 42.9212 89.2377 43.5487 89.1746 44.213L88.6928 49.2928L87.028 49.1349L88.1022 37.8087L89.7671 37.9666L89.4974 40.8103C90.4962 38.8124 92.0245 37.911 94.0823 38.1062C96.8693 38.3705 98.1171 40.0379 97.8259 43.1085L97.1631 50.0962ZM112.772 40.1486L105.301 53.7618C104.909 54.5258 104.415 55.002 103.816 55.1905C103.217 55.3871 102.569 55.4524 101.873 55.3863C101.095 55.3125 100.331 55.097 99.5797 54.7396L100.044 53.3368C100.409 53.5349 100.771 53.6837 101.13 53.7831C101.487 53.8906 101.78 53.9551 102.006 53.9766C102.557 54.0288 102.947 53.9309 103.175 53.6827C103.411 53.4354 103.623 53.1367 103.811 52.7867L104.667 51.1389L100.717 39.0052L102.685 39.1919L105.829 49.4835L110.779 39.9596L112.772 40.1486ZM124.932 52.73L123.267 52.572L124.039 44.4299C124.1 43.7817 124.035 43.2687 123.842 42.8907C123.649 42.5127 123.337 42.3033 122.908 42.2626C122.276 42.2027 121.779 42.4907 121.416 43.1266C121.061 43.7632 120.827 44.6811 120.713 45.8801L120.107 52.2724L118.43 52.1133L119.202 43.9711C119.264 43.323 119.194 42.8095 118.993 42.4308C118.8 42.0528 118.489 41.8434 118.059 41.8027C117.662 41.7651 117.335 41.8526 117.078 42.0652C116.821 42.2779 116.606 42.56 116.433 42.9115C116.269 43.2638 116.146 43.6608 116.063 44.1025C115.98 44.5443 115.918 44.9839 115.877 45.4214L115.27 51.8136L113.605 51.6557L114.68 40.3296L116.345 40.4875L116.189 42.1281C116.658 40.8892 117.476 40.325 118.642 40.4357C119.752 40.5409 120.453 41.1674 120.745 42.315C121.401 41.2573 122.232 40.7761 123.236 40.8714C124.2 40.9628 124.878 41.3173 125.269 41.9348C125.669 42.5449 125.814 43.4293 125.704 44.5878L124.932 52.73ZM139.343 48.4197C139.26 49.3028 139.042 50.0914 138.69 50.7855C138.346 51.4804 137.886 52.0622 137.31 52.5307C136.743 52.992 136.082 53.3338 135.325 53.5563C134.568 53.7788 133.74 53.8474 132.841 53.7621C131.958 53.6784 131.165 53.4561 130.464 53.0953C129.762 52.7345 129.172 52.2739 128.694 51.7135C128.225 51.1458 127.883 50.488 127.668 49.7401C127.46 48.9929 127.399 48.1778 127.483 47.2947C127.564 46.4359 127.777 45.651 128.123 44.9398C128.477 44.2214 128.938 43.6275 129.506 43.1582C130.082 42.6815 130.749 42.3319 131.506 42.1094C132.263 41.8788 133.084 41.8054 133.967 41.8892C134.866 41.9745 135.666 42.2016 136.367 42.5705C137.068 42.9313 137.653 43.3996 138.122 43.9754C138.599 44.5438 138.94 45.2138 139.145 45.9853C139.359 46.7494 139.425 47.5609 139.343 48.4197ZM137.678 48.2618C137.74 47.6136 137.699 47.0089 137.556 46.4477C137.422 45.8791 137.188 45.3705 136.855 44.922C136.521 44.4735 136.098 44.1064 135.586 43.8207C135.082 43.5358 134.497 43.3619 133.833 43.2988C133.169 43.2358 132.558 43.2964 132.001 43.4807C131.452 43.6657 130.976 43.9475 130.572 44.3261C130.168 44.7047 129.843 45.1602 129.596 45.6927C129.359 46.2178 129.209 46.8045 129.147 47.4526C129.086 48.1007 129.122 48.7091 129.256 49.2777C129.399 49.8389 129.634 50.3353 129.961 50.7669C130.288 51.1985 130.704 51.5526 131.209 51.8294C131.722 52.107 132.311 52.2773 132.975 52.3403C133.64 52.4033 134.246 52.3464 134.794 52.1695C135.35 51.9933 135.834 51.7245 136.244 51.3628C136.654 51.0012 136.978 50.5578 137.216 50.0327C137.463 49.5002 137.617 48.9099 137.678 48.2618ZM142.448 42.9634L144.113 43.1213L143.449 50.1211C143.353 51.1338 143.497 51.9404 143.882 52.5409C144.275 53.1341 144.962 53.4772 145.942 53.5702C146.558 53.6286 147.126 53.5394 147.647 53.3028C148.169 53.0661 148.626 52.7293 149.018 52.2924C149.412 51.8475 149.727 51.3297 149.963 50.7389C150.208 50.1409 150.361 49.5097 150.424 48.8454L150.906 43.7656L152.583 43.9247L151.509 55.2508L149.832 55.0917L150.101 52.2602C149.11 54.2589 147.586 55.1607 145.528 54.9655C142.741 54.7012 141.493 53.0337 141.784 49.9632L142.448 42.9634ZM165.685 53.4318C165.622 54.0961 165.403 54.6313 165.03 55.0373C164.656 55.4432 164.193 55.7509 163.642 55.9602C163.099 56.1703 162.499 56.2972 161.84 56.3411C161.19 56.3938 160.556 56.3909 159.941 56.3325C158.912 56.235 157.901 55.9879 156.909 55.5913C155.916 55.1947 155.071 54.718 154.371 54.1612L155.249 52.7975C156.033 53.4033 156.817 53.8864 157.6 54.2468C158.384 54.6072 159.209 54.8285 160.076 54.9107C162.579 55.1481 163.892 54.6187 164.015 53.3225C164.045 53.0065 163.964 52.7413 163.772 52.5269C163.588 52.3051 163.328 52.117 162.991 51.9624C162.655 51.7997 162.264 51.6604 161.817 51.5445C161.379 51.4293 160.915 51.3159 160.427 51.2042C159.804 51.0551 159.186 50.8903 158.573 50.7096C157.961 50.5289 157.407 50.2924 156.912 50.0002C156.424 49.7087 156.042 49.3455 155.764 48.9104C155.495 48.4761 155.392 47.9268 155.455 47.2625C155.509 46.6954 155.697 46.2187 156.02 45.8324C156.35 45.4469 156.768 45.139 157.272 44.9089C157.784 44.6796 158.371 44.5308 159.031 44.4627C159.691 44.3945 160.37 44.3935 161.067 44.4596C162.063 44.5541 162.943 44.7561 163.707 45.0656C164.471 45.367 165.149 45.7623 165.74 46.2516L164.949 47.4886C164.343 46.9734 163.717 46.5952 163.07 46.3539C162.423 46.1046 161.711 45.943 160.933 45.8693C160.585 45.8362 160.193 45.8317 159.757 45.8558C159.331 45.8726 158.928 45.9406 158.548 46.06C158.17 46.1712 157.844 46.3365 157.57 46.5557C157.304 46.7676 157.154 47.0558 157.12 47.4204C157.09 47.7364 157.167 48.0012 157.351 48.2148C157.544 48.4211 157.808 48.6056 158.144 48.7683C158.481 48.9229 158.869 49.0577 159.308 49.1729C159.755 49.2889 160.222 49.4027 160.71 49.5144C161.317 49.6619 161.927 49.826 162.539 50.0067C163.16 50.1882 163.714 50.4206 164.202 50.7039C164.698 50.9881 165.085 51.3476 165.363 51.7827C165.64 52.2177 165.748 52.7674 165.685 53.4318ZM193.914 47.8448C193.769 49.376 193.183 50.469 192.156 51.1237C191.129 51.7783 189.753 52.0238 188.028 51.8602L184.443 51.5201L183.798 58.3134L182.133 58.1555L183.638 42.2965L188.863 42.7921C190.605 42.9573 191.918 43.466 192.802 44.3183C193.686 45.1624 194.057 46.3379 193.914 47.8448ZM192.249 47.6869C192.353 46.5932 192.083 45.7706 191.441 45.2192C190.799 44.6597 189.903 44.3254 188.753 44.2163L185.168 43.8762L184.577 50.0983L188.162 50.4383C189.313 50.5474 190.255 50.3916 190.99 49.9708C191.726 49.5419 192.145 48.7806 192.249 47.6869ZM206.754 50.669C206.183 50.3124 205.484 50.0949 204.658 50.0165C203.977 49.9519 203.356 50.0401 202.793 50.2811C202.231 50.522 201.741 50.8638 201.323 51.3065C200.906 51.741 200.566 52.2565 200.306 52.8531C200.053 53.4422 199.897 54.0609 199.835 54.709L199.488 58.3669L202.052 58.6101L201.918 60.032L195.124 59.3876L195.259 57.9658L197.823 58.209L198.628 49.7266L196.064 49.4834L196.199 48.0615L200.428 48.4626L200.158 51.3063C201.116 49.3045 202.661 48.4047 204.791 48.6068C205.367 48.6613 205.861 48.7451 206.276 48.8579C206.698 48.9716 207.083 49.1389 207.43 49.3598L206.754 50.669ZM220.862 56.1516C220.779 57.0347 220.561 57.8233 220.209 58.5175C219.865 59.2124 219.405 59.7941 218.829 60.2627C218.262 60.7239 217.6 61.0658 216.844 61.2883C216.087 61.5108 215.259 61.5794 214.36 61.4941C213.476 61.4103 212.684 61.188 211.983 60.8272C211.281 60.4664 210.691 60.0058 210.213 59.4455C209.744 58.8778 209.402 58.22 209.186 57.472C208.979 56.7249 208.918 55.9097 209.001 55.0266C209.083 54.1679 209.296 53.3829 209.642 52.6718C209.996 51.9533 210.457 51.3594 211.025 50.8901C211.601 50.4135 212.268 50.0639 213.025 49.8414C213.782 49.6108 214.603 49.5374 215.486 49.6211C216.385 49.7064 217.185 49.9335 217.886 50.3024C218.587 50.6633 219.172 51.1316 219.641 51.7073C220.118 52.2758 220.459 52.9458 220.664 53.7172C220.878 54.4814 220.944 55.2929 220.862 56.1516ZM219.197 55.9937C219.259 55.3456 219.218 54.7409 219.075 54.1796C218.941 53.6111 218.707 53.1025 218.374 52.654C218.04 52.2054 217.617 51.8383 217.105 51.5527C216.601 51.2678 216.016 51.0938 215.352 51.0308C214.688 50.9678 214.077 51.0284 213.52 51.2126C212.971 51.3976 212.495 51.6794 212.091 52.058C211.687 52.4366 211.362 52.8922 211.115 53.4247C210.877 53.9498 210.728 54.5364 210.666 55.1846C210.605 55.8327 210.641 56.4411 210.775 57.0096C210.918 57.5709 211.153 58.0673 211.48 58.4989C211.807 58.9304 212.223 59.2846 212.728 59.5614C213.241 59.839 213.83 60.0092 214.494 60.0723C215.159 60.1353 215.765 60.0783 216.313 59.9014C216.869 59.7253 217.353 59.4564 217.763 59.0948C218.173 58.7331 218.497 58.2898 218.735 57.7646C218.982 57.2322 219.136 56.6419 219.197 55.9937ZM246.987 62.1487C246.439 62.8487 245.726 63.3779 244.85 63.7362C243.983 64.0872 242.979 64.2086 241.836 64.1002C240.953 64.0165 240.157 63.7938 239.447 63.4322C238.738 63.0706 238.144 62.6056 237.667 62.0371C237.198 61.4614 236.852 60.7991 236.629 60.0504C236.406 59.3017 236.336 58.4858 236.42 57.6027C236.501 56.7439 236.71 55.9627 237.047 55.2589C237.384 54.547 237.824 53.9552 238.368 53.4836C238.912 53.0038 239.554 52.652 240.295 52.4279C241.044 52.1965 241.857 52.1224 242.732 52.2053C243.08 52.2384 243.433 52.3127 243.789 52.4283C244.146 52.5439 244.479 52.7021 244.787 52.903C245.095 53.0958 245.368 53.3219 245.605 53.5815C245.843 53.8329 246.012 54.1228 246.111 54.451L246.267 52.8104L247.762 52.9522L247.332 57.4851L245.837 57.3433C245.885 56.841 245.835 56.3744 245.688 55.9436C245.549 55.5135 245.335 55.1336 245.048 54.8038C244.76 54.4741 244.405 54.2075 243.983 54.0039C243.562 53.7923 243.1 53.6627 242.598 53.615C241.917 53.5505 241.311 53.6115 240.778 53.798C240.253 53.9853 239.802 54.2654 239.423 54.6382C239.044 55.011 238.74 55.4644 238.509 55.9984C238.288 56.5251 238.146 57.1125 238.085 57.7606C238.023 58.4088 238.064 59.0175 238.206 59.5869C238.357 60.1489 238.6 60.6461 238.935 61.0784C239.278 61.5115 239.702 61.8705 240.206 62.1554C240.718 62.441 241.307 62.6154 241.971 62.6784C242.814 62.7583 243.579 62.6674 244.265 62.4055C244.952 62.1437 245.496 61.7539 245.897 61.236L246.987 62.1487ZM261.622 60.0176C261.538 60.9007 261.32 61.6893 260.968 62.3835C260.624 63.0784 260.165 63.6601 259.589 64.1287C259.022 64.5899 258.36 64.9318 257.603 65.1543C256.846 65.3768 256.018 65.4454 255.119 65.3601C254.236 65.2763 253.444 65.054 252.742 64.6932C252.041 64.3324 251.451 63.8718 250.973 63.3115C250.503 62.7438 250.161 62.086 249.946 61.338C249.739 60.5908 249.677 59.7757 249.761 58.8926C249.842 58.0338 250.056 57.2489 250.401 56.5378C250.755 55.8193 251.216 55.2254 251.784 54.7561C252.361 54.2794 253.027 53.9299 253.784 53.7074C254.542 53.4768 255.362 53.4033 256.245 53.4871C257.144 53.5724 257.944 53.7995 258.645 54.1684C259.347 54.5292 259.932 54.9975 260.4 55.5733C260.878 56.1418 261.219 56.8117 261.423 57.5832C261.637 58.3474 261.703 59.1588 261.622 60.0176ZM259.957 59.8597C260.018 59.2116 259.978 58.6069 259.835 58.0456C259.701 57.477 259.467 56.9685 259.133 56.5199C258.8 56.0714 258.377 55.7043 257.864 55.4186C257.36 55.1337 256.776 54.9598 256.111 54.8968C255.447 54.8338 254.836 54.8944 254.279 55.0786C253.731 55.2636 253.254 55.5454 252.85 55.924C252.447 56.3026 252.121 56.7582 251.875 57.2906C251.637 57.8158 251.487 58.4024 251.426 59.0505C251.364 59.6987 251.401 60.307 251.535 60.8756C251.678 61.4369 251.913 61.9333 252.24 62.3648C252.566 62.7964 252.982 63.1506 253.488 63.4274C254.001 63.7049 254.59 63.8752 255.254 63.9382C255.918 64.0012 256.524 63.9443 257.073 63.7674C257.629 63.5913 258.112 63.3224 258.522 62.9608C258.933 62.5991 259.257 62.1557 259.495 61.6306C259.741 61.0981 259.895 60.5078 259.957 59.8597ZM274.567 58.6336C274.514 59.1846 274.271 59.6846 273.836 60.1338C273.41 60.5757 272.793 60.8238 271.987 60.8781C272.719 61.0947 273.288 61.4675 273.696 61.9966C274.112 62.5184 274.293 63.071 274.238 63.6543C274.186 64.1971 273.994 64.6734 273.661 65.0833C273.328 65.485 272.893 65.8115 272.354 66.0629C271.823 66.315 271.206 66.4854 270.503 66.574C269.799 66.6707 269.042 66.6806 268.232 66.6038C266.935 66.4808 265.885 66.1809 265.08 65.704C264.284 65.2198 263.669 64.5484 263.235 63.6898L264.478 62.9984C264.803 63.6178 265.284 64.113 265.919 64.4839C266.554 64.8547 267.37 65.0874 268.366 65.1819C269.557 65.2949 270.539 65.2041 271.311 64.9094C272.09 64.6155 272.511 64.1445 272.573 63.4964C272.593 63.2776 272.541 63.052 272.416 62.8194C272.3 62.5795 272.112 62.3614 271.853 62.1651C271.594 61.9608 271.267 61.7867 270.872 61.643C270.478 61.4911 270.005 61.3891 269.455 61.3368L267.559 61.157L267.692 59.7473L269.588 59.9272C270.65 60.0278 271.453 59.916 271.999 59.5918C272.553 59.2602 272.85 58.8878 272.89 58.4746C272.946 57.8751 272.66 57.3656 272.029 56.9461C271.407 56.5274 270.52 56.2634 269.37 56.1543C268.414 56.0636 267.608 56.1589 266.952 56.44C266.296 56.7211 265.775 57.1294 265.389 57.665L264.23 56.6968C264.801 55.9335 265.511 55.3877 266.359 55.0595C267.216 54.732 268.264 54.6271 269.503 54.7446C270.289 54.8192 270.999 54.9682 271.631 55.1917C272.273 55.4079 272.819 55.6845 273.269 56.0215C273.729 56.3511 274.071 56.7433 274.298 57.1981C274.526 57.6447 274.615 58.1232 274.567 58.6336ZM276.778 65.6978C277.167 65.6529 277.552 65.4687 277.934 65.1453C278.316 64.8218 278.667 64.3564 278.986 63.7491C279.305 63.1418 279.585 62.3958 279.824 61.5111C280.072 60.6191 280.252 59.5857 280.363 58.4109L280.586 56.0655L286.771 56.6522L285.832 66.5565L288.104 66.772L287.602 72.0705L286.107 71.9287L286.475 68.0521L278.138 67.2614L277.77 71.138L276.276 70.9962L276.778 65.6978ZM282.028 58.5688C281.939 59.5086 281.786 60.3852 281.57 61.1985C281.363 62.0045 281.119 62.7211 280.839 63.3485C280.567 63.9767 280.271 64.5126 279.951 64.9564C279.631 65.3921 279.327 65.7107 279.038 65.9121L284.167 66.3986L284.971 57.9161L282.116 57.6453L282.028 58.5688ZM290.496 65.3435C290.564 64.6306 290.798 64.052 291.2 63.6078C291.603 63.1555 292.105 62.8189 292.706 62.598C293.316 62.3698 294 62.2303 294.757 62.1795C295.522 62.1213 296.294 62.1291 297.072 62.2029C297.372 62.2313 297.639 62.2607 297.873 62.2911C298.115 62.3222 298.341 62.3559 298.55 62.3921C298.767 62.429 298.984 62.4701 299.2 62.5151C299.417 62.5602 299.653 62.6112 299.909 62.6682L299.986 61.854C300.039 61.303 299.96 60.8378 299.751 60.4583C299.55 60.0795 299.285 59.7724 298.956 59.5368C298.627 59.2931 298.276 59.1127 297.903 58.9956C297.531 58.8703 297.211 58.795 296.944 58.7697C296.101 58.6898 295.313 58.7294 294.578 58.8886C293.844 59.0479 293.151 59.2887 292.499 59.611L291.864 58.2879C292.584 57.9392 293.377 57.6752 294.244 57.4959C295.12 57.3092 296.065 57.2639 297.077 57.36C297.693 57.4184 298.289 57.5566 298.865 57.7748C299.45 57.9856 299.962 58.2793 300.4 58.6561C300.847 59.0255 301.187 59.491 301.42 60.0526C301.653 60.6142 301.734 61.2677 301.663 62.013L300.96 69.426L299.283 69.267L299.463 67.3712C299.137 67.7081 298.774 67.9966 298.376 68.2367C297.985 68.4776 297.579 68.6679 297.157 68.8078C296.735 68.9395 296.318 69.0307 295.904 69.0814C295.49 69.1402 295.101 69.1523 294.736 69.1177C293.237 68.9755 292.13 68.5804 291.415 67.9321C290.7 67.2839 290.394 66.421 290.496 65.3435ZM294.871 67.6959C295.568 67.7619 296.201 67.7198 296.771 67.5696C297.35 67.4119 297.849 67.1976 298.267 66.9267C298.685 66.6557 299.016 66.356 299.26 66.0276C299.511 65.7 299.651 65.3944 299.678 65.1108L299.779 64.0414C299.244 63.9089 298.726 63.8148 298.224 63.759C297.731 63.7041 297.302 63.6593 296.937 63.6247C296.337 63.5678 295.754 63.5534 295.188 63.5814C294.629 63.6102 294.134 63.6981 293.703 63.8453C293.273 63.9843 292.919 64.1878 292.64 64.4556C292.361 64.7234 292.202 65.072 292.161 65.5014C292.115 65.9794 292.304 66.4429 292.728 66.8918C293.16 67.3333 293.874 67.6013 294.871 67.6959ZM314.547 70.7147L312.87 70.5556L313.352 65.4759L306.558 64.8316L306.077 69.9113L304.412 69.7534L305.486 58.4273L307.151 58.5852L306.693 63.4097L313.486 64.0541L313.944 59.2295L315.621 59.3886L314.547 70.7147ZM54.0431 71.1185L52.366 70.9594L53.6189 57.7497L50.036 65.662L48.845 65.5491L46.8257 57.1053L45.5728 70.3151L43.9079 70.1572L45.4121 54.2982L47.5752 54.5033L49.6814 63.0657L53.3841 55.0543L55.5473 55.2595L54.0431 71.1185ZM57.1651 68.3246C57.2327 67.6117 57.4674 67.0331 57.8692 66.5889C58.2718 66.1366 58.7737 65.8 59.3751 65.5791C59.9853 65.3509 60.6688 65.2114 61.4257 65.1606C62.1915 65.1024 62.9632 65.1102 63.741 65.184C64.0408 65.2124 64.3077 65.2418 64.5419 65.2722C64.7842 65.3033 65.0099 65.337 65.219 65.3732C65.4362 65.4101 65.653 65.4511 65.8695 65.4962C66.0859 65.5413 66.3222 65.5923 66.5784 65.6493L66.6556 64.8351C66.7079 64.2841 66.6294 63.8189 66.4201 63.4394C66.219 63.0606 65.9538 62.7535 65.6247 62.5179C65.2963 62.2742 64.9456 62.0938 64.5725 61.9767C64.2001 61.8514 63.8803 61.7761 63.6129 61.7508C62.7704 61.6709 61.9818 61.7105 61.2474 61.8697C60.5129 62.029 59.8198 62.2698 59.1679 62.5921L58.5332 61.269C59.2529 60.9203 60.0464 60.6563 60.9135 60.477C61.7896 60.2903 62.7339 60.245 63.7466 60.3411C64.3624 60.3995 64.9583 60.5377 65.5343 60.7559C66.1192 60.9667 66.6309 61.2604 67.0693 61.6372C67.5165 62.0066 67.8566 62.4721 68.0894 63.0337C68.3223 63.5953 68.4033 64.2488 68.3327 64.9941L67.6295 72.4071L65.9525 72.2481L66.1323 70.3523C65.8061 70.6892 65.4435 70.9777 65.0447 71.2178C64.654 71.4587 64.2477 71.649 63.8257 71.7889C63.4045 71.9206 62.9871 72.0118 62.5736 72.0625C62.1593 72.1213 61.7698 72.1334 61.4053 72.0988C59.9065 71.9566 58.7995 71.5615 58.0844 70.9132C57.3693 70.265 57.0629 69.4021 57.1651 68.3246ZM61.5401 70.677C62.2369 70.743 62.8703 70.7009 63.4404 70.5507C64.0194 70.393 64.5179 70.1787 64.936 69.9078C65.3541 69.6368 65.685 69.3371 65.9287 69.0087C66.1805 68.6811 66.3198 68.3755 66.3467 68.0919L66.4481 67.0225C65.913 66.89 65.3947 66.7959 64.8931 66.7401C64.3997 66.6852 63.9707 66.6404 63.6061 66.6058C63.0066 66.5489 62.4235 66.5345 61.8568 66.5625C61.2982 66.5913 60.8035 66.6792 60.3726 66.8264C59.9425 66.9654 59.5881 67.1689 59.3093 67.4367C59.0304 67.7045 58.8707 68.0531 58.8299 68.4825C58.7846 68.9605 58.9736 69.424 59.397 69.8729C59.8292 70.3144 60.5436 70.5824 61.5401 70.677ZM82.3475 68.1014C82.2637 68.9845 82.0499 69.7735 81.7061 70.4684C81.3622 71.1633 80.9142 71.7502 80.3619 72.2292C79.8185 72.7008 79.1806 73.0491 78.4481 73.2739C77.7156 73.4987 76.9118 73.5696 76.0369 73.4866C75.4373 73.4297 74.8644 73.265 74.318 72.9925C73.7798 72.7207 73.2879 72.3471 72.8426 71.8716L72.3158 77.4253L70.6509 77.2674L72.1551 61.4084L73.82 61.5663L73.7209 62.6114C74.8328 61.834 75.9802 61.5014 77.163 61.6136C78.038 61.6966 78.8141 61.9173 79.4912 62.2759C80.1692 62.6263 80.7299 63.0923 81.1734 63.6739C81.6257 64.2481 81.9547 64.9169 82.1602 65.6803C82.3665 66.4356 82.4289 67.2426 82.3475 68.1014ZM80.6826 67.9435C80.7425 67.3115 80.7095 66.7117 80.5835 66.1438C80.4664 65.5687 80.2529 65.062 79.9429 64.6239C79.633 64.1858 79.2339 63.8251 78.7458 63.5417C78.2658 63.2591 77.6936 63.0863 77.0293 63.0233C76.3974 62.9634 75.7948 63.0247 75.2216 63.2074C74.6565 63.3909 74.1059 63.7229 73.5699 64.2034L72.9936 70.2796C73.4297 70.8523 73.9084 71.2779 74.4297 71.5562C74.9591 71.8353 75.5398 72.0048 76.1717 72.0647C76.8361 72.1278 77.4305 72.0656 77.9551 71.8783C78.4878 71.6918 78.9475 71.4125 79.3343 71.0404C79.7211 70.6684 80.0253 70.219 80.2469 69.6924C80.4774 69.1584 80.6226 68.5754 80.6826 67.9435ZM95.3737 75.0386L93.0039 74.8139L88.8556 69.295L86.6365 70.9728L86.3322 74.1811L84.6673 74.0232L85.7416 62.697L87.4065 62.8549L86.8279 68.9555L93.8595 63.467L96.2413 63.6929L90.0728 68.3559L95.3737 75.0386ZM109.81 70.7307C109.726 71.6137 109.508 72.4024 109.156 73.0965C108.812 73.7914 108.353 74.3732 107.777 74.8417C107.21 75.303 106.548 75.6448 105.791 75.8673C105.034 76.0898 104.206 76.1584 103.307 76.0731C102.424 75.9894 101.632 75.7671 100.93 75.4063C100.229 75.0454 99.6389 74.5849 99.1607 74.0245C98.6913 73.4568 98.3491 72.799 98.1339 72.0511C97.9269 71.3039 97.8652 70.4888 97.949 69.6057C98.0304 68.7469 98.2438 67.962 98.5892 67.2508C98.9435 66.5324 99.4044 65.9385 99.9721 65.4691C100.549 64.9925 101.215 64.6429 101.972 64.4204C102.73 64.1898 103.55 64.1164 104.433 64.2001C105.332 64.2854 106.132 64.5125 106.833 64.8815C107.535 65.2423 108.12 65.7106 108.588 66.2864C109.066 66.8548 109.407 67.5248 109.612 68.2963C109.825 69.0604 109.891 69.8719 109.81 70.7307ZM108.145 70.5727C108.206 69.9246 108.166 69.3199 108.023 68.7587C107.889 68.1901 107.655 67.6815 107.321 67.233C106.988 66.7845 106.565 66.4174 106.052 66.1317C105.548 65.8468 104.964 65.6728 104.299 65.6098C103.635 65.5468 103.024 65.6074 102.467 65.7917C101.919 65.9767 101.442 66.2585 101.038 66.6371C100.635 67.0157 100.309 67.4712 100.063 68.0037C99.825 68.5288 99.6753 69.1155 99.6139 69.7636C99.5524 70.4117 99.5887 71.0201 99.7228 71.5887C99.8657 72.1499 100.101 72.6463 100.428 73.0779C100.755 73.5095 101.171 73.8636 101.676 74.1404C102.189 74.418 102.778 74.5883 103.442 74.6513C104.106 74.7143 104.712 74.6574 105.261 74.4805C105.817 74.3043 106.3 74.0354 106.71 73.6738C107.121 73.3122 107.445 72.8688 107.683 72.3437C107.929 71.8112 108.083 71.2209 108.145 70.5727ZM121.975 77.5618L120.298 77.4027L121.15 68.422L117.811 74.0277L116.62 73.9148L114.357 67.7777L113.505 76.7584L111.84 76.6005L112.915 65.2744L115.078 65.4795L117.434 71.6623L120.887 66.0305L123.05 66.2357L121.975 77.5618ZM150.235 76.0486C149.693 77.3705 148.915 78.3798 147.9 79.0766C146.886 79.7733 145.666 80.054 144.24 79.9188C143.13 79.8135 142.212 79.5016 141.484 78.983C140.757 78.4644 140.182 77.8049 139.759 77.0046C139.344 76.205 139.074 75.3007 138.949 74.2915C138.833 73.2832 138.824 72.2483 138.925 71.187C139.026 70.1257 139.228 69.1108 139.533 68.1424C139.845 67.1747 140.281 66.3332 140.839 65.6177C141.405 64.903 142.095 64.3553 142.908 63.9747C143.721 63.5859 144.683 63.4441 145.793 63.5494C146.773 63.6424 147.595 63.8961 148.259 64.3105C148.922 64.725 149.387 65.3044 149.651 66.0489L149.826 64.2017L151.248 64.3366L150.755 69.5378L149.333 69.403C149.386 68.844 149.327 68.307 149.155 67.792C148.992 67.2698 148.745 66.809 148.415 66.4099C148.085 66.0107 147.679 65.6861 147.196 65.4359C146.721 65.1784 146.209 65.0235 145.658 64.9712C144.799 64.8898 144.067 65.0247 143.461 65.376C142.864 65.728 142.364 66.216 141.961 66.84C141.559 67.464 141.247 68.1701 141.025 68.9583C140.811 69.7473 140.666 70.5428 140.59 71.3449C140.515 72.1389 140.507 72.9475 140.568 73.7707C140.638 74.5866 140.813 75.3307 141.092 76.003C141.373 76.6672 141.773 77.2324 142.293 77.6986C142.821 78.1575 143.515 78.4276 144.374 78.5091C146.351 78.6966 147.84 77.6403 148.843 75.3403L150.235 76.0486ZM153.674 69.1403L155.339 69.2982L154.472 78.4369L161.464 69.8792L163.809 70.1016L162.735 81.4278L161.058 81.2687L161.964 71.7168L154.666 80.6624L152.6 80.4664L153.674 69.1403ZM176.321 82.7164L174.644 82.5573L175.496 73.5767L172.157 79.1824L170.966 79.0694L168.703 72.9323L167.851 81.913L166.186 81.7551L167.26 70.429L169.424 70.6342L171.78 76.8169L175.233 71.1851L177.396 71.3903L176.321 82.7164ZM191.329 78.4626C191.245 79.3457 191.027 80.1343 190.675 80.8285C190.331 81.5234 189.871 82.1051 189.296 82.5737C188.729 83.0349 188.067 83.3768 187.31 83.5993C186.553 83.8218 185.725 83.8904 184.826 83.8051C183.943 83.7213 183.151 83.499 182.449 83.1382C181.748 82.7774 181.158 82.3168 180.68 81.7565C180.21 81.1888 179.868 80.531 179.653 79.783C179.446 79.0358 179.384 78.2207 179.468 77.3376C179.549 76.4789 179.763 75.6939 180.108 74.9828C180.462 74.2643 180.923 73.6704 181.491 73.2011C182.068 72.7244 182.734 72.3749 183.491 72.1524C184.249 71.9218 185.069 71.8483 185.952 71.9321C186.851 72.0174 187.651 72.2445 188.352 72.6134C189.054 72.9742 189.639 73.4425 190.107 74.0183C190.585 74.5868 190.926 75.2568 191.13 76.0282C191.344 76.7924 191.41 77.6038 191.329 78.4626ZM189.664 78.3047C189.725 77.6566 189.685 77.0519 189.542 76.4906C189.408 75.922 189.174 75.4135 188.84 74.9649C188.507 74.5164 188.084 74.1493 187.571 73.8636C187.067 73.5787 186.483 73.4048 185.818 73.3418C185.154 73.2788 184.543 73.3394 183.986 73.5236C183.437 73.7086 182.961 73.9904 182.557 74.369C182.154 74.7476 181.828 75.2032 181.582 75.7356C181.344 76.2608 181.194 76.8474 181.133 77.4955C181.071 78.1437 181.108 78.752 181.242 79.3206C181.385 79.8819 181.62 80.3783 181.946 80.8098C182.273 81.2414 182.689 81.5956 183.195 81.8724C183.708 82.1499 184.296 82.3202 184.961 82.3832C185.625 82.4462 186.231 82.3893 186.779 82.2124C187.336 82.0363 187.819 81.7674 188.229 81.4058C188.64 81.0441 188.964 80.6007 189.202 80.0756C189.448 79.5431 189.602 78.9528 189.664 78.3047ZM203.867 83.171C203.319 83.871 202.606 84.4002 201.73 84.7586C200.863 85.1096 199.859 85.2309 198.716 85.1226C197.833 85.0388 197.037 84.8161 196.327 84.4545C195.618 84.0929 195.024 83.6279 194.547 83.0595C194.078 82.4837 193.732 81.8214 193.509 81.0727C193.286 80.324 193.216 79.5081 193.3 78.625C193.381 77.7663 193.59 76.985 193.927 76.2812C194.264 75.5693 194.704 74.9775 195.248 74.5059C195.792 74.0262 196.434 73.6743 197.175 73.4502C197.924 73.2189 198.737 73.1447 199.611 73.2277C199.96 73.2607 200.312 73.335 200.669 73.4506C201.026 73.5662 201.359 73.7245 201.667 73.9253C201.975 74.1181 202.248 74.3443 202.485 74.6038C202.723 74.8552 202.892 75.1451 202.991 75.4733L203.147 73.8328L204.642 73.9745L204.212 78.5074L202.717 78.3656C202.765 77.8633 202.715 77.3967 202.568 76.9659C202.429 76.5358 202.215 76.1559 201.928 75.8262C201.64 75.4964 201.285 75.2298 200.863 75.0263C200.442 74.8146 199.98 74.685 199.478 74.6374C198.797 74.5728 198.191 74.6338 197.658 74.8203C197.133 75.0076 196.682 75.2877 196.303 75.6605C195.924 76.0333 195.62 76.4867 195.389 77.0207C195.168 77.5474 195.026 78.1348 194.965 78.7829C194.903 79.4311 194.943 80.0398 195.086 80.6092C195.237 81.1712 195.48 81.6684 195.815 82.1007C196.158 82.5338 196.582 82.8928 197.086 83.1777C197.598 83.4634 198.187 83.6377 198.851 83.7007C199.694 83.7806 200.458 83.6897 201.145 83.4279C201.832 83.166 202.376 82.7762 202.777 82.2583L203.867 83.171ZM218.502 81.0399C218.418 81.923 218.2 82.7116 217.848 83.4058C217.504 84.1007 217.044 84.6824 216.469 85.151C215.902 85.6122 215.24 85.9541 214.483 86.1766C213.726 86.3991 212.898 86.4677 211.999 86.3824C211.116 86.2986 210.324 86.0763 209.622 85.7155C208.921 85.3547 208.331 84.8941 207.853 84.3338C207.383 83.7661 207.041 83.1083 206.826 82.3603C206.619 81.6132 206.557 80.798 206.641 79.9149C206.722 79.0562 206.936 78.2712 207.281 77.5601C207.635 76.8416 208.096 76.2477 208.664 75.7784C209.241 75.3018 209.907 74.9522 210.664 74.7297C211.422 74.4991 212.242 74.4257 213.125 74.5094C214.024 74.5947 214.824 74.8218 215.525 75.1907C216.227 75.5516 216.812 76.0199 217.28 76.5956C217.758 77.1641 218.099 77.8341 218.303 78.6055C218.517 79.3697 218.583 80.1812 218.502 81.0399ZM216.837 80.882C216.898 80.2339 216.858 79.6292 216.715 79.0679C216.58 78.4994 216.347 77.9908 216.013 77.5423C215.68 77.0937 215.257 76.7266 214.744 76.441C214.24 76.1561 213.656 75.9821 212.991 75.9191C212.327 75.8561 211.716 75.9167 211.159 76.1009C210.61 76.2859 210.134 76.5677 209.73 76.9463C209.327 77.3249 209.001 77.7805 208.755 78.313C208.517 78.8381 208.367 79.4247 208.306 80.0729C208.244 80.721 208.281 81.3294 208.415 81.8979C208.558 82.4592 208.793 82.9556 209.119 83.3872C209.446 83.8187 209.862 84.1729 210.367 84.4497C210.881 84.7273 211.469 84.8975 212.134 84.9606C212.798 85.0236 213.404 84.9666 213.952 84.7897C214.509 84.6136 214.992 84.3447 215.402 83.9831C215.813 83.6214 216.137 83.1781 216.375 82.6529C216.621 82.1205 216.775 81.5302 216.837 80.882ZM230.667 87.871L228.99 87.712L229.472 82.6322L222.679 81.9879L222.197 87.0677L220.532 86.9097L221.606 75.5836L223.271 75.7415L222.814 80.5661L229.607 81.2104L230.065 76.3859L231.742 76.5449L230.667 87.871ZM245.675 83.6172C245.591 84.5003 245.373 85.2889 245.021 85.9831C244.677 86.678 244.217 87.2598 243.642 87.7283C243.075 88.1895 242.413 88.5314 241.656 88.7539C240.899 88.9764 240.071 89.045 239.172 88.9597C238.289 88.876 237.497 88.6537 236.795 88.2928C236.094 87.932 235.504 87.4714 235.026 86.9111C234.556 86.3434 234.214 85.6856 233.999 84.9376C233.792 84.1905 233.73 83.3753 233.814 82.4923C233.895 81.6335 234.109 80.8485 234.454 80.1374C234.808 79.419 235.269 78.8251 235.837 78.3557C236.414 77.8791 237.08 77.5295 237.837 77.307C238.595 77.0764 239.415 77.003 240.298 77.0867C241.197 77.172 241.997 77.3991 242.698 77.7681C243.4 78.1289 243.985 78.5972 244.453 79.173C244.931 79.7414 245.272 80.4114 245.476 81.1829C245.69 81.947 245.756 82.7585 245.675 83.6172ZM244.01 83.4593C244.071 82.8112 244.03 82.2065 243.888 81.6453C243.753 81.0767 243.52 80.5681 243.186 80.1196C242.853 79.671 242.43 79.3039 241.917 79.0183C241.413 78.7334 240.829 78.5594 240.164 78.4964C239.5 78.4334 238.889 78.494 238.332 78.6783C237.783 78.8633 237.307 79.1451 236.903 79.5237C236.5 79.9023 236.174 80.3578 235.928 80.8903C235.69 81.4154 235.54 82.002 235.479 82.6502C235.417 83.2983 235.454 83.9067 235.588 84.4753C235.731 85.0365 235.966 85.5329 236.292 85.9645C236.619 86.396 237.035 86.7502 237.54 87.027C238.054 87.3046 238.642 87.4749 239.307 87.5379C239.971 87.6009 240.577 87.5439 241.125 87.367C241.682 87.1909 242.165 86.922 242.575 86.5604C242.986 86.1988 243.31 85.7554 243.547 85.2302C243.794 84.6978 243.948 84.1075 244.01 83.4593ZM257.84 90.4484L256.163 90.2893L257.015 81.3086L253.675 86.9143L252.484 86.8013L250.222 80.6643L249.37 89.645L247.705 89.4871L248.779 78.1609L250.943 78.3661L253.299 84.5489L256.751 78.9171L258.915 79.1222L257.84 90.4484ZM285.891 89.8473C285.787 90.941 285.305 91.7168 284.444 92.1747C283.592 92.6252 282.413 92.779 280.906 92.6361L274.878 92.0644L275.952 80.7383L281.603 81.2742C282.154 81.3265 282.693 81.4225 283.219 81.5624C283.754 81.6949 284.222 81.8905 284.623 82.1492C285.024 82.3998 285.34 82.7281 285.571 83.1343C285.803 83.5404 285.889 84.0514 285.831 84.6671C285.775 85.2504 285.587 85.7271 285.266 86.0972C284.945 86.4673 284.361 86.7184 283.514 86.8507C284.505 87.1817 285.165 87.5958 285.493 88.0929C285.823 88.582 285.956 89.1668 285.891 89.8473ZM284.156 84.6064C284.19 84.258 284.123 83.9697 283.957 83.7414C283.791 83.5049 283.576 83.3169 283.311 83.1774C283.055 83.0305 282.763 82.9211 282.435 82.8491C282.107 82.777 281.784 82.726 281.468 82.6961L277.482 82.318L277.173 85.5749L281.16 85.9529C281.492 85.9845 281.83 85.9961 282.174 85.9879C282.518 85.9796 282.834 85.9278 283.121 85.8324C283.408 85.7289 283.643 85.5836 283.824 85.3964C284.014 85.2019 284.125 84.9386 284.156 84.6064ZM284.233 89.6165C284.296 88.9521 284.071 88.4403 283.557 88.0809C283.044 87.7216 282.317 87.4974 281.377 87.4082L277.039 86.9967L276.678 90.8004L281.016 91.2119C281.956 91.3011 282.712 91.2134 283.285 90.9489C283.858 90.6845 284.174 90.2403 284.233 89.6165ZM313.301 83.8515C313.259 84.289 313.182 84.6781 313.068 85.0188C312.962 85.3603 312.79 85.6996 312.554 86.0369C312.326 86.3749 312.031 86.7271 311.669 87.0933C311.307 87.4595 310.855 87.8744 310.313 88.338L304.252 93.4158L310.948 94.0509L311.243 90.9399L312.665 91.0747L312.235 95.6076L301.93 94.6302L302.069 93.1597L308.837 87.4746C309.183 87.1886 309.513 86.901 309.826 86.612C310.148 86.3237 310.438 86.0283 310.695 85.7257C310.953 85.4232 311.163 85.1038 311.326 84.7678C311.488 84.4317 311.588 84.0733 311.624 83.6925C311.716 82.7203 311.462 81.9563 310.86 81.4007C310.268 80.8377 309.498 80.5112 308.55 80.4213C307.221 80.2953 306.182 80.5686 305.431 81.2413C304.681 81.914 304.239 82.9471 304.107 84.3406L302.564 84.1942C302.734 82.4037 303.345 81.0475 304.397 80.1255C305.449 79.2034 306.878 78.8281 308.685 78.9995C309.365 79.064 309.996 79.226 310.576 79.4854C311.165 79.7375 311.673 80.0717 312.099 80.4882C312.534 80.9055 312.859 81.3982 313.075 81.9663C313.292 82.5264 313.367 83.1548 313.301 83.8515ZM317.056 88.0825C316.945 89.2572 316.982 90.3725 317.168 91.4283L325.337 84.2942C325.017 83.5282 324.588 82.9234 324.05 82.48C323.519 82.0373 322.874 81.7799 322.112 81.7076C320.686 81.5724 319.535 82.0763 318.658 83.2193C317.79 84.355 317.256 85.976 317.056 88.0825ZM317.611 92.8314C318.278 94.3334 319.349 95.1543 320.823 95.2941C322.217 95.4263 323.356 94.9253 324.24 93.7912C325.125 92.6489 325.667 91.0246 325.867 88.9181C325.922 88.3348 325.938 87.7805 325.914 87.255C325.891 86.7215 325.838 86.2096 325.753 85.7193L317.611 92.8314ZM315.391 87.9246C315.492 86.8632 315.703 85.8491 316.023 84.8823C316.344 83.9154 316.779 83.0738 317.33 82.3576C317.88 81.6414 318.561 81.0929 319.374 80.7122C320.195 80.3242 321.153 80.1821 322.247 80.2858C323.341 80.3895 324.25 80.7088 324.976 81.2436C325.711 81.7711 326.285 82.4386 326.699 83.2463C327.113 84.054 327.382 84.9624 327.507 85.9715C327.632 86.9807 327.645 88.0159 327.544 89.0772C327.443 90.1385 327.237 91.153 326.924 92.1207C326.612 93.0883 326.181 93.9262 325.631 94.6343C325.082 95.3424 324.396 95.8905 323.575 96.2785C322.762 96.6592 321.801 96.7969 320.691 96.6917C319.581 96.5864 318.659 96.27 317.924 95.7426C317.198 95.2078 316.628 94.5406 316.213 93.741C315.807 92.9422 315.545 92.0386 315.428 91.0303C315.303 90.0211 315.291 88.9859 315.391 87.9246ZM337.682 98.0213L330.889 97.3769L331.024 95.9551L333.588 96.1983L334.615 85.3704C334.438 85.6888 334.173 86.0233 333.821 86.3741C333.47 86.7168 333.064 87.0258 332.605 87.3011C332.146 87.5682 331.648 87.7825 331.109 87.944C330.579 88.1062 330.038 88.1612 329.487 88.1089L329.651 86.3833C330.145 86.4301 330.69 86.3265 331.287 86.0725C331.883 85.8184 332.443 85.475 332.966 85.0424C333.49 84.6097 333.938 84.1046 334.312 83.5269C334.685 82.9492 334.9 82.3607 334.957 81.7611L336.634 81.9202L335.265 96.3574L337.817 96.5994L337.682 98.0213ZM344.229 90.6598C344.118 91.8345 344.155 92.9498 344.341 94.0056L352.51 86.8715C352.19 86.1055 351.761 85.5008 351.223 85.0573C350.692 84.6146 350.047 84.3572 349.285 84.285C347.859 84.1497 346.708 84.6536 345.831 85.7966C344.963 86.9323 344.429 88.5534 344.229 90.6598ZM344.784 95.4087C345.451 96.9107 346.522 97.7316 347.996 97.8714C349.39 98.0036 350.529 97.5026 351.413 96.3685C352.298 95.2262 352.84 93.6019 353.04 91.4955C353.095 90.9121 353.111 90.3578 353.087 89.8324C353.064 89.2988 353.011 88.7869 352.926 88.2966L344.784 95.4087ZM342.564 90.5019C342.665 89.4406 342.876 88.4265 343.196 87.4596C343.517 86.4927 343.952 85.6511 344.503 84.9349C345.053 84.2187 345.734 83.6702 346.547 83.2896C347.368 82.9015 348.326 82.7594 349.42 82.8631C350.514 82.9669 351.423 83.2861 352.149 83.8209C352.884 84.3484 353.458 85.0159 353.872 85.8236C354.286 86.6313 354.555 87.5397 354.68 88.5488C354.805 89.558 354.818 90.5932 354.717 91.6545C354.616 92.7158 354.41 93.7303 354.097 94.698C353.785 95.6656 353.354 96.5035 352.804 97.2116C352.255 97.9198 351.569 98.4678 350.748 98.8559C349.935 99.2366 348.974 99.3743 347.864 99.269C346.754 99.1637 345.831 98.8473 345.097 98.3199C344.371 97.7851 343.801 97.1179 343.386 96.3183C342.979 95.5196 342.718 94.616 342.601 93.6076C342.476 92.5984 342.464 91.5632 342.564 90.5019ZM42.6215 83.7194L53.3522 84.7371L53.2173 86.159L44.1516 85.2991L43.2122 95.2034L41.5473 95.0455L42.6215 83.7194ZM66.6897 91.753C66.606 92.6361 66.3881 93.4247 66.0362 94.1188C65.6923 94.8138 65.2325 95.3955 64.6567 95.8641C64.0898 96.3253 63.4279 96.6671 62.6711 96.8896C61.9143 97.1121 61.0863 97.1807 60.187 97.0954C59.3039 97.0117 58.5116 96.7894 57.8101 96.4286C57.1086 96.0678 56.5188 95.6072 56.0406 95.0468C55.5713 94.4791 55.229 93.8213 55.0139 93.0734C54.8068 92.3262 54.7451 91.5111 54.8289 90.628C54.9103 89.7692 55.1238 88.9843 55.4692 88.2731C55.8234 87.5547 56.2844 86.9608 56.8521 86.4915C57.4286 86.0148 58.0953 85.6652 58.8521 85.4427C59.6097 85.2121 60.43 85.1387 61.3131 85.2225C62.2124 85.3078 63.0124 85.5349 63.7131 85.9038C64.4146 86.2646 64.9996 86.7329 65.4682 87.3087C65.9456 87.8772 66.2867 88.5471 66.4915 89.3186C66.7051 90.0827 66.7712 90.8942 66.6897 91.753ZM65.0248 91.5951C65.0863 90.9469 65.0456 90.3422 64.9026 89.781C64.7685 89.2124 64.5347 88.7038 64.2013 88.2553C63.8678 87.8068 63.4448 87.4397 62.9324 87.154C62.4281 86.8691 61.8437 86.6952 61.1794 86.6322C60.5151 86.5691 59.9044 86.6298 59.3474 86.814C58.7985 86.999 58.3222 87.2808 57.9184 87.6594C57.5147 88.038 57.1894 88.4935 56.9427 89.026C56.7049 89.5511 56.5553 90.1378 56.4938 90.7859C56.4323 91.434 56.4686 92.0424 56.6027 92.611C56.7457 93.1722 56.9806 93.6687 57.3075 94.1002C57.6344 94.5318 58.0504 94.886 58.5555 95.1627C59.0687 95.4403 59.6575 95.6106 60.3218 95.6736C60.9862 95.7366 61.5924 95.6797 62.1405 95.5028C62.6967 95.3266 63.18 95.0578 63.5904 94.6961C64.0007 94.3345 64.3248 93.8911 64.5626 93.366C64.8093 92.8335 64.9634 92.2432 65.0248 91.5951ZM68.2596 96.1445C68.6481 96.0996 69.0334 95.9154 69.4156 95.592C69.7978 95.2685 70.1485 94.8032 70.4676 94.1958C70.7868 93.5885 71.066 92.8425 71.3053 91.9578C71.5534 91.0658 71.7331 90.0324 71.8445 88.8576L72.067 86.5122L78.2526 87.0989L77.3132 97.0032L79.5857 97.2187L79.0832 102.517L77.5884 102.375L77.9561 98.4988L69.6195 97.7081L69.2518 101.585L67.7571 101.443L68.2596 96.1445ZM73.5094 89.0156C73.4203 89.9554 73.2677 90.8319 73.0516 91.6452C72.8443 92.4512 72.6006 93.1679 72.3204 93.7952C72.0483 94.4234 71.7522 94.9594 71.4322 95.4031C71.1129 95.8388 70.8088 96.1574 70.52 96.3589L75.6483 96.8453L76.4529 88.3628L73.597 88.092L73.5094 89.0156ZM94.464 88.6365L86.9929 102.25C86.6016 103.014 86.1069 103.49 85.5086 103.678C84.9095 103.875 84.2617 103.94 83.5649 103.874C82.7872 103.8 82.0228 103.585 81.272 103.228L81.7361 101.825C82.1015 102.023 82.4634 102.172 82.8219 102.271C83.1795 102.378 83.4718 102.443 83.6986 102.465C84.2495 102.517 84.6389 102.419 84.8668 102.171C85.1028 101.923 85.3151 101.625 85.5036 101.275L86.3588 99.6269L82.4088 87.4931L84.3775 87.6798L87.5213 97.9714L92.471 88.4475L94.464 88.6365ZM102.091 100.788L99.8306 100.574L100.045 98.3132L102.305 98.5276L102.091 100.788Z" fill="#FFFBFB"/>
</svg>
