<svg width="439" height="168" viewBox="0 0 439 168" fill="none" xmlns="http://www.w3.org/2000/svg">
<path d="M4.28223 0.595703L438.854 10.9958L435.528 149.952L276.65 151.667L203.152 160.568L155.737 154.372L136.743 136.774L78.6949 138.83L38.6545 152.634L26.4474 132.224L0.956755 139.552L4.28223 0.595703Z" fill="black"/>
<path d="M36.3642 49.9293C36.3274 51.4669 35.82 52.5985 34.8421 53.324C33.8642 54.0495 32.5088 54.3916 30.7759 54.3501L27.1758 54.2639L27.0125 61.0857L25.3407 61.0457L25.7218 45.1201L30.9693 45.2457C32.7185 45.2875 34.0639 45.7023 35.0056 46.49C35.9475 47.2696 36.4004 48.4161 36.3642 49.9293ZM34.6923 49.8893C34.7186 48.791 34.3918 47.9895 33.7119 47.4848C33.0323 46.9719 32.1148 46.7017 30.9596 46.6741L27.3595 46.5879L27.21 52.8361L30.81 52.9223C31.9653 52.9499 32.8945 52.7279 33.5977 52.2564C34.3012 51.7766 34.666 50.9876 34.6923 49.8893ZM38.4354 58.282C38.4526 57.5661 38.6459 56.9724 39.0153 56.501C39.385 56.0214 39.8619 55.6502 40.4462 55.3874C41.0388 55.1167 41.7108 54.9293 42.4622 54.8251C43.2219 54.7131 43.9923 54.6664 44.7733 54.6851C45.0743 54.6923 45.3427 54.7028 45.5784 54.7165C45.8223 54.7305 46.0498 54.7482 46.261 54.7695C46.4802 54.791 46.6994 54.8166 46.9185 54.8463C47.1376 54.876 47.3769 54.9102 47.6365 54.949L47.656 54.1313C47.6693 53.5781 47.5581 53.1196 47.3226 52.7558C47.0953 52.3921 46.8091 52.1045 46.4641 51.8927C46.1194 51.6728 45.7568 51.5176 45.3763 51.4271C44.9961 51.3284 44.6717 51.2759 44.4033 51.2695C43.5571 51.2492 42.7734 51.3444 42.052 51.5551C41.3306 51.7658 40.6562 52.0549 40.0287 52.4225L39.3022 51.1474C39.9955 50.7488 40.7683 50.4295 41.6207 50.1894C42.4814 49.9414 43.4202 49.8295 44.4371 49.8539C45.0554 49.8687 45.6596 49.9645 46.2496 50.1415C46.848 50.3104 47.3791 50.5674 47.843 50.9122C48.3152 51.2491 48.6872 51.6895 48.9591 52.2332C49.231 52.777 49.358 53.4231 49.3401 54.1716L49.162 61.6158L47.4779 61.5755L47.5234 59.6717C47.2218 60.0308 46.8805 60.3442 46.4997 60.6119C46.127 60.8797 45.7351 61.0983 45.324 61.2675C44.9131 61.4286 44.5032 61.5491 44.0943 61.6288C43.6852 61.7167 43.2976 61.7563 42.9314 61.7475C41.4263 61.7115 40.2943 61.3954 39.5352 60.7993C38.7761 60.2032 38.4095 59.3641 38.4354 58.282ZM42.9656 60.3197C43.6653 60.3364 44.2942 60.2497 44.8523 60.0596C45.4187 59.8615 45.9009 59.6125 46.2988 59.3127C46.6967 59.0129 47.0056 58.6906 47.2255 58.3459C47.4535 58.0013 47.5709 57.6866 47.5778 57.4019L47.6035 56.328C47.0603 56.2336 46.5366 56.1763 46.0324 56.156C45.5363 56.136 45.1052 56.1216 44.7391 56.1129C44.1371 56.0985 43.5544 56.1252 42.9911 56.1932C42.4359 56.2613 41.9487 56.3839 41.5293 56.5611C41.11 56.7302 40.7708 56.9581 40.5116 57.245C40.2524 57.5318 40.1176 57.8908 40.1073 58.322C40.0958 58.802 40.3171 59.251 40.7711 59.6689C41.2334 60.0788 41.9649 60.2958 42.9656 60.3197ZM63.003 53.6927C62.9897 54.2459 62.782 54.7619 62.3798 55.2407C61.9859 55.7116 61.3888 56.0026 60.5884 56.1137C61.3334 56.278 61.9278 56.6097 62.3717 57.1088C62.824 57.5999 63.0431 58.1383 63.0291 58.7241C63.016 59.2692 62.8578 59.7579 62.5544 60.1902C62.2512 60.6144 61.8397 60.9708 61.32 61.2596C60.8083 61.5485 60.2049 61.762 59.5097 61.9001C58.8143 62.0462 58.0598 62.1096 57.2462 62.0901C55.9445 62.0589 54.8753 61.8339 54.0388 61.415C53.2105 60.9882 52.5499 60.3618 52.0568 59.536L53.2476 58.7586C53.616 59.3535 54.13 59.8136 54.7897 60.1387C55.4495 60.4638 56.2797 60.6383 57.2804 60.6623C58.4763 60.6909 59.4488 60.531 60.198 60.1826C60.9552 59.8344 61.3416 59.3349 61.3572 58.6841C61.3624 58.4644 61.2945 58.243 61.1533 58.0198C61.0204 57.7887 60.8177 57.5844 60.5452 57.4069C60.2729 57.2213 59.9346 57.0708 59.5303 56.9553C59.1263 56.8316 58.6476 56.7632 58.0944 56.75L56.1907 56.7044L56.2245 55.2888L58.1283 55.3344C59.1941 55.3599 59.9877 55.1916 60.5092 54.8297C61.0391 54.4597 61.3089 54.0673 61.3189 53.6524C61.3333 53.0504 61.0112 52.5624 60.3526 52.1884C59.7022 51.8147 58.7994 51.614 57.6441 51.5864C56.6841 51.5634 55.8868 51.7152 55.2521 52.042C54.6175 52.3687 54.1266 52.8128 53.7794 53.3743L52.5551 52.4902C53.0708 51.6886 53.7404 51.0941 54.5637 50.7067C55.3951 50.3196 56.4332 50.141 57.678 50.1707C58.4671 50.1896 59.1852 50.2882 59.8322 50.4665C60.4875 50.6369 61.0516 50.8742 61.5246 51.1786C62.0059 51.475 62.3757 51.842 62.6338 52.2797C62.8922 52.7091 63.0152 53.1802 63.003 53.6927ZM77.1829 56.6085C77.1616 57.4953 77.004 58.2974 76.7101 59.0148C76.4162 59.7323 76.0107 60.3494 75.4936 60.8662C74.9849 61.375 74.3731 61.7673 73.6583 62.0433C72.9434 62.3192 72.1467 62.4467 71.2681 62.4257C70.666 62.4113 70.0829 62.2874 69.5186 62.0541C68.9625 61.821 68.4456 61.483 67.9677 61.0402L67.8343 66.6172L66.1624 66.5772L66.5435 50.6515L68.2154 50.6916L68.1903 51.7411C69.2445 50.8871 70.3656 50.4744 71.5534 50.5028C72.4321 50.5238 73.2218 50.6893 73.9226 50.9991C74.6236 51.3008 75.2158 51.726 75.6992 52.2749C76.191 52.8158 76.5663 53.4597 76.8252 54.2067C77.0843 54.9455 77.2035 55.7461 77.1829 56.6085ZM75.511 56.5685C75.5262 55.9339 75.4509 55.3378 75.2851 54.7803C75.1277 54.2149 74.879 53.7246 74.5389 53.3094C74.1988 52.8943 73.7753 52.5626 73.2684 52.3144C72.7696 52.0664 72.1866 51.9344 71.5195 51.9184C70.8849 51.9032 70.2882 52.007 69.7293 52.2297C69.1786 52.4526 68.6528 52.8226 68.152 53.3397L68.006 59.4415C68.4815 59.982 68.9891 60.3727 69.5287 60.6135C70.0765 60.8545 70.6676 60.9827 71.3022 60.9978C71.9694 61.0138 72.5579 60.9099 73.068 60.686C73.5862 60.4623 74.0251 60.1513 74.3847 59.7529C74.7442 59.3545 75.016 58.8848 75.1999 58.3438C75.3921 57.7948 75.4958 57.2031 75.511 56.5685ZM79.3661 59.2616C79.3832 58.5456 79.5765 57.9519 79.946 57.4805C80.3156 57.0009 80.7926 56.6297 81.3768 56.367C81.9694 56.0962 82.6414 55.9088 83.3928 55.8047C84.1526 55.6926 84.9229 55.6459 85.704 55.6646C86.005 55.6718 86.2734 55.6823 86.5091 55.6961C86.753 55.7101 86.9805 55.7277 87.1916 55.7491C87.4109 55.7706 87.6301 55.7962 87.8492 55.8258C88.0682 55.8555 88.3076 55.8897 88.5671 55.9285L88.5867 55.1109C88.5999 54.5576 88.4888 54.0991 88.2533 53.7353C88.0259 53.3717 87.7398 53.084 87.3948 52.8722C87.05 52.6523 86.6874 52.4971 86.307 52.4066C85.9268 52.308 85.6024 52.2554 85.3339 52.249C84.4878 52.2288 83.7041 52.324 82.9827 52.5346C82.2613 52.7453 81.5868 53.0344 80.9594 53.402L80.2328 52.1269C80.9262 51.7284 81.699 51.409 82.5513 51.169C83.412 50.9209 84.3508 50.8091 85.3678 50.8334C85.9861 50.8482 86.5903 50.9441 87.1803 51.121C87.7786 51.29 88.3097 51.5469 88.7736 51.8918C89.2458 52.2287 89.6179 52.669 89.8898 53.2128C90.1617 53.7566 90.2887 54.4027 90.2708 55.1512L90.0926 62.5953L88.4085 62.555L88.4541 60.6513C88.1525 61.0104 87.8112 61.3237 87.4303 61.5914C87.0576 61.8593 86.6657 62.0778 86.2546 62.2471C85.8438 62.4082 85.4339 62.5286 85.025 62.6084C84.6158 62.6963 84.2282 62.7358 83.8621 62.7271C82.357 62.691 81.2249 62.375 80.4659 61.7788C79.7068 61.1827 79.3402 60.3436 79.3661 59.2616ZM83.8963 61.2992C84.5959 61.316 85.2248 61.2293 85.7829 61.0391C86.3494 60.841 86.8315 60.5921 87.2294 60.2923C87.6273 59.9925 87.9362 59.6702 88.1561 59.3254C88.3842 58.9808 88.5016 58.6662 88.5084 58.3814L88.5341 57.3075C87.991 57.2131 87.4673 57.1558 86.9631 57.1356C86.467 57.1156 86.0359 57.1012 85.6698 57.0924C85.0678 57.078 84.4851 57.1048 83.9218 57.1727C83.3666 57.2408 82.8793 57.3635 82.4599 57.5407C82.0407 57.7097 81.7015 57.9377 81.4423 58.2245C81.1831 58.5114 81.0483 58.8704 81.038 59.3016C81.0265 59.7816 81.2478 60.2305 81.7018 60.6484C82.1641 61.0584 82.8956 61.2753 83.8963 61.2992ZM94.9207 57.2894C94.8897 58.583 95.2147 59.6286 95.8957 60.4264C96.5769 61.216 97.5317 61.6256 98.7602 61.655C99.3297 61.6686 99.8568 61.5835 100.341 61.3998C100.834 61.208 101.26 60.9293 101.619 60.5634C101.978 60.1894 102.257 59.7443 102.457 59.2281C102.665 58.7039 102.777 58.1205 102.792 57.4778C102.823 56.1761 102.506 55.1306 101.841 54.3413C101.177 53.544 100.218 53.1303 98.9649 53.1003C97.6144 53.068 96.6084 53.4346 95.947 54.2003C95.2939 54.958 94.9518 55.9877 94.9207 57.2894ZM93.1506 54.7195C93.1798 53.4991 93.3326 52.3875 93.6089 51.3847C93.8934 50.3821 94.2762 49.5244 94.7572 48.8114C95.2464 48.0986 95.8173 47.5465 96.4697 47.1551C97.1222 46.7637 97.8389 46.5773 98.6199 46.596C98.986 46.6048 99.2943 46.6488 99.5448 46.7281C99.7952 46.8073 100.017 46.9022 100.21 47.0126C100.411 47.1151 100.6 47.2051 100.777 47.2826C100.962 47.3603 101.181 47.4022 101.433 47.4082C101.767 47.4162 102.049 47.366 102.279 47.2575C102.518 47.1493 102.807 46.9649 103.147 46.7044L103.99 47.7258C103.632 48.051 103.215 48.3219 102.737 48.5384C102.26 48.7467 101.814 48.8459 101.399 48.836C101.082 48.8284 100.806 48.7852 100.572 48.7063C100.338 48.6275 100.12 48.5368 99.9191 48.4343C99.7264 48.3238 99.5251 48.2295 99.3154 48.1512C99.1137 48.0731 98.8705 48.0307 98.5858 48.0238C98.0895 48.012 97.6184 48.1391 97.1724 48.4052C96.7348 48.6633 96.3471 49.0489 96.0092 49.5618C95.6715 50.0665 95.4003 50.6828 95.1957 51.4105C94.9992 52.1384 94.8899 52.9621 94.8679 53.8814C95.0801 53.5202 95.336 53.2007 95.6357 52.9229C95.9354 52.6452 96.2666 52.413 96.6292 52.2263C96.992 52.0315 97.378 51.8901 97.7871 51.8022C98.1963 51.7143 98.6001 51.6751 98.9988 51.6847C99.7961 51.7038 100.534 51.8435 101.211 52.1039C101.889 52.3562 102.47 52.7283 102.955 53.2202C103.448 53.7041 103.828 54.3034 104.096 55.018C104.364 55.7327 104.487 56.5659 104.464 57.5178C104.445 58.3151 104.284 59.0602 103.983 59.753C103.681 60.4459 103.272 61.0425 102.756 61.543C102.247 62.0355 101.648 62.4201 100.958 62.6966C100.267 62.9731 99.5233 63.1019 98.726 63.0828C96.8141 63.037 95.3901 62.3354 94.4539 60.978C93.5176 59.6206 93.0832 57.5344 93.1506 54.7195ZM118.406 57.6194C118.385 58.5062 118.223 59.3083 117.921 60.0255C117.627 60.743 117.209 61.3557 116.668 61.8637C116.135 62.3638 115.499 62.7516 114.76 63.0269C114.021 63.3023 113.199 63.4292 112.296 63.4075C111.41 63.3863 110.604 63.2205 109.878 62.9101C109.153 62.5997 108.532 62.1819 108.016 61.6567C107.508 61.1235 107.12 60.4915 106.852 59.7606C106.593 59.0299 106.474 58.2212 106.495 57.3344C106.516 56.472 106.673 55.674 106.968 54.9402C107.27 54.1986 107.688 53.5736 108.221 53.0654C108.763 52.5492 109.403 52.1535 110.142 51.8781C110.882 51.5946 111.695 51.4635 112.582 51.4847C113.485 51.5063 114.299 51.6764 115.024 51.9949C115.749 52.3053 116.366 52.7312 116.874 53.2725C117.39 53.8058 117.778 54.45 118.036 55.2051C118.303 55.9523 118.426 56.7571 118.406 57.6194ZM116.734 57.5794C116.75 56.9286 116.666 56.3283 116.484 55.7785C116.31 55.2208 116.041 54.73 115.677 54.3061C115.312 53.8822 114.865 53.5459 114.333 53.2971C113.81 53.0485 113.215 52.9163 112.548 52.9003C111.881 52.8843 111.276 52.9879 110.733 53.211C110.199 53.4343 109.743 53.749 109.367 54.1551C108.991 54.5613 108.699 55.0386 108.491 55.5872C108.29 56.1278 108.183 56.7236 108.167 57.3744C108.151 58.0253 108.231 58.6295 108.405 59.1872C108.587 59.737 108.856 60.2156 109.213 60.623C109.569 61.0304 110.009 61.3544 110.533 61.5948C111.064 61.8355 111.663 61.9638 112.331 61.9797C112.998 61.9957 113.598 61.8961 114.133 61.681C114.675 61.466 115.138 61.1637 115.522 60.774C115.906 60.3843 116.198 59.9192 116.398 59.3785C116.606 58.83 116.718 58.2303 116.734 57.5794ZM131.765 57.585L130.337 57.5509L130.431 53.6091L127.014 53.5274L126.811 62.0454L129.373 62.1068L129.339 63.5346L122.517 63.3713L122.552 61.9435L125.127 62.0051L125.33 53.4871L121.913 53.4053L121.819 57.347L120.391 57.3128L120.52 51.9433L131.893 52.2155L131.765 57.585ZM133.94 60.5676C133.957 59.8517 134.151 59.258 134.52 58.7866C134.89 58.307 135.367 57.9358 135.951 57.673C136.544 57.4023 137.216 57.2149 137.967 57.1107C138.727 56.9987 139.497 56.952 140.278 56.9707C140.579 56.9779 140.848 56.9884 141.083 57.0022C141.327 57.0161 141.555 57.0338 141.766 57.0551C141.985 57.0766 142.204 57.1022 142.423 57.1319C142.642 57.1616 142.882 57.1958 143.141 57.2346L143.161 56.4169C143.174 55.8637 143.063 55.4052 142.828 55.0414C142.6 54.6778 142.314 54.3901 141.969 54.1783C141.624 53.9584 141.262 53.8032 140.881 53.7127C140.501 53.614 140.177 53.5615 139.908 53.5551C139.062 53.5348 138.278 53.63 137.557 53.8407C136.835 54.0514 136.161 54.3405 135.534 54.7081L134.807 53.433C135.5 53.0344 136.273 52.7151 137.126 52.475C137.986 52.227 138.925 52.1151 139.942 52.1395C140.56 52.1543 141.164 52.2501 141.755 52.4271C142.353 52.596 142.884 52.853 143.348 53.1978C143.82 53.5347 144.192 53.9751 144.464 54.5188C144.736 55.0626 144.863 55.7087 144.845 56.4572L144.667 63.9014L142.983 63.8611L143.028 61.9573C142.727 62.3164 142.385 62.6298 142.005 62.8975C141.632 63.1653 141.24 63.3839 140.829 63.5531C140.418 63.7142 140.008 63.8347 139.599 63.9144C139.19 64.0023 138.802 64.0419 138.436 64.0331C136.931 63.9971 135.799 63.681 135.04 63.0849C134.281 62.4888 133.914 61.6497 133.94 60.5676ZM138.47 62.6053C139.17 62.6221 139.799 62.5353 140.357 62.3452C140.924 62.1471 141.406 61.8981 141.804 61.5983C142.202 61.2985 142.51 60.9762 142.73 60.6315C142.958 60.2869 143.076 59.9722 143.083 59.6875L143.108 58.6136C142.565 58.5192 142.042 58.4619 141.537 58.4416C141.041 58.4216 140.61 58.4072 140.244 58.3985C139.642 58.3841 139.059 58.4108 138.496 58.4788C137.941 58.5469 137.454 58.6695 137.034 58.8467C136.615 59.0158 136.276 59.2437 136.017 59.5306C135.757 59.8174 135.623 60.1764 135.612 60.6076C135.601 61.0876 135.822 61.5366 136.276 61.9545C136.738 62.3644 137.47 62.5814 138.47 62.6053ZM158.31 64.2279L156.626 64.1876L156.748 59.0865L149.927 58.9233L149.805 64.0243L148.133 63.9843L148.405 52.6106L150.077 52.6506L149.961 57.4954L156.783 57.6587L156.899 52.8139L158.583 52.8542L158.31 64.2279ZM171.954 64.5544L170.27 64.5141L170.392 59.413L163.57 59.2498L163.448 64.3509L161.776 64.3108L162.048 52.9371L163.72 52.9772L163.604 57.822L170.426 57.9852L170.542 53.1404L172.226 53.1807L171.954 64.5544ZM184.796 53.4815L186.468 53.5215L186.195 64.8952L184.524 64.8552L184.796 53.4815ZM176.657 57.8413L178.609 57.888C179.862 57.918 180.808 58.2133 181.446 58.774C182.092 59.3267 182.401 60.1929 182.372 61.3726C182.344 62.5604 181.994 63.423 181.321 63.9605C180.658 64.49 179.707 64.74 178.471 64.7104L174.822 64.623L175.094 53.2494L176.766 53.2894L176.657 57.8413ZM180.701 61.3326C180.716 60.7061 180.54 60.2176 180.174 59.8669C179.808 59.5163 179.283 59.3328 178.6 59.3164L176.623 59.2691L176.528 63.2352L178.505 63.2826C179.188 63.2989 179.721 63.1367 180.104 62.7958C180.486 62.4549 180.685 61.9672 180.701 61.3326ZM199.241 65.2074L197.557 65.1671L197.773 56.1487L194.837 61.9762L193.641 61.9475L190.951 55.9855L190.735 65.0039L189.063 64.9639L189.336 53.5902L191.508 53.6422L194.295 59.6432L197.341 53.7818L199.513 53.8338L199.241 65.2074ZM227.179 62.6281C227.153 63.7264 226.727 64.5343 225.9 65.0518C225.082 65.5613 223.917 65.798 222.403 65.7618L216.35 65.6169L216.623 54.2432L222.297 54.379C222.85 54.3923 223.395 54.45 223.929 54.5524C224.472 54.6468 224.953 54.8089 225.371 55.0387C225.789 55.2603 226.127 55.5656 226.387 55.9544C226.646 56.3432 226.768 56.8467 226.754 57.465C226.739 58.0508 226.585 58.5396 226.291 58.9314C225.997 59.3233 225.432 59.615 224.597 59.8067C225.609 60.067 226.296 60.4334 226.659 60.9061C227.022 61.3707 227.196 61.9447 227.179 62.6281ZM225.079 57.5226C225.088 57.1728 225.001 56.8899 224.819 56.6739C224.637 56.4497 224.409 56.2774 224.135 56.1569C223.87 56.0284 223.571 55.9399 223.238 55.8912C222.905 55.8425 222.58 55.8144 222.263 55.8068L218.26 55.711L218.182 58.9816L222.185 59.0774C222.518 59.0854 222.856 59.0731 223.199 59.0406C223.542 59.0081 223.853 58.9341 224.132 58.8187C224.412 58.6952 224.636 58.5336 224.803 58.3341C224.979 58.1267 225.071 57.8562 225.079 57.5226ZM225.509 62.5148C225.525 61.8477 225.264 61.353 224.727 61.0308C224.189 60.7086 223.448 60.5362 222.505 60.5137L218.148 60.4094L218.056 64.2291L222.413 64.3334C223.357 64.356 224.105 64.2151 224.658 63.9109C225.21 63.6066 225.494 63.1413 225.509 62.5148ZM254.038 64.3698C253.54 65.1068 252.866 65.6849 252.018 66.1042C251.178 66.5155 250.184 66.7074 249.037 66.68C248.15 66.6588 247.34 66.4929 246.607 66.1823C245.873 65.8717 245.249 65.4497 244.732 64.9163C244.224 64.3751 243.832 63.7389 243.557 63.0078C243.281 62.2767 243.154 61.4678 243.175 60.581C243.196 59.7186 243.349 58.9245 243.635 58.1987C243.922 57.4648 244.319 56.8434 244.828 56.3346C245.337 55.8177 245.953 55.4213 246.676 55.1456C247.407 54.8619 248.212 54.7306 249.09 54.7516C249.44 54.76 249.797 54.8092 250.161 54.8993C250.526 54.9894 250.868 55.1238 251.19 55.3025C251.511 55.473 251.799 55.6793 252.054 55.9215C252.309 56.1555 252.498 56.4327 252.62 56.7531L252.66 55.1056L254.161 55.1416L254.052 59.6935L252.551 59.6576C252.563 59.1531 252.48 58.6912 252.303 58.2718C252.134 57.8526 251.894 57.4887 251.584 57.1801C251.274 56.8715 250.901 56.6306 250.466 56.4574C250.031 56.276 249.561 56.1793 249.057 56.1672C248.373 56.1508 247.772 56.2545 247.254 56.4782C246.744 56.702 246.313 57.0133 245.962 57.4119C245.611 57.8105 245.339 58.2843 245.146 58.8332C244.963 59.3742 244.863 59.9701 244.847 60.621C244.832 61.2718 244.915 61.8762 245.097 62.4341C245.287 62.9841 245.565 63.4629 245.929 63.8705C246.302 64.2783 246.75 64.6065 247.273 64.8551C247.805 65.1038 248.404 65.2362 249.071 65.2522C249.917 65.2724 250.674 65.1277 251.34 64.8181C252.007 64.5084 252.522 64.0812 252.885 63.5363L254.038 64.3698ZM258.477 61.5211C258.57 62.7281 258.987 63.6986 259.726 64.4326C260.466 65.1667 261.441 65.5482 262.654 65.5772C263.508 65.5977 264.273 65.441 264.948 65.1071C265.624 64.7732 266.135 64.3499 266.481 63.8372L267.633 64.6707C267.044 65.4544 266.35 66.0483 265.551 66.4525C264.752 66.8485 263.775 67.0327 262.62 67.0051C261.741 66.984 260.939 66.8183 260.214 66.5079C259.489 66.1975 258.864 65.7755 258.339 65.242C257.823 64.7005 257.427 64.0642 257.152 63.3331C256.876 62.6021 256.749 61.7931 256.77 60.9063C256.791 60.0439 256.94 59.2538 257.218 58.536C257.504 57.8102 257.901 57.1888 258.41 56.6719C258.927 56.147 259.547 55.7467 260.27 55.4709C260.993 55.187 261.798 55.0557 262.685 55.0769C263.653 55.1001 264.496 55.2831 265.212 55.6258C265.928 55.9686 266.519 56.4345 266.986 57.0236C267.46 57.6048 267.802 58.2968 268.01 59.0995C268.227 59.9025 268.324 60.788 268.301 61.7562L258.477 61.5211ZM266.566 60.286C266.408 59.0368 265.979 58.0985 265.278 57.4712C264.576 56.8439 263.701 56.5177 262.651 56.4925C262.114 56.4797 261.616 56.5573 261.156 56.7254C260.696 56.8853 260.288 57.1238 259.93 57.4409C259.572 57.758 259.27 58.1455 259.023 58.6036C258.776 59.0536 258.614 59.5503 258.536 60.0938L266.566 60.286ZM281.836 61.5062C281.815 62.393 281.657 63.1951 281.363 63.9126C281.069 64.63 280.664 65.2471 280.147 65.7639C279.638 66.2727 279.026 66.6651 278.312 66.941C277.597 67.217 276.8 67.3444 275.921 67.3234C275.319 67.309 274.736 67.1851 274.172 66.9518C273.616 66.7187 273.099 66.3808 272.621 65.9379L272.488 71.5149L270.816 71.4749L271.197 55.5493L272.869 55.5893L272.844 56.6388C273.898 55.7849 275.019 55.3721 276.207 55.4005C277.085 55.4216 277.875 55.587 278.576 55.8968C279.277 56.1985 279.869 56.6238 280.353 57.1726C280.844 57.7135 281.22 58.3574 281.478 59.1044C281.738 59.8432 281.857 60.6438 281.836 61.5062ZM280.164 61.4662C280.179 60.8316 280.104 60.2356 279.938 59.6781C279.781 59.1126 279.532 58.6223 279.192 58.2071C278.852 57.792 278.429 57.4603 277.922 57.2121C277.423 56.9641 276.84 56.8321 276.173 56.8161C275.538 56.801 274.942 56.9047 274.383 57.1274C273.832 57.3503 273.306 57.7203 272.805 58.2374L272.659 64.3392C273.135 64.8797 273.642 65.2704 274.182 65.5112C274.73 65.7523 275.321 65.8804 275.956 65.8956C276.623 65.9115 277.211 65.8076 277.721 65.5837C278.24 65.3601 278.678 65.049 279.038 64.6506C279.398 64.2522 279.669 63.7825 279.853 63.2415C280.045 62.6925 280.149 62.1008 280.164 61.4662ZM285.764 62.1741C285.857 63.3811 286.274 64.3516 287.013 65.0857C287.753 65.8197 288.729 66.2013 289.941 66.2303C290.795 66.2507 291.56 66.094 292.235 65.7601C292.911 65.4263 293.422 65.003 293.768 64.4903L294.92 65.3237C294.331 66.1074 293.637 66.7013 292.838 67.1055C292.039 67.5015 291.062 67.6857 289.907 67.6581C289.028 67.6371 288.226 67.4713 287.501 67.1609C286.776 66.8505 286.151 66.4285 285.626 65.895C285.11 65.3535 284.714 64.7173 284.439 63.9862C284.163 63.2551 284.036 62.4461 284.057 61.5594C284.078 60.697 284.227 59.9069 284.505 59.189C284.791 58.4632 285.188 57.8419 285.697 57.3249C286.214 56.8 286.834 56.3997 287.557 56.124C288.281 55.8401 289.086 55.7087 289.972 55.73C290.94 55.7531 291.783 55.9361 292.499 56.2789C293.215 56.6216 293.806 57.0876 294.273 57.6767C294.747 58.2579 295.089 58.9498 295.297 59.7526C295.514 60.5555 295.611 61.4411 295.588 62.4092L285.764 62.1741ZM293.853 60.939C293.695 59.6898 293.266 58.7515 292.565 58.1242C291.863 57.4969 290.988 57.1707 289.938 57.1456C289.401 57.1327 288.903 57.2103 288.443 57.3784C287.983 57.5384 287.575 57.7769 287.217 58.0939C286.86 58.411 286.557 58.7986 286.31 59.2566C286.063 59.7066 285.901 60.2033 285.823 60.7469L293.853 60.939ZM297.648 66.1339C298.032 66.0617 298.404 65.8508 298.762 65.5012C299.12 65.1516 299.437 64.6626 299.713 64.0342C299.988 63.4059 300.214 62.642 300.391 61.7427C300.575 60.8354 300.681 59.7919 300.71 58.6122L300.766 56.2569L306.978 56.4056L306.74 66.3514L309.022 66.4061L308.894 71.7268L307.393 71.6909L307.486 67.798L299.115 67.5976L299.022 71.4905L297.521 71.4546L297.648 66.1339ZM302.382 58.6522C302.359 59.5959 302.269 60.4811 302.11 61.3076C301.961 62.1262 301.768 62.8583 301.533 63.5039C301.306 64.1497 301.048 64.7052 300.76 65.1705C300.473 65.6276 300.192 65.9668 299.918 66.1882L305.068 66.3114L305.272 57.7934L302.404 57.7247L302.382 58.6522ZM312.127 56.5288L313.799 56.5688L313.58 65.7459L319.95 56.716L322.305 56.7724L322.033 68.1461L320.349 68.1058L320.579 58.5138L313.93 67.9522L311.855 67.9025L312.127 56.5288ZM335.677 68.4726L333.993 68.4323L334.115 63.3312L327.293 63.168L327.171 68.269L325.499 68.229L325.771 56.8553L327.443 56.8953L327.327 61.7401L334.149 61.9034L334.265 57.0586L335.949 57.0989L335.677 68.4726ZM340.338 63.4802C340.432 64.6872 340.848 65.6577 341.587 66.3917C342.327 67.1258 343.303 67.5073 344.515 67.5363C345.369 67.5568 346.134 67.4001 346.81 67.0662C347.485 66.7323 347.996 66.309 348.342 65.7963L349.494 66.6298C348.906 67.4135 348.212 68.0074 347.412 68.4116C346.613 68.8076 345.636 68.9918 344.481 68.9641C343.602 68.9431 342.8 68.7774 342.075 68.467C341.35 68.1566 340.725 67.7346 340.201 67.2011C339.684 66.6596 339.288 66.0233 339.013 65.2922C338.737 64.5611 338.61 63.7522 338.631 62.8654C338.652 62.003 338.801 61.2129 339.079 60.4951C339.365 59.7693 339.762 59.1479 340.271 58.631C340.789 58.1061 341.409 57.7058 342.132 57.43C342.855 57.1461 343.66 57.0148 344.547 57.036C345.515 57.0592 346.357 57.2422 347.073 57.5849C347.789 57.9277 348.381 58.3936 348.847 58.9827C349.321 59.5639 349.663 60.2559 349.872 61.0586C350.089 61.8616 350.185 62.7471 350.162 63.7153L340.338 63.4802ZM348.427 62.2451C348.27 60.9959 347.84 60.0576 347.139 59.4303C346.438 58.803 345.562 58.4768 344.513 58.4516C343.976 58.4388 343.477 58.5164 343.017 58.6845C342.558 58.8444 342.149 59.0829 341.791 59.4C341.434 59.717 341.131 60.1046 340.884 60.5627C340.638 61.0127 340.475 61.5094 340.397 62.0529L348.427 62.2451ZM365.802 58.6925C365.823 57.8057 365.989 57.016 366.298 56.3233C366.608 55.6307 367.025 55.0464 367.549 54.5705C368.082 54.0867 368.705 53.7231 369.419 53.4797C370.133 53.2282 370.901 53.1122 371.723 53.1319C372.837 53.1586 373.776 53.413 374.537 53.8952C375.299 54.3693 375.903 54.9943 376.349 55.7702C376.802 56.5462 377.119 57.4289 377.299 58.4182C377.487 59.4076 377.568 60.4353 377.542 61.501C377.516 62.5831 377.349 63.617 377.041 64.6027C376.732 65.5885 376.288 66.457 375.709 67.2083C375.137 67.9598 374.419 68.5532 373.554 68.9883C372.697 69.4155 371.711 69.6158 370.596 69.5891C369.018 69.5514 367.717 68.9667 366.694 67.8351L367.816 66.8851C368.172 67.3007 368.588 67.6159 369.063 67.8308C369.547 68.0377 370.069 68.1479 370.631 68.1613C371.485 68.1818 372.237 68.037 372.888 67.7269C373.546 67.4171 374.102 66.9786 374.555 66.4115C375.017 65.8364 375.363 65.1446 375.594 64.3361C375.833 63.5197 375.965 62.6192 375.988 61.6348C375.848 62.0466 375.619 62.4319 375.301 62.7906C374.984 63.1493 374.614 63.4579 374.193 63.7165C373.771 63.975 373.31 64.1797 372.81 64.3305C372.318 64.4734 371.837 64.5392 371.365 64.5279C370.535 64.5081 369.773 64.3474 369.081 64.0459C368.388 63.7444 367.795 63.3395 367.303 62.8311C366.818 62.3149 366.442 61.7035 366.174 60.997C365.906 60.2905 365.782 59.5223 365.802 58.6925ZM367.486 58.7328C367.472 59.3348 367.548 59.9024 367.714 60.4355C367.889 60.9607 368.142 61.4185 368.475 61.8091C368.807 62.1997 369.219 62.5107 369.71 62.7422C370.21 62.9658 370.772 63.0851 371.399 63.1001C372.017 63.1149 372.585 63.0308 373.102 62.8478C373.628 62.6569 374.078 62.3868 374.452 62.0376C374.827 61.6884 375.118 61.2639 375.325 60.7642C375.541 60.2565 375.656 59.6935 375.671 59.0752C375.686 58.4732 375.614 57.9057 375.456 57.3728C375.306 56.8319 375.065 56.354 374.733 55.9391C374.409 55.5243 373.993 55.1969 373.486 54.9568C372.988 54.7088 372.388 54.5764 371.689 54.5597C371.087 54.5453 370.531 54.6337 370.022 54.8251C369.521 55.0084 369.083 55.2788 368.708 55.6362C368.333 55.9935 368.038 56.4382 367.821 56.9703C367.613 57.4944 367.502 58.0819 367.486 58.7328ZM380.934 61.6066C380.906 62.7863 381.022 63.8962 381.282 64.9362L388.927 57.2434C388.554 56.5018 388.083 55.9289 387.515 55.5246C386.955 55.1204 386.292 54.9092 385.528 54.8909C384.096 54.8566 382.983 55.4405 382.189 56.6426C381.403 57.8367 380.985 59.4914 380.934 61.6066ZM381.823 66.3045C382.594 67.7557 383.72 68.499 385.201 68.5344C386.6 68.5679 387.701 67.9878 388.503 66.7941C389.305 65.5922 389.731 63.9337 389.782 61.8184C389.796 61.2326 389.773 60.6785 389.712 60.1561C389.651 59.6255 389.562 59.1187 389.443 58.6355L381.823 66.3045ZM379.263 61.5666C379.288 60.5009 379.427 59.4744 379.678 58.4873C379.93 57.5002 380.305 56.63 380.803 55.8768C381.301 55.1235 381.942 54.5283 382.726 54.0912C383.518 53.6462 384.463 53.4368 385.562 53.4631C386.66 53.4894 387.59 53.7436 388.352 54.2258C389.122 54.7001 389.742 55.3255 390.212 56.1019C390.682 56.8784 391.015 57.7655 391.21 58.7633C391.406 59.7611 391.492 60.7929 391.466 61.8587C391.441 62.9245 391.306 63.951 391.063 64.9383C390.819 65.9256 390.448 66.7918 389.95 67.5369C389.452 68.2821 388.807 68.8772 388.015 69.3222C387.231 69.7593 386.282 69.9645 385.167 69.9378C384.053 69.9112 383.11 69.6607 382.34 69.1864C381.579 68.7042 380.963 68.0789 380.493 67.3106C380.031 66.5425 379.706 65.6596 379.518 64.662C379.322 63.6642 379.237 62.6324 379.263 61.5666ZM404.615 64.994L393.241 64.7218L393.275 63.294L404.649 63.5662L404.615 64.994ZM418.404 70.4524L413.706 70.34L413.741 68.8634L414.742 68.8873L412.575 65.5386L410.276 68.7804L411.191 68.8023L411.155 70.2789L406.518 70.168L406.553 68.6913L408.323 68.7337L411.55 64.5128L408.646 60.3406L406.998 60.3011L407.034 58.8001L411.708 58.912L411.672 60.413L410.623 60.3879L412.623 63.5372L414.797 60.4878L413.649 60.4603L413.685 58.9593L418.408 59.0723L418.372 60.5733L416.774 60.5351L413.673 64.5636L416.695 68.934L418.44 68.9758L418.404 70.4524ZM35.7158 82.1251C35.2681 83.482 34.563 84.5437 33.6004 85.3103C32.6378 86.0769 31.4405 86.443 30.0086 86.4088C28.894 86.3821 27.9557 86.1358 27.1935 85.6698C26.4313 85.2039 25.8111 84.5866 25.3329 83.8181C24.8629 83.0498 24.5299 82.1668 24.334 81.169C24.1463 80.1714 24.0651 79.1397 24.0906 78.0739C24.1161 77.0081 24.2465 75.9815 24.4818 74.994C24.7252 74.0067 25.1002 73.1365 25.6066 72.3834C26.1212 71.6305 26.7704 71.0356 27.5542 70.5985C28.3381 70.1532 29.2874 69.9439 30.402 69.9706C31.3864 69.9942 32.2243 70.1892 32.9156 70.5558C33.6069 70.9224 34.1108 71.4676 34.4272 72.1916L34.4716 70.3366L35.8994 70.3708L35.7744 75.5939L34.3466 75.5597C34.36 74.9984 34.2628 74.4669 34.0551 73.9654C33.8556 73.4559 33.5772 73.0138 33.2199 72.6389C32.8625 72.264 32.4341 71.9689 31.9345 71.7534C31.4433 71.53 30.9211 71.4117 30.3679 71.3984C29.5055 71.3778 28.7847 71.564 28.2054 71.9572C27.6343 72.3506 27.17 72.8726 26.8126 73.5234C26.4551 74.1743 26.1935 74.9006 26.0278 75.7026C25.8702 76.5047 25.7818 77.3085 25.7625 78.1139C25.7434 78.9112 25.7933 79.7183 25.9121 80.5352C26.0393 81.3441 26.2661 82.074 26.5924 82.7249C26.9189 83.3677 27.3579 83.9032 27.9093 84.3316C28.469 84.752 29.1801 84.9725 30.0425 84.9932C32.0276 85.0407 33.4392 83.8819 34.2773 81.5168L35.7158 82.1251ZM40.2212 79.5833L44.5779 79.6875C46.0911 79.7238 47.248 80.0242 48.0485 80.5887C48.8574 81.1453 49.2477 82.0135 49.2195 83.1932C49.1911 84.381 48.7634 85.2418 47.9366 85.7755C47.1181 86.3013 45.9523 86.5461 44.439 86.5099L38.3861 86.3651L38.6583 74.9914L40.3302 75.0314L40.2212 79.5833ZM47.5476 83.1531C47.5626 82.5267 47.3016 82.0361 46.7647 81.6814C46.2278 81.3266 45.4875 81.1379 44.5437 81.1154L40.1871 81.0111L40.0921 84.9772L44.4488 85.0815C45.3926 85.1041 46.1412 84.947 46.6946 84.6102C47.2481 84.2734 47.5324 83.7877 47.5476 83.1531ZM52.3018 75.3179L53.9737 75.3579L53.8546 80.3369L56.161 80.3921C56.3912 76.8973 57.5639 75.1752 59.6792 75.2258C61.9491 75.2801 63.0364 77.2965 62.9412 81.2748C62.8462 85.245 61.6637 87.203 59.3939 87.1486C57.246 87.0972 56.1571 85.3169 56.1272 81.8077L53.8207 81.7525L53.7015 86.7316L52.0296 86.6916L52.3018 75.3179ZM59.4263 85.7941C60.5816 85.8217 61.1959 84.3019 61.2693 81.2348C61.3423 78.1839 60.8012 76.6446 59.6459 76.617C58.4988 76.5895 57.8887 78.1013 57.8157 81.1521C57.7423 84.2193 58.2792 85.7666 59.4263 85.7941ZM76.0484 79.0121C76.0351 79.5653 75.8274 80.0813 75.4252 80.5601C75.0314 81.031 74.4342 81.3219 73.6338 81.433C74.3788 81.5974 74.9732 81.9291 75.4172 82.4281C75.8694 82.9192 76.0885 83.4577 76.0745 84.0434C76.0615 84.5885 75.9032 85.0772 75.5998 85.5095C75.2966 85.9337 74.8851 86.2902 74.3654 86.5789C73.8538 86.8679 73.2504 87.0814 72.5551 87.2194C71.8597 87.3656 71.1052 87.4289 70.2916 87.4095C68.9899 87.3783 67.9208 87.1533 67.0842 86.7344C66.256 86.3075 65.5953 85.6812 65.1022 84.8554L66.293 84.078C66.6614 84.6729 67.1754 85.1329 67.8352 85.458C68.4949 85.7832 69.3251 85.9577 70.3258 85.9816C71.5217 86.0103 72.4943 85.8504 73.2434 85.502C74.0006 85.1538 74.387 84.6543 74.4026 84.0034C74.4079 83.7838 74.3399 83.5623 74.1987 83.3392C74.0659 83.1081 73.8632 82.9038 73.5906 82.7263C73.3183 82.5407 72.98 82.3901 72.5758 82.2746C72.1717 82.151 71.6931 82.0826 71.1398 82.0693L69.2361 82.0238L69.27 80.6082L71.1737 80.6537C72.2395 80.6792 73.0331 80.511 73.5546 80.149C74.0845 79.7791 74.3544 79.3867 74.3643 78.9718C74.3787 78.3697 74.0566 77.8817 73.3981 77.5078C72.7476 77.1341 71.8448 76.9334 70.6895 76.9057C69.7295 76.8827 68.9322 77.0346 68.2976 77.3613C67.6629 77.688 67.172 78.1321 66.8248 78.6936L65.6005 77.8096C66.1163 77.0079 66.7858 76.4134 67.6091 76.0261C68.4405 75.639 69.4786 75.4603 70.7234 75.4901C71.5126 75.509 72.2306 75.6076 72.8776 75.7859C73.5329 75.9562 74.097 76.1936 74.57 76.4979C75.0513 76.7944 75.4211 77.1614 75.6792 77.599C75.9376 78.0285 76.0606 78.4995 76.0484 79.0121ZM78.768 84.2544C78.7851 83.5385 78.9784 82.9448 79.3479 82.4733C79.7175 81.9938 80.1945 81.6226 80.7787 81.3598C81.3713 81.0891 82.0433 80.9016 82.7947 80.7975C83.5544 80.6855 84.3248 80.6388 85.1058 80.6575C85.4069 80.6647 85.6752 80.6752 85.911 80.6889C86.1549 80.7029 86.3824 80.7206 86.5935 80.7419C86.8128 80.7634 87.032 80.789 87.251 80.8187C87.4701 80.8484 87.7094 80.8826 87.969 80.9213L87.9886 80.1037C88.0018 79.5505 87.8907 79.092 87.6552 78.7282C87.4278 78.3645 87.1416 78.0768 86.7967 77.8651C86.4519 77.6452 86.0893 77.49 85.7089 77.3995C85.3286 77.3008 85.0043 77.2483 84.7358 77.2419C83.8897 77.2216 83.1059 77.3168 82.3845 77.5275C81.6631 77.7382 80.9887 78.0273 80.3613 78.3949L79.6347 77.1198C80.328 76.7212 81.1009 76.4019 81.9532 76.1618C82.8139 75.9138 83.7527 75.8019 84.7697 75.8263C85.388 75.8411 85.9921 75.9369 86.5822 76.1138C87.1805 76.2828 87.7116 76.5397 88.1755 76.8846C88.6477 77.2215 89.0198 77.6619 89.2917 78.2056C89.5636 78.7494 89.6906 79.3955 89.6727 80.144L89.4945 87.5882L87.8104 87.5479L87.856 85.6441C87.5543 86.0032 87.2131 86.3166 86.8322 86.5842C86.4595 86.8521 86.0676 87.0706 85.6565 87.2399C85.2457 87.401 84.8358 87.5214 84.4268 87.6012C84.0177 87.6891 83.6301 87.7287 83.264 87.7199C81.7589 87.6839 80.6268 87.3678 79.8677 86.7717C79.1087 86.1755 78.7421 85.3365 78.768 84.2544ZM83.2982 86.2921C83.9978 86.3088 84.6267 86.2221 85.1848 86.032C85.7512 85.8339 86.2334 85.5849 86.6313 85.2851C87.0292 84.9853 87.3381 84.663 87.558 84.3182C87.7861 83.9737 87.9035 83.659 87.9103 83.3743L87.936 82.3003C87.3929 82.2059 86.8692 82.1486 86.365 82.1284C85.8689 82.1084 85.4378 82.094 85.0717 82.0853C84.4696 82.0709 83.887 82.0976 83.3236 82.1655C82.7685 82.2337 82.2812 82.3563 81.8618 82.5335C81.4426 82.7026 81.1034 82.9305 80.8442 83.2174C80.5849 83.5042 80.4502 83.8632 80.4399 84.2944C80.4284 84.7744 80.6496 85.2234 81.1036 85.6413C81.566 86.0512 82.2975 86.2681 83.2982 86.2921ZM103.138 87.9147L101.454 87.8744L101.576 82.7733L94.7543 82.61L94.6322 87.7111L92.9603 87.6711L93.2325 76.2974L94.9044 76.3374L94.7884 81.1822L101.61 81.3455L101.726 76.5007L103.41 76.541L103.138 87.9147ZM130.806 72.6421L130.425 88.5677L128.741 88.5274L129.088 74.0296L123.95 73.9067L123.664 85.8783C123.653 86.3258 123.566 86.7226 123.403 87.0687C123.249 87.4151 123.042 87.7032 122.784 87.9331C122.527 88.163 122.229 88.3349 121.893 88.449C121.556 88.5712 121.205 88.6279 120.839 88.6191C120.155 88.6028 119.657 88.4891 119.345 88.2781L119.706 86.9558C119.818 87.0318 119.943 87.0877 120.081 87.1235C120.226 87.1596 120.417 87.1804 120.653 87.1861C121.516 87.2067 121.958 86.7574 121.98 85.838L122.3 72.4385L130.806 72.6421ZM135.087 83.5753C135.18 84.7823 135.597 85.7528 136.336 86.4869C137.076 87.2209 138.051 87.6024 139.264 87.6314C140.118 87.6519 140.883 87.4952 141.558 87.1613C142.234 86.8274 142.744 86.4042 143.09 85.8915L144.243 86.7249C143.654 87.5086 142.96 88.1025 142.161 88.5067C141.362 88.9027 140.385 89.0869 139.229 89.0593C138.351 89.0382 137.549 88.8725 136.824 88.5621C136.098 88.2517 135.474 87.8297 134.949 87.2962C134.433 86.7547 134.037 86.1184 133.761 85.3873C133.486 84.6563 133.359 83.8473 133.38 82.9605C133.401 82.0982 133.55 81.308 133.827 80.5902C134.113 79.8644 134.511 79.243 135.02 78.7261C135.537 78.2012 136.157 77.8009 136.88 77.5251C137.603 77.2413 138.408 77.1099 139.295 77.1311C140.263 77.1543 141.105 77.3373 141.822 77.68C142.538 78.0228 143.129 78.4887 143.595 79.0779C144.07 79.659 144.412 80.351 144.62 81.1537C144.837 81.9567 144.934 82.8422 144.911 83.8104L135.087 83.5753ZM143.175 82.3402C143.018 81.091 142.589 80.1527 141.887 79.5254C141.186 78.8981 140.311 78.5719 139.261 78.5468C138.724 78.5339 138.226 78.6115 137.766 78.7796C137.306 78.9395 136.898 79.1781 136.54 79.4951C136.182 79.8122 135.88 80.1997 135.633 80.6578C135.386 81.1078 135.224 81.6045 135.146 82.1481L143.175 82.3402ZM152.054 77.7051L153.738 77.7454L153.5 87.6913L156.673 87.7672L156.911 77.8213L158.582 77.8614L158.31 89.2351L146.937 88.9629L147.209 77.5892L148.881 77.6292L148.643 87.5751L151.816 87.651L152.054 77.7051ZM175.094 78.2565L176.766 78.2965L176.546 87.4736L182.916 78.4437L185.272 78.5001L184.999 89.8738L183.315 89.8335L183.545 80.2415L176.896 89.6799L174.822 89.6302L175.094 78.2565ZM201.545 88.8411C202.018 88.4536 202.439 88.0363 202.808 87.5892C203.177 87.1341 203.493 86.527 203.755 85.7681C204.018 85.0092 204.224 84.0414 204.374 82.8646C204.533 81.6799 204.634 80.1723 204.678 78.3418L204.772 74.4122L210.984 74.5609L210.637 89.0587L212.919 89.1133L212.791 94.434L211.29 94.3981L211.383 90.5052L203.012 90.3048L202.919 94.1978L201.418 94.1619L201.545 88.8411ZM206.35 78.3818C206.316 79.8137 206.236 81.0776 206.113 82.1736C205.997 83.2698 205.827 84.2425 205.603 85.0919C205.388 85.9334 205.11 86.6634 204.769 87.2821C204.429 87.9007 204.021 88.4364 203.546 88.889L208.965 89.0187L209.277 75.9487L206.41 75.8801L206.35 78.3818ZM218.715 84.148L224.927 84.2967C224.79 83.2107 224.364 82.3132 223.648 81.6042C222.933 80.8951 221.973 80.5262 220.769 80.4974C219.923 80.4771 219.166 80.6259 218.499 80.9437C217.832 81.2615 217.317 81.6928 216.954 82.2377L215.802 81.4042C216.3 80.6672 216.969 80.089 217.809 79.6695C218.658 79.2502 219.655 79.0543 220.802 79.0818C221.689 79.103 222.499 79.2689 223.233 79.5795C223.966 79.882 224.587 80.3038 225.095 80.8451C225.611 81.3785 226.007 82.0188 226.282 82.7662C226.558 83.5054 226.685 84.3143 226.664 85.193C226.643 86.0798 226.477 86.8817 226.167 87.5988C225.856 88.3158 225.431 88.9325 224.889 89.4486C224.356 89.9568 223.716 90.3485 222.968 90.6237C222.221 90.8989 221.404 91.0258 220.517 91.0046C219.37 90.9772 218.383 90.7378 217.555 90.2866C216.736 89.8274 216.095 89.2178 215.633 88.4578L216.824 87.6804C217.16 88.242 217.654 88.6934 218.305 89.0346C218.957 89.3758 219.705 89.5566 220.551 89.5768C221.804 89.6068 222.814 89.2606 223.58 88.5381C224.346 87.8157 224.804 86.8783 224.954 85.726L218.681 85.5758L218.715 84.148ZM240.225 87.9474C240.199 89.0457 239.772 89.8536 238.946 90.3711C238.128 90.8807 236.962 91.1173 235.449 91.0811L229.396 90.9363L229.668 79.5626L235.343 79.6984C235.896 79.7116 236.44 79.7694 236.975 79.8717C237.518 79.9661 237.998 80.1282 238.416 80.358C238.834 80.5797 239.173 80.8849 239.432 81.2737C239.691 81.6625 239.814 82.1661 239.799 82.7844C239.785 83.3702 239.631 83.859 239.336 84.2508C239.042 84.6426 238.478 84.9344 237.643 85.126C238.654 85.3863 239.341 85.7528 239.704 86.2255C240.068 86.69 240.241 87.264 240.225 87.9474ZM238.125 82.842C238.133 82.4922 238.046 82.2092 237.864 81.9932C237.682 81.7691 237.454 81.5968 237.181 81.4762C236.915 81.3478 236.616 81.2592 236.283 81.2106C235.951 81.1619 235.626 81.1338 235.309 81.1262L231.306 81.0304L231.227 84.3009L235.23 84.3967C235.564 84.4047 235.902 84.3925 236.245 84.36C236.587 84.3275 236.898 84.2535 237.178 84.1381C237.458 84.0145 237.681 83.853 237.849 83.6535C238.025 83.4461 238.117 83.1756 238.125 82.842ZM238.555 87.8342C238.571 87.1671 238.31 86.6724 237.772 86.3502C237.234 86.028 236.494 85.8556 235.55 85.833L231.193 85.7288L231.102 89.5485L235.459 89.6527C236.402 89.6753 237.151 89.5345 237.703 89.2302C238.256 88.926 238.54 88.4606 238.555 87.8342ZM243.312 79.8891L244.983 79.9291L244.764 89.1062L251.134 80.0763L253.489 80.1327L253.217 91.5063L251.533 91.466L251.763 81.8741L245.114 91.3124L243.039 91.2628L243.312 79.8891ZM256.119 90.1472C256.503 90.075 256.875 89.8641 257.233 89.5145C257.592 89.1649 257.909 88.6759 258.184 88.0475C258.46 87.4192 258.686 86.6553 258.862 85.756C259.046 84.8487 259.153 83.8052 259.181 82.6255L259.237 80.2702L265.449 80.4189L265.211 90.3647L267.493 90.4194L267.366 95.7401L265.864 95.7042L265.958 91.8113L257.586 91.6109L257.493 95.5038L255.992 95.4679L256.119 90.1472ZM260.853 82.6655C260.83 83.6092 260.74 84.4944 260.582 85.3209C260.432 86.1395 260.239 86.8716 260.004 87.5172C259.777 88.163 259.519 88.7185 259.231 89.1838C258.944 89.6409 258.663 89.9801 258.389 90.2015L263.539 90.3247L263.743 81.8067L260.875 81.738L260.853 82.6655ZM281.53 86.5305C281.509 87.4173 281.347 88.2193 281.045 88.9365C280.751 89.654 280.334 90.2667 279.793 90.7748C279.26 91.2749 278.624 91.6626 277.884 91.9379C277.145 92.2133 276.324 92.3402 275.421 92.3186C274.534 92.2973 273.728 92.1315 273.003 91.8211C272.278 91.5107 271.657 91.0929 271.14 90.5677C270.632 90.0346 270.244 89.4025 269.977 88.6716C269.717 87.941 269.598 87.1322 269.62 86.2454C269.64 85.383 269.798 84.585 270.092 83.8513C270.395 83.1096 270.813 82.4846 271.346 81.9764C271.887 81.4602 272.528 81.0645 273.267 80.7891C274.006 80.5056 274.819 80.3745 275.706 80.3957C276.609 80.4173 277.423 80.5874 278.148 80.9059C278.874 81.2164 279.49 81.6422 279.998 82.1835C280.515 82.7168 280.902 83.361 281.161 84.1161C281.428 84.8633 281.551 85.6681 281.53 86.5305ZM279.858 86.4905C279.874 85.8396 279.791 85.2393 279.609 84.6895C279.435 84.1318 279.166 83.641 278.801 83.2171C278.437 82.7933 277.989 82.4569 277.458 82.2082C276.935 81.9596 276.339 81.8273 275.672 81.8113C275.005 81.7954 274.4 81.8989 273.858 82.122C273.323 82.3453 272.868 82.66 272.492 83.0662C272.116 83.4723 271.824 83.9497 271.615 84.4982C271.415 85.0388 271.307 85.6346 271.292 86.2854C271.276 86.9363 271.355 87.5406 271.529 88.0983C271.711 88.648 271.981 89.1266 272.337 89.534C272.694 89.9414 273.134 90.2654 273.657 90.5058C274.189 90.7465 274.788 90.8748 275.455 90.8908C276.122 90.9067 276.723 90.8071 277.257 90.592C277.8 90.377 278.263 90.0747 278.646 89.685C279.03 89.2953 279.322 88.8302 279.522 88.2896C279.731 87.741 279.843 87.1413 279.858 86.4905ZM294.148 92.4859L292.464 92.4456L292.68 83.4272L289.744 89.2546L288.548 89.226L285.858 83.2639L285.642 92.2823L283.97 92.2423L284.242 80.8686L286.414 80.9206L289.201 86.9216L292.248 81.0602L294.42 81.1122L294.148 92.4859ZM34.7033 95.3493L34.3222 111.275L32.6381 111.235L32.985 96.7368L27.8473 96.6139L27.5608 108.586C27.5501 109.033 27.4633 109.43 27.3004 109.776C27.1455 110.122 26.9392 110.41 26.6814 110.64C26.4235 110.87 26.1263 111.042 25.7899 111.156C25.4532 111.278 25.1018 111.335 24.7357 111.326C24.0523 111.31 23.5544 111.196 23.2419 110.985L23.6033 109.663C23.7154 109.739 23.8403 109.795 23.9778 109.831C24.1234 109.867 24.3142 109.888 24.5502 109.893C25.4126 109.914 25.8548 109.465 25.8768 108.545L26.1974 95.1458L34.7033 95.3493ZM37.2392 108.268C37.2563 107.552 37.4496 106.958 37.8191 106.487C38.1887 106.007 38.6657 105.636 39.2499 105.373C39.8425 105.102 40.5145 104.915 41.2659 104.811C42.0257 104.699 42.796 104.652 43.5771 104.671C43.8781 104.678 44.1465 104.688 44.3822 104.702C44.6261 104.716 44.8536 104.734 45.0647 104.755C45.284 104.777 45.5032 104.802 45.7223 104.832C45.9413 104.862 46.1807 104.896 46.4402 104.935L46.4598 104.117C46.473 103.564 46.3619 103.105 46.1264 102.741C45.899 102.378 45.6129 102.09 45.2679 101.878C44.9231 101.658 44.5605 101.503 44.1801 101.413C43.7998 101.314 43.4755 101.262 43.207 101.255C42.3609 101.235 41.5771 101.33 40.8558 101.541C40.1344 101.751 39.4599 102.041 38.8325 102.408L38.1059 101.133C38.7993 100.735 39.5721 100.415 40.4244 100.175C41.2851 99.9271 42.2239 99.8152 43.2409 99.8396C43.8592 99.8543 44.4634 99.9502 45.0534 100.127C45.6517 100.296 46.1828 100.553 46.6467 100.898C47.1189 101.235 47.491 101.675 47.7629 102.219C48.0348 102.763 48.1618 103.409 48.1439 104.157L47.9657 111.601L46.2816 111.561L46.3272 109.657C46.0255 110.017 45.6843 110.33 45.3034 110.598C44.9307 110.865 44.5388 111.084 44.1277 111.253C43.7169 111.414 43.307 111.535 42.898 111.615C42.4889 111.702 42.1013 111.742 41.7352 111.733C40.2301 111.697 39.098 111.381 38.3389 110.785C37.5799 110.189 37.2133 109.35 37.2392 108.268ZM41.7694 110.305C42.469 110.322 43.0979 110.235 43.656 110.045C44.2224 109.847 44.7046 109.598 45.1025 109.298C45.5004 108.999 45.8093 108.676 46.0292 108.332C46.2573 107.987 46.3747 107.672 46.3815 107.388L46.4072 106.314C45.8641 106.219 45.3404 106.162 44.8362 106.142C44.3401 106.122 43.909 106.107 43.5429 106.099C42.9408 106.084 42.3582 106.111 41.7949 106.179C41.2397 106.247 40.7524 106.37 40.333 106.547C39.9138 106.716 39.5746 106.944 39.3154 107.231C39.0562 107.518 38.9214 107.877 38.9111 108.308C38.8996 108.788 39.1208 109.237 39.5748 109.655C40.0372 110.064 40.7687 110.281 41.7694 110.305ZM61.6093 111.928L59.9252 111.888L60.141 102.869L57.2053 108.697L56.0094 108.668L53.3192 102.706L53.1034 111.724L51.4315 111.684L51.7037 100.311L53.8759 100.363L56.6629 106.364L59.7092 100.502L61.8815 100.554L61.6093 111.928ZM75.8264 112.268L73.4467 112.211L68.9192 106.999L66.8241 108.829L66.747 112.051L65.0751 112.011L65.3473 100.637L67.0192 100.677L66.8725 106.803L73.4992 100.832L75.8911 100.89L70.0671 105.976L75.8264 112.268ZM78.9908 100.964L80.6627 101.004L80.4431 110.181L86.8133 101.151L89.1686 101.207L88.8964 112.581L87.2123 112.541L87.4418 102.949L80.7932 112.387L78.7186 112.337L78.9908 100.964ZM102.54 112.908L100.856 112.867L100.978 107.766L94.1561 107.603L94.0341 112.704L92.3622 112.664L92.6344 101.29L94.3063 101.33L94.1903 106.175L101.012 106.338L101.128 101.494L102.812 101.534L102.54 112.908ZM116.406 111.09C115.908 111.827 115.235 112.405 114.386 112.825C113.546 113.236 112.552 113.428 111.405 113.401C110.518 113.379 109.708 113.213 108.975 112.903C108.242 112.592 107.617 112.17 107.1 111.637C106.592 111.096 106.201 110.459 105.925 109.728C105.65 108.997 105.522 108.188 105.544 107.302C105.564 106.439 105.718 105.645 106.004 104.919C106.29 104.185 106.687 103.564 107.196 103.055C107.705 102.538 108.321 102.142 109.044 101.866C109.775 101.582 110.58 101.451 111.459 101.472C111.808 101.48 112.165 101.53 112.53 101.62C112.894 101.71 113.237 101.844 113.558 102.023C113.879 102.193 114.168 102.4 114.422 102.642C114.677 102.876 114.866 103.153 114.988 103.474L115.028 101.826L116.529 101.862L116.42 106.414L114.919 106.378C114.931 105.874 114.848 105.412 114.671 104.992C114.502 104.573 114.263 104.209 113.953 103.901C113.642 103.592 113.27 103.351 112.834 103.178C112.399 102.997 111.929 102.9 111.425 102.888C110.741 102.871 110.141 102.975 109.622 103.199C109.112 103.423 108.682 103.734 108.33 104.132C107.979 104.531 107.707 105.005 107.515 105.554C107.331 106.095 107.231 106.691 107.215 107.342C107.2 107.992 107.283 108.597 107.465 109.155C107.655 109.705 107.933 110.183 108.298 110.591C108.671 110.999 109.119 111.327 109.642 111.576C110.173 111.824 110.772 111.957 111.439 111.973C112.285 111.993 113.042 111.848 113.709 111.539C114.375 111.229 114.89 110.802 115.253 110.257L116.406 111.09ZM130.853 107.932C130.832 108.818 130.67 109.62 130.368 110.338C130.074 111.055 129.657 111.668 129.115 112.176C128.582 112.676 127.946 113.064 127.207 113.339C126.468 113.614 125.647 113.741 124.744 113.72C123.857 113.699 123.051 113.533 122.326 113.222C121.6 112.912 120.98 112.494 120.463 111.969C119.955 111.436 119.567 110.804 119.3 110.073C119.04 109.342 118.921 108.533 118.942 107.647C118.963 106.784 119.121 105.986 119.415 105.252C119.718 104.511 120.135 103.886 120.669 103.378C121.21 102.861 121.85 102.466 122.59 102.19C123.329 101.907 124.142 101.776 125.029 101.797C125.932 101.819 126.746 101.989 127.471 102.307C128.196 102.618 128.813 103.043 129.321 103.585C129.837 104.118 130.225 104.762 130.484 105.517C130.751 106.264 130.874 107.069 130.853 107.932ZM129.181 107.892C129.197 107.241 129.113 106.64 128.931 106.091C128.757 105.533 128.488 105.042 128.124 104.618C127.76 104.194 127.312 103.858 126.781 103.609C126.257 103.361 125.662 103.228 124.995 103.212C124.328 103.197 123.723 103.3 123.181 103.523C122.646 103.746 122.191 104.061 121.815 104.467C121.439 104.873 121.146 105.351 120.938 105.899C120.738 106.44 120.63 107.036 120.614 107.687C120.599 108.337 120.678 108.942 120.852 109.499C121.034 110.049 121.303 110.528 121.66 110.935C122.017 111.343 122.457 111.667 122.98 111.907C123.511 112.148 124.111 112.276 124.778 112.292C125.445 112.308 126.046 112.208 126.58 111.993C127.122 111.778 127.585 111.476 127.969 111.086C128.353 110.697 128.645 110.231 128.845 109.691C129.054 109.142 129.166 108.542 129.181 107.892ZM143.471 113.887L141.787 113.847L142.002 104.828L139.067 110.656L137.871 110.627L135.181 104.665L134.965 113.684L133.293 113.644L133.565 102.27L135.737 102.322L138.524 108.323L141.571 102.461L143.743 102.513L143.471 113.887ZM153.16 114.119L150.89 114.065L150.945 111.795L153.215 111.849L153.16 114.119Z" fill="white"/>
</svg>
