<svg width="446" height="719" viewBox="0 0 446 719" fill="none" xmlns="http://www.w3.org/2000/svg">
<path d="M189.399 62.1531C189.935 64.5759 192.347 84.6861 194.708 104.988M189.399 62.1531C139.04 76.0907 38.006 103.767 36.7426 102.971M189.399 62.1531L176.766 54.2207L21.4769 93.3537M46.7442 184.312L198.348 136.717C197.391 128.255 196.058 116.59 194.708 104.988M46.7442 184.312L35.1634 159.986L2 138.833V113.449L21.4769 93.3537M46.7442 184.312L70.9588 166.86L66.8045 121.91M21.4769 93.3537L36.7426 102.971M194.708 104.988L83.5924 132.487L66.8045 121.91M36.7426 102.971L66.8045 121.91M42.0066 123.497C46.0424 121.91 50.4291 120.324 55.6931 122.968C63.0175 126.647 65.6947 133.016 66.2212 143.592C66.7213 153.641 64.1155 163.159 60.4307 165.803C56.7459 168.447 47.7971 168.976 42.533 162.101C37.269 155.226 36.7426 150.996 35.6898 143.592C34.722 136.786 35.6898 134.073 36.7426 130.9C37.7029 128.006 38.3218 124.945 42.0066 123.497ZM45.165 150.467C46.3933 152.406 48.3871 157.87 52.5347 157.87C57.2723 157.87 58.8515 153.111 59.9043 149.938C60.6062 147.118 60.9571 141.477 58.3251 136.717C55.6931 131.958 52.0083 130.371 49.3763 131.429C46.7442 132.487 44.1122 136.189 44.1122 140.419C44.1122 143.804 43.9368 148.528 45.165 150.467Z" stroke="black" stroke-width="4"/>
<path d="M119.97 161.527L135.229 185.444M135.229 185.444L159.958 177.645V158.407M135.229 185.444L137.86 200.523L210.468 209.362L202.576 167.246L159.958 158.407M159.958 149.568V158.407" stroke="black" stroke-width="4"/>
<path d="M204.124 491.38C204.899 493.726 213.078 512.151 221.398 530.714M204.124 491.38C254.473 477.508 355.34 449.433 356.019 448.106M204.124 491.38L210.93 478.131L364.226 432.068M388.889 522.756L234.444 559.699C230.953 551.976 226.152 541.322 221.398 530.714M388.889 522.756L386.435 496.033L404.132 460.97L391.194 439.273L364.226 432.068M388.889 522.756L359.201 520.238L339.857 479.687M364.226 432.068L356.019 448.106M221.398 530.714L330.832 497.324L339.857 479.687M356.019 448.106L339.857 479.687M361.96 468.346C357.686 469.056 353.111 469.946 349.938 474.902C345.524 481.797 346.471 488.612 351.409 497.922C356.102 506.768 363.19 513.569 367.702 513.943C372.214 514.316 380.168 510.186 381.185 501.614C382.201 493.042 380.497 489.157 377.627 482.289C374.99 475.976 372.776 474.152 370.254 471.979C367.955 469.997 365.863 467.697 361.96 468.346ZM372.995 493.017C372.928 495.303 374.001 500.995 370.44 503.119C366.371 505.545 362.589 502.285 360.068 500.112C358.028 498.061 354.851 493.419 354.686 488.003C354.52 482.587 356.876 479.344 359.675 478.9C362.474 478.456 366.621 480.273 368.778 483.889C370.503 486.782 373.061 490.731 372.995 493.017Z" stroke="black" stroke-width="4"/>
<path d="M314.918 540.514L314.208 569.124M314.208 569.124L288.919 575.012L278.946 558.287M314.208 569.124L319.764 583.581L261.965 628.462L246.913 587.804L278.946 558.287M274.364 550.602L278.946 558.287" stroke="black" stroke-width="4"/>
<path d="M201.751 518.797C202.203 521.225 203.921 541.311 205.582 561.585M201.751 518.797C150.952 530.919 49.0467 554.954 47.8118 554.119M201.751 518.797L189.4 510.471L32.8892 544.025M55.0067 635.368L208.127 593.27C207.461 584.82 206.531 573.172 205.582 561.585M55.0067 635.368L44.2721 610.772L11.8632 588.587L12.7365 563.34L32.8892 544.025M55.0067 635.368L79.8023 618.847L77.1979 573.995M32.8892 544.025L47.8118 554.119M205.582 561.585L93.6085 585.095L77.1979 573.995M47.8118 554.119L77.1979 573.995M52.3653 574.716C56.4525 573.278 60.8902 571.851 66.059 574.663C73.251 578.576 75.707 585.002 75.869 595.54C76.023 605.553 73.0919 614.929 69.319 617.431C65.5462 619.934 56.5863 620.15 51.5631 613.131C46.5398 606.111 46.1594 601.885 45.3622 594.485C44.6293 587.682 45.6897 585.017 46.8508 581.898C47.9099 579.052 48.6336 576.029 52.3653 574.716ZM54.5933 601.65C55.7538 603.621 57.558 609.125 61.7023 609.269C66.4361 609.432 68.1778 604.753 69.3389 601.634C70.1373 598.853 70.682 593.254 68.2159 588.43C65.7497 583.605 62.1224 581.899 59.4561 582.86C56.7899 583.821 54.0326 587.412 53.887 591.62C53.7706 594.986 53.4327 599.679 54.5933 601.65Z" stroke="black" stroke-width="4"/>
<path d="M128.374 615.262L142.79 639.984M142.79 639.984L167.784 632.95L168.458 613.489M142.79 639.984L144.893 655.329L217.169 666.781L210.753 623.904L168.458 613.489M168.767 604.547L168.458 613.489" stroke="black" stroke-width="4"/>
<path d="M218.549 27.2927V102.702L297.8 95.3193M218.549 27.2927L304.099 14.6366M218.549 27.2927L227.471 18.3279L319.844 2.50781M297.8 95.3193L304.099 14.6366M297.8 95.3193L368.655 100.065L372.329 67.8977M304.099 14.6366L319.844 2.50781M304.099 14.6366L372.329 27.2927V67.8977M319.844 2.50781L383.875 8.83587L392.273 33.6207L372.329 67.8977M335.589 32.5661C341.013 34.3239 349.13 38.5777 350.81 47.8589C352.909 59.4603 348.186 73.1711 338.738 76.8624C329.291 80.5538 322.993 77.5926 317.745 74.7531C310.922 71.0617 307.248 59.9876 307.773 53.1322C308.297 46.2769 311.102 39.4761 316.695 35.7301C321.419 32.5661 329.816 31.5114 335.589 32.5661ZM328.766 46.2769C334.015 46.2769 337.689 49.2299 337.689 54.7143C337.689 61.5696 332.965 64.2063 329.291 64.7337C325.617 65.261 320.369 61.0423 319.844 56.2963C319.424 52.4994 323.518 46.2769 328.766 46.2769Z" stroke="black" stroke-width="4"/>
<path d="M255.559 99.671C258.876 109.475 265.825 129.083 267.082 129.083M267.082 129.083C268.144 129.083 281.244 130.082 290.653 130.815M267.082 129.083L223.608 145.89L212.084 191.583L252.94 182.129L295.367 131.184M295.367 131.184L316.319 97.0449M295.367 131.184C293.985 131.075 292.381 130.949 290.653 130.815M295.367 131.184L290.653 130.815" stroke="black" stroke-width="4"/>
<path d="M270.109 187.726L254.179 261.281L333.409 270.901M270.109 187.726L356.625 193.539M270.109 187.726L280.748 180.876L374.619 185.051M333.409 270.901L356.625 193.539M333.409 270.901L401.846 290.57L412.242 259.973M356.625 193.539L374.619 185.051M356.625 193.539L420.82 220.366L412.242 259.973M374.619 185.051L436.035 204.814L439.029 230.772L412.242 259.973M383.7 217.712C388.644 220.578 395.701 226.45 395.386 235.859C394.993 247.621 387.467 259.992 377.429 261.588C367.39 263.183 361.843 258.958 357.299 255.074C351.392 250.025 350.131 238.444 352.094 231.868C354.056 225.293 358.242 219.255 364.514 216.788C369.812 214.704 378.265 215.458 383.7 217.712ZM374.117 229.638C379.26 230.752 382.237 234.412 381.079 239.761C379.63 246.448 374.444 248.017 370.732 247.752C367.02 247.486 362.768 242.257 363.256 237.517C363.646 233.724 368.973 228.524 374.117 229.638Z" stroke="black" stroke-width="4"/>
<path d="M291.368 266.105C292.546 276.412 295.211 297.093 296.446 297.361M296.446 297.361C297.489 297.587 310.14 301.352 319.225 304.07M296.446 297.361L250.188 304.574L229.18 346.874L271.306 346.304L323.776 305.434M323.776 305.434L351.592 276.456M323.776 305.434C322.442 305.033 320.894 304.569 319.225 304.07M323.776 305.434L319.225 304.07" stroke="black" stroke-width="4"/>
<path d="M183.264 288.931L207.333 360.239L129.679 378.673M183.264 288.931L97.9439 304.398M183.264 288.931L171.926 283.315L79.113 297.978M129.679 378.673L97.9439 304.398M129.679 378.673L63.8753 405.882L50.1178 376.642M97.9439 304.398L79.113 297.978M97.9439 304.398L37.1579 338.246L50.1178 376.642M79.113 297.978L20.2966 324.496L20.2287 350.625L50.1178 376.642M73.747 331.451C69.1552 334.852 62.8004 341.478 64.1669 350.793C65.8751 362.436 74.7391 373.887 84.8931 374.348C95.0471 374.809 100.086 369.989 104.166 365.621C109.47 359.942 109.427 348.292 106.74 341.978C104.053 335.664 99.2175 330.132 92.7085 328.383C87.2107 326.906 78.8956 328.602 73.747 331.451ZM84.6056 342.228C79.619 343.911 77.071 347.881 78.8214 353.067C81.0094 359.55 86.3389 360.529 89.9978 359.849C93.6567 359.169 97.2968 353.497 96.2806 348.841C95.4677 345.116 89.5922 340.545 84.6056 342.228Z" stroke="black" stroke-width="4"/>
<path d="M170.918 369.195C170.902 379.57 170.57 400.419 169.373 400.823M169.373 400.823C168.362 401.164 156.211 406.323 147.489 410.041M169.373 400.823L216.147 402.81L241.761 442.491L199.836 446.643L143.119 411.906M143.119 411.906L112.232 386.226M143.119 411.906C144.4 411.359 145.886 410.725 147.489 410.041M143.119 411.906L147.489 410.041" stroke="black" stroke-width="4"/>
<path d="M202.388 167.342V146.159C207.324 142.276 220.896 134.615 235.702 135.038C250.508 135.462 251.037 136.274 249.45 136.627" stroke="black" stroke-width="4"/>
<path d="M266.222 166.535V205.32" stroke="black" stroke-width="4"/>
<path d="M202.756 209.361L201.58 341.964L208.044 360.381L203.343 361.434L201.58 402.478" stroke="black" stroke-width="4"/>
<path d="M202.388 446.918V518.832" stroke="black" stroke-width="4"/>
<path d="M201.58 596.4V620.641" stroke="black" stroke-width="4"/>
<path d="M201.58 664.275V767.702" stroke="black" stroke-width="4"/>
<path d="M263.798 262.689V302.282" stroke="black" stroke-width="4"/>
<path d="M264.605 346.723V461.461" stroke="black" stroke-width="4"/>
<path d="M266.222 551.959V569.735" stroke="black" stroke-width="4"/>
<path d="M267.03 625.488V768.507" stroke="black" stroke-width="4"/>
</svg>
