<svg width="584" height="538" viewBox="0 0 584 538" fill="none" xmlns="http://www.w3.org/2000/svg">
<rect x="166.5" y="348.5" width="251.148" height="47.957" rx="11.5" fill="black" stroke="white" stroke-width="3"/>
<path d="M353.541 347.955V397.638" stroke="white" stroke-width="3"/>
<rect x="360" y="380" width="48" height="8" rx="4" fill="white"/>
<path d="M83.8871 435.62H408.639M83.8871 435.62L23.1708 435.103M83.8871 435.62C83.8871 446.76 83.8871 462.414 83.8871 477.704M408.639 435.62C408.772 438.827 408.639 445.56 413.433 446.843C416.628 447.698 439.397 447.645 442.592 446.843C445.788 446.041 448.185 441.631 447.785 438.024C447.694 437.197 447.455 436.385 447.094 435.62M408.639 435.62C408.639 433.616 411.385 431.105 414.631 430.809C419.025 430.408 434.204 430.408 440.196 430.809C443.275 431.015 445.879 433.047 447.094 435.62M447.094 435.62H499.714M562.028 435.62V525.001C562.294 528.475 560.27 535.502 550.044 535.823C539.818 536.144 520.219 535.957 511.697 535.823C507.702 535.689 499.714 533.578 499.714 526.203C499.714 521.74 499.714 499.432 499.714 476.502M562.028 435.62H499.714M562.028 435.62C565.756 426.935 573.691 408.123 575.609 402.351M499.714 435.62C499.714 446.326 499.714 461.547 499.714 476.502M23.1708 435.103C23.1708 462.797 23.1708 519.79 23.1708 526.203C23.1708 532.616 28.2305 534.488 30.7603 534.622H75.8981C78.5611 534.622 83.8871 533.339 83.8871 528.209C83.8871 525.068 83.8871 501.839 83.8871 477.704M23.1708 435.103L10.3884 403.553M83.8871 477.704C87.6152 477.704 95.8705 477.063 99.0661 474.498C102.262 471.933 105.99 468.619 107.455 467.283H112.647V473.696C113.18 475.166 115.044 478.105 118.24 478.105C121.435 478.105 123.299 475.166 123.832 473.696V466.882H254.052C255.65 464.878 259.085 460.389 260.044 458.465C261.242 456.06 262.84 454.457 264.837 454.457C266.835 454.457 273.625 465.68 276.022 468.085C278.419 470.49 290.802 480.51 302.386 479.709C313.97 478.907 330.747 467.283 333.543 462.073C336.339 456.862 337.937 453.255 340.333 453.255C342.251 453.255 346.192 461.271 347.923 465.279H459.769V472.895C460.168 474.097 461.926 476.502 465.76 476.502C469.595 476.502 471.086 474.097 471.353 472.895V468.085C475.081 469.287 483.096 472.093 485.333 473.696C487.57 475.3 493.455 476.235 496.118 476.502H499.714M10.3884 403.553L4.39669 382.31L2 331.005M10.3884 403.553H191.339H399.851L575.609 402.351M2 331.005H194.135C213.974 332.876 261.242 336.537 291.601 336.216C321.959 335.895 369.227 332.609 389.066 331.005H582M2 331.005L7.59229 322.989M582 331.005V370.285C580.669 378.569 577.526 396.579 575.609 402.351M582 331.005L577.606 322.989M7.59229 322.989H577.606M7.59229 322.989C8.52433 301.078 11.1873 254.289 14.3829 242.425M577.606 322.989C577.207 317.645 576.248 304.071 575.609 292.527C574.97 280.983 571.614 254.049 570.017 242.024M14.3829 242.425C17.7056 230.089 21.0283 218.308 26.4201 209.157M14.3829 242.425L35.1543 242.41M547.647 209.558V199.938C544.585 192.724 537.661 176.05 534.466 167.071C530.471 155.848 516.091 125.386 509.3 110.957C505.094 102.018 495.186 85.1316 487.776 72.8793M547.647 209.558H557.234C558.433 209.558 561.229 210.84 562.826 215.971C564.424 221.101 568.286 235.477 570.017 242.024M547.647 209.558V221.182L552.441 242.037M570.017 242.024L552.441 242.037M487.776 72.8793C485.617 69.3091 483.67 66.1324 482.138 63.6605L481.25 60.4539M487.776 72.8793L489.328 42.818H475.116M475.116 42.818L470.953 34H112.248L106.61 43.2188M475.116 42.818L478.143 49.231L481.25 60.4539M99.1141 68.4703C91.1711 82.855 76.7864 108.972 72.303 117.37C67.5096 126.348 50.3333 167.606 42.3444 187.112C40.7466 189.517 36.0331 196.251 29.9614 203.946C28.685 205.564 27.5102 207.307 26.4201 209.157M99.1141 68.4703C99.6633 67.4757 100.182 66.5372 100.664 65.6645L100.847 62.458M99.1141 68.4703L95.0716 43.2188H106.61M106.61 43.2188L101.463 51.6359L100.847 62.458M100.847 62.458C109.174 59.6523 130.942 53.8805 151.394 53.2392C176.959 52.4376 246.463 49.231 288.006 48.8302C329.548 48.4294 409.039 51.6359 425.416 52.8384C438.518 53.8004 468.098 58.3162 481.25 60.4539M70.7052 242.384L515.691 242.063M70.7052 242.384C72.7508 228.204 76.4836 203.514 79.594 185.91M70.7052 242.384L35.1543 242.41M504.507 185.91C504.107 183.104 503.069 175.408 502.11 167.071C500.912 156.65 494.521 143.022 484.534 119.374C476.545 100.455 464.429 79.1587 459.369 70.8752C437.666 68.8711 387.788 64.8629 361.904 64.8629C329.548 64.8629 260.843 64.4621 230.884 64.8629C206.917 65.1836 150.861 69.5391 125.829 71.6768C123.166 76.2194 115.843 89.3128 107.854 105.345C97.8678 125.386 87.0826 155.448 83.4876 167.071C82.5326 170.159 81.1402 177.159 79.594 185.91M504.507 185.91L515.691 242.063M504.507 185.91C473.084 184.974 405.843 183.104 388.267 183.104C366.298 183.104 279.617 183.104 259.645 183.104C243.667 183.104 132.953 184.974 79.594 185.91M515.691 242.063L552.441 242.037M26.4201 209.157L37.9504 210.76L35.1543 228.797V242.41M188.942 250.842H156.986V304.551H188.942M188.942 250.842V304.551M188.942 250.842H395.857M188.942 304.551H395.857M395.857 250.842H429.011V304.551H395.857M395.857 250.842V304.551M85.4849 181.1C89.3462 167.606 98.9063 136.85 106.256 121.779C115.444 102.941 124.231 81.6972 127.427 79.2923C130.623 76.8874 159.383 74.0817 186.945 72.8793C214.507 71.6768 263.639 71.276 291.201 70.8752C318.763 70.4744 379.479 72.8793 398.253 72.8793C417.028 72.8793 444.19 75.2842 451.78 76.4866C457.851 77.4486 464.163 90.5152 466.559 96.9283C474.016 111.759 489.727 144.706 492.923 157.852C496.118 170.999 497.983 180.165 498.515 183.104C467.491 182.035 402.328 179.817 389.865 179.497C377.402 179.176 286.674 179.363 242.868 179.497L85.4849 181.1Z" stroke="black" stroke-width="3"/>
<path d="M189 305V252H396V305H189Z" fill="black"/>
<path d="M246 2.16471V34H83V1L246 2.16471Z" fill="black" stroke="black"/>
<path d="M20 306V286H117V306H20Z" fill="#FF0000"/>
<path d="M468 304.224V286L564.624 286.776L567 305L468 304.224Z" fill="#FF0000"/>
<path d="M341 1V34H503V1H341Z" fill="#FF0000"/>
<path d="M246 7V31.338V34L341 33.2394V7H246Z" stroke="black"/>
<path d="M158 305V251H189.484V305H158Z" fill="#FF0000"/>
<path d="M395.922 305V251.403H429V305H395.922Z" fill="#FF0000"/>
<path d="M158 305V251H189.484V305H158Z" stroke="#FF0000"/>
<path d="M395.922 305V251.403H429V305H395.922Z" stroke="#FF0000"/>
</svg>
