<svg width="583" height="535" viewBox="0 0 583 535" fill="none" xmlns="http://www.w3.org/2000/svg">
<path d="M57.772 229.665C51.0793 219.148 37.1895 213.597 31.0812 212.137C28.8237 213.73 23.5121 217.714 20.3252 220.901C16.3415 224.885 15.1464 230.462 13.9513 234.445C12.9274 237.858 11.6938 245.334 11.561 248.787C14.8808 252.77 22.4764 261.853 26.3007 266.315C30.1251 270.777 35.0649 274.017 37.0567 275.079L55.3817 278.266L76.8937 280.656L86.4546 281.055C79.6823 268.307 64.4646 240.182 57.772 229.665Z" fill="#FF0000"/>
<path d="M522.271 228.866C528.964 218.349 544.447 212.4 550.555 210.939C553.344 212.533 557.447 216.209 559.718 220.102C562.507 224.882 563.702 229.663 565.694 233.647C567.287 236.834 569.544 243.739 569.677 247.191C566.357 251.175 558.364 261.054 554.539 265.516C550.715 269.978 542.588 277.202 540.596 278.264L525.458 280.256L503.548 281.849L493.19 282.248C499.962 269.5 515.579 239.383 522.271 228.866Z" fill="#FF0000"/>
<path d="M205.168 314.516V304.955L375.671 305.353V314.516H205.168Z" fill="black" stroke="black" stroke-width="3"/>
<path d="M103.584 59.9604C139.438 55.0472 226.999 45.2207 290.42 45.2207C353.84 45.2207 441.137 55.0472 476.857 59.9604C486.551 74.8329 508.727 110.872 519.881 136.049C531.035 161.226 540.198 191.157 543.385 202.975C543.65 204.303 545.775 207.915 552.149 211.739C560.116 216.52 567.287 235.642 569.677 247.194C571.59 256.437 574.458 307.083 575.653 331.25L581.23 339.218C581.496 347.716 581.389 367.263 578.84 377.461C575.653 390.209 563.702 426.461 561.312 437.615C560.926 439.415 560.599 443.07 560.322 447.973C559.226 467.385 558.921 506.364 558.921 527.248C559.187 528.842 558.364 532.188 552.946 532.826C547.528 533.463 516.96 533.091 502.353 532.826C500.892 532.294 497.891 530.276 497.572 526.452C497.254 522.627 497.44 490.864 497.572 475.46C494.784 475.195 488.25 474.425 484.426 473.469C480.602 472.512 477.521 468.555 476.459 466.696C474.479 466.102 471.28 465.194 468.093 464.391C464.866 463.578 461.651 462.873 459.727 462.713C455.903 462.394 379.788 462.58 342.208 462.713C341.81 460.853 340.694 456.657 339.419 454.745C337.826 452.355 335.834 451.558 332.647 451.558C329.46 451.558 329.062 455.94 327.867 459.924C326.672 463.908 316.712 477.054 302.371 476.655C288.03 476.257 274.485 463.509 272.892 458.33C271.298 453.152 270.501 451.558 266.916 451.558C263.331 451.558 264.526 457.135 260.941 459.924C258.072 462.155 245.935 462.713 240.225 462.713L121.909 464.832L121.113 473.867C120.581 474.531 118.961 475.859 116.731 475.859C114.5 475.859 112.349 474.531 111.552 473.867V465.017L106.771 465.103C105.443 467.626 101.593 472.911 96.8121 473.867C92.0316 474.823 86.0561 475.593 83.6659 475.859V526.053C83.9314 527.912 83.2675 531.71 78.487 532.029C73.7066 532.348 44.0944 532.162 29.8859 532.029C28.1596 532.294 24.4681 531.71 23.512 527.248C22.5894 522.943 21.8399 474.025 21.5499 447.574C21.5394 446.614 21.5294 445.684 21.5201 444.786C16.0757 427.258 4.94794 390.847 3.99185 385.429C3.03576 380.011 2.26558 352.895 2 340.015L5.9837 329.657C7.70997 304.958 11.2422 254.206 11.5609 248.788C11.9593 242.016 14.7478 224.089 24.3087 216.918C33.8696 209.748 39.0484 204.967 39.0484 203.772C39.0484 202.577 37.4549 199.39 39.0484 193.813C40.6419 188.236 58.5685 140.83 65.7392 126.488C71.4757 115.015 89.907 82.4019 98.4055 67.5294L103.584 59.9604Z" fill="white"/>
<path d="M103.584 59.9604C139.438 55.0472 226.999 45.2207 290.42 45.2207C353.84 45.2207 441.137 55.0472 476.857 59.9604M103.584 59.9604L98.4056 67.5294C89.907 82.4019 71.4757 115.015 65.7392 126.488C58.5685 140.83 40.6419 188.236 39.0484 193.813C37.4549 199.39 39.0484 202.577 39.0484 203.772M103.584 59.9604V82.6675M476.857 59.9604C486.551 74.8329 508.727 110.872 519.881 136.049C531.035 161.226 540.198 191.157 543.385 202.975M476.857 59.9604L475.662 78.2854M543.385 202.975C543.65 204.303 545.775 207.915 552.149 211.739C560.116 216.52 567.287 235.642 569.677 247.194M543.385 202.975L532.629 198.593C526.653 181.862 513.507 145.929 508.727 136.049C503.946 126.169 484.692 93.4235 475.662 78.2854M569.677 247.194C571.59 256.437 574.458 307.083 575.653 331.25M569.677 247.194C562.374 256.755 546.413 276.355 540.995 278.267M575.653 331.25L581.23 339.218M575.653 331.25C568.588 327.78 554.373 320.723 550.438 318.503M575.653 331.25L5.9837 329.657M581.23 339.218C581.496 347.716 581.389 367.263 578.84 377.461C575.653 390.209 563.702 426.461 561.312 437.615C560.926 439.415 560.599 443.07 560.322 447.973M581.23 339.218L2 340.015M497.572 475.46C497.44 490.864 497.254 522.627 497.572 526.452C497.891 530.276 500.892 532.294 502.353 532.826C516.96 533.091 547.528 533.463 552.946 532.826C558.364 532.188 559.187 528.842 558.921 527.248C558.921 506.364 559.226 467.385 560.322 447.973M497.572 475.46C494.784 475.195 488.25 474.425 484.426 473.469C480.602 472.512 477.521 468.555 476.459 466.696C474.479 466.102 471.28 465.194 468.093 464.391M497.572 475.46L498.767 441.997M83.6659 475.859C86.0561 475.593 92.0316 474.823 96.8121 473.867C101.593 472.911 105.443 467.626 106.771 465.103L111.552 465.017M83.6659 475.859V526.053C83.9314 527.912 83.2675 531.71 78.487 532.029C73.7066 532.348 44.0944 532.162 29.8859 532.029C28.1596 532.294 24.4681 531.71 23.512 527.248C22.5894 522.943 21.8399 474.025 21.5499 447.574M83.6659 475.859V441.997M2 340.015C2.26558 352.895 3.03576 380.011 3.99185 385.429C4.94794 390.847 16.0757 427.258 21.5201 444.786C21.5294 445.684 21.5394 446.614 21.5499 447.574M2 340.015L5.9837 329.657M5.9837 329.657C7.70997 304.958 11.2422 254.206 11.5609 248.788M5.9837 329.657C8.90508 328.462 15.7039 325.673 19.5283 324.08C24.3087 322.088 31.8778 320.494 35.0647 318.503M11.5609 248.788C11.9593 242.016 14.7478 224.089 24.3087 216.918C33.8696 209.748 39.0484 204.967 39.0484 203.772M11.5609 248.788C17.4036 256.755 30.6826 273.168 37.0566 275.08M39.0484 203.772L52.9914 193.813C58.5685 178.011 70.8383 143.777 75.3001 133.26C79.7618 122.744 96.0153 95.1498 103.584 82.6675M103.584 82.6675C105.045 80.4101 110.357 75.6562 119.918 74.7001C129.478 73.744 170.643 72.1771 190.031 71.5131C205.567 71.1148 239.827 70.2383 252.575 69.9196C265.323 69.601 339.685 69.2557 375.273 69.1229C394.395 70.0524 434.789 72.0708 443.394 72.7082C451.999 73.3456 468.491 76.6919 475.662 78.2854M91.6333 124.098C87.2512 134.854 73.3082 174.691 70.5196 182.658C68.2888 189.032 68.2622 194.609 68.5278 196.601C83.2675 196.203 115.296 195.406 125.495 195.406C135.693 195.406 183.126 194.078 205.567 193.414H336.631C364.251 193.547 422.201 193.892 433.036 194.211C443.872 194.53 491.464 195.937 513.906 196.601C508.859 180.401 497.493 144.893 492.394 132.464C492.079 131.698 491.748 130.9 491.401 130.074M91.6333 124.098C95.1389 115.493 107.701 92.3612 113.544 81.8707C119.121 80.6756 135.056 78.1261 154.177 77.4887C178.08 76.6919 216.323 75.0985 230.664 75.0985C242.137 75.0985 321.758 75.0985 360.135 75.0985C374.476 75.4968 405.389 76.3732 414.313 76.6919C425.467 77.0903 450.166 79.0822 458.532 79.8789C466.898 80.6756 469.288 82.2691 470.882 85.0577C472.396 87.7089 484.714 114.126 491.401 130.074M91.6333 124.098C87.5168 132.729 78.6464 151.187 76.0968 155.968C72.9099 161.943 64.9425 183.057 62.9506 189.829C60.9588 196.601 59.3653 202.179 64.9425 202.577C69.4042 202.896 111.95 202.178 132.665 201.78C140.349 201.502 151.674 201.093 162.941 200.688M491.401 130.074L511.914 170.707C514.835 178.94 520.837 196.283 521.475 199.788C522.112 203.294 516.694 203.374 513.906 202.975C496.908 202.311 460.444 200.904 450.565 200.585C442.842 200.336 429.355 199.775 417.898 199.39M37.0566 275.08C45.024 277.47 72.9099 280.657 84.4626 281.056M37.0566 275.08C37.4549 288.89 37.6143 316.909 35.0647 318.503M84.4626 281.056V318.503M84.4626 281.056C93.2711 281.36 154.646 281.929 188.437 282.211M540.995 278.267C535.577 280.179 506.336 281.72 492.394 282.251H393.996M540.995 278.267C542.323 286.367 545.058 303.444 545.377 306.95C545.775 311.332 546.572 316.112 549.759 318.104C549.929 318.21 550.157 318.344 550.438 318.503M35.0647 318.503H84.4626M84.4626 318.503H197.6M550.438 318.503H386.029M417.898 199.39C411.034 199.159 404.898 198.992 401.167 198.992C393.199 198.992 351.105 198.195 331.054 197.796C291.217 198.195 209.152 199.071 199.592 199.39C194.039 199.575 178.546 200.127 162.941 200.688M417.898 199.39C414.313 211.208 406.425 236.757 403.557 244.406C400.689 252.054 395.988 272.823 393.996 282.251M393.996 282.251H193.218C191.697 282.238 190.101 282.225 188.437 282.211M393.996 282.251L386.029 318.503M162.941 200.688C166.792 210.613 174.972 232.534 176.884 240.82C178.797 249.106 185.383 271.867 188.437 282.211M188.437 282.211L197.6 318.503M197.6 318.503H386.029M21.5499 447.574C22.3169 447.574 32.2761 449.168 44.6256 445.981C54.5052 443.431 71.582 442.263 78.8854 441.997H83.6659M560.322 447.973C556.535 448.106 548.245 448.292 545.377 447.973C541.791 447.574 539.003 446.379 533.824 444.387C529.681 442.794 518.022 442.13 512.71 441.997H498.767M83.6659 441.997H498.767M458.93 463.111C458.93 463.748 458.93 470.813 458.93 474.265C459.329 474.929 460.763 476.257 463.312 476.257C465.862 476.257 467.562 474.929 468.093 474.265V464.391M468.093 464.391C464.866 463.578 461.651 462.873 459.727 462.713C455.903 462.394 379.788 462.58 342.208 462.713C341.81 460.853 340.694 456.657 339.419 454.745C337.826 452.355 335.834 451.558 332.647 451.558C329.46 451.558 329.062 455.94 327.867 459.924C326.672 463.908 316.712 477.054 302.371 476.655C288.03 476.257 274.485 463.509 272.892 458.33C271.298 453.152 270.501 451.558 266.916 451.558C263.331 451.558 264.526 457.135 260.941 459.924C258.072 462.155 245.935 462.713 240.225 462.713L121.909 464.832M111.552 465.017V473.867C112.349 474.531 114.5 475.859 116.731 475.859C118.961 475.859 120.581 474.531 121.113 473.867C121.378 470.855 121.909 464.832 121.909 464.832M111.552 465.017L121.909 464.832" stroke="black" stroke-width="3"/>
<path d="M197.721 318.349L188.401 282.467H393.909L385.987 318.349H197.721Z" fill="black"/>
<path d="M84.4629 318.502V281.453L188.437 282.25L197.6 318.502H84.4629Z" fill="#FF0000"/>
<path d="M386.029 318.502L393.598 282.25H493.987L490.402 318.103L386.029 318.502Z" fill="#FF0000"/>
<path d="M103.584 59.561L112.747 33.667H466.101L476.857 59.9594" stroke="black" stroke-width="3"/>
<path d="M243.014 1.39941V34.4641H81.2759V1.39941H243.014Z" fill="black" stroke="black"/>
<path d="M499.165 1V34.0647H337.427V1H499.165Z" fill="#FF0000"/>
<path d="M337.427 5.38086H243.014V34.0635H337.427V5.38086Z" stroke="black" stroke-width="3"/>
<rect x="179.5" y="377.5" width="251.148" height="47.957" rx="11.5" fill="black" stroke="white" stroke-width="3"/>
<path d="M366.541 376.955V426.638" stroke="white" stroke-width="3"/>
<rect x="373" y="409" width="48" height="8" rx="4" fill="white"/>
</svg>
