<svg width="1003" height="821" viewBox="0 0 1003 821" fill="none" xmlns="http://www.w3.org/2000/svg">
<path d="M482.238 359.5L510.238 75L940.738 200L841.238 453L353.738 807" stroke="#FF0A0A" stroke-width="3"/>
<path d="M161.238 161L510.238 74.5L49.2383 391.5L161.238 161Z" stroke="#FF0A0A" stroke-width="3"/>
<path d="M46.7383 394.5L354.238 805.5L482.238 358.5" stroke="#FF0A0A" stroke-width="3"/>
<path d="M509.07 69.8396L520.118 50.5677C518.967 49.2644 515.46 46.5498 513.142 43.721C510.166 40.0892 508.648 33.3815 508.887 29.9756C509.126 26.5697 511.344 23.3025 515.473 21.1476C518.776 19.4236 525.305 20.3712 528.156 21.0604L532.908 13.5706C532.641 12.6554 532.045 10.2828 531.8 8.1141C531.493 5.40322 533.636 2.05098 538.692 1.99718C544.101 1.93964 548.45 4.63836 553.226 7.41867C557.047 9.64291 560.261 12.5133 561.669 14.6128C562.645 16.0667 563.907 19.5645 561.102 22.6925C558.297 25.8205 555.194 25.4043 553.216 25.2654L549.206 32.8073C550.911 34.4755 554.572 38.514 555.568 41.3221C556.564 44.1303 556.787 48.7423 553.264 52.8956C549.74 57.0489 545.731 57.5008 540.486 57.8658C535.24 58.2309 529.782 55.7286 527.052 54.4775C523.188 61.1332 515.303 74.5314 514.682 74.8789C513.906 75.3134 511.398 75.6262 509.735 74.5315C508.405 73.6557 508.737 71.0386 509.07 69.8396Z" fill="#FF0A0A"/>
<path d="M163.467 156.029L147.594 140.634C147.989 139.757 149.398 137.793 150.389 135.978C151.716 133.549 153.184 131.323 154.025 128.631C155.545 123.769 155.499 119.483 152.835 116.529C150.846 114.323 147.213 113.233 144.131 113.578C140.021 114.038 136.702 116.353 134.669 117.771L128.731 112.289C129.064 111.756 129.789 110.167 130.024 108.079C130.318 105.468 128.077 103.121 125.791 102.009C122.59 100.452 118.39 102.66 115.139 104.928C111.887 107.196 106.964 111.832 104.53 117.439C102.792 121.444 103.304 125.211 106.375 127.881C108.832 130.017 112.532 129.201 114.075 128.525L119.465 134.089C118.664 135.249 116.899 138.465 116.253 142.043C115.606 145.622 116.308 148.621 119.114 151.777C121.919 154.933 125.767 154.274 129.506 153.25C133.057 152.277 139.519 147.97 142.609 145.615C147.717 150.773 158.116 161.264 158.843 161.96C159.752 162.83 161.535 162.789 163.771 161.23C165.56 159.982 164.313 157.243 163.467 156.029Z" fill="#FF0A0A"/>
<path d="M841.467 448.029L825.594 432.634C825.989 431.757 827.398 429.793 828.389 427.978C829.716 425.549 831.184 423.323 832.025 420.631C833.545 415.769 833.499 411.483 830.835 408.529C828.846 406.323 825.213 405.233 822.131 405.578C818.021 406.038 814.702 408.353 812.669 409.771L806.731 404.289C807.064 403.756 807.789 402.167 808.024 400.079C808.318 397.468 806.077 395.121 803.791 394.009C800.59 392.452 796.39 394.66 793.139 396.928C789.887 399.196 784.964 403.832 782.53 409.439C780.792 413.444 781.304 417.211 784.375 419.881C786.832 422.017 790.532 421.201 792.075 420.525L797.465 426.089C796.664 427.249 794.899 430.465 794.253 434.043C793.606 437.622 794.308 440.621 797.114 443.777C799.919 446.933 803.767 446.274 807.506 445.25C811.057 444.277 817.519 439.97 820.609 437.615C825.717 442.773 836.116 453.264 836.843 453.96C837.752 454.83 839.535 454.789 841.771 453.23C843.56 451.982 842.313 449.243 841.467 448.029Z" fill="#FF0A0A"/>
<path d="M941.621 203.698C943.333 204.292 945.761 201.971 946.76 200.736L947.067 200.277C947.484 200.507 949.059 201.161 950.673 201.585C952.691 202.115 958.193 203.742 964.096 202.598C969.998 201.453 974.843 197.31 977.556 194.274C980.158 191.363 981.43 188.642 982.242 185.081C983.133 181.18 983.428 178.285 982.954 175.921C982.497 173.644 981.857 171.378 981.43 170.308C983.327 168.649 985.562 165.103 986.512 162.297C987.462 159.491 987.473 156.989 985.786 153.119C984.016 149.059 982.32 146.366 978.884 144.115C975.217 141.712 970.074 140.306 966.87 140.596C962.803 140.965 960.272 142.1 956.838 144.969C953.564 147.703 952.613 151.167 952.305 152.944C952.051 152.997 951.363 153.092 950.654 153.049C949.217 153.031 941.724 155.374 937.531 159.485C933.339 163.595 932.051 168.289 931.161 172.189C930.271 176.089 930.359 179.707 932.434 185.286C934.093 189.748 938.011 194.301 939.763 196.02C939.364 196.814 938.562 198.688 938.536 199.832C938.504 201.261 939.481 202.956 941.621 203.698Z" fill="#FF0A0A"/>
<path d="M483.838 358.828C485.157 357.696 484.387 354.584 483.838 353.17L483.602 352.698C483.995 352.462 485.299 351.472 486.43 350.341C487.843 348.926 491.849 345.154 493.734 339.731C495.62 334.309 494.492 328.331 493.263 324.642C492.085 321.106 490.426 318.759 487.843 316.391C485.016 313.797 482.74 312.174 480.539 311.44C478.418 310.732 476.219 310.182 475.119 310.025C474.648 307.667 472.763 304.131 470.877 302.009C468.992 299.887 466.909 298.686 462.866 298.237C458.624 297.765 455.559 297.884 452.026 299.651C448.256 301.538 444.607 305.118 443.308 307.903C441.658 311.44 441.388 314.072 442.129 318.277C442.836 322.285 445.271 324.721 446.607 325.821C446.528 326.057 446.277 326.67 445.9 327.236C445.193 328.415 443.543 335.723 444.957 341.146C446.371 346.568 449.67 349.869 452.498 352.462C455.325 355.056 458.389 356.706 464.044 357.649C468.568 358.404 474.255 357.335 476.533 356.706C477.004 357.414 478.182 358.97 479.125 359.535C480.303 360.243 482.188 360.243 483.838 358.828Z" fill="#FF0A0A"/>
<path d="M354.063 799.449L368.386 782.603C367.908 781.768 366.318 779.948 365.157 778.237C363.604 775.946 361.929 773.871 360.833 771.272C358.854 766.578 358.488 762.307 360.857 759.112C362.625 756.725 366.137 755.291 369.238 755.339C373.373 755.403 376.899 757.389 379.058 758.605L384.443 752.579C384.06 752.08 383.186 750.569 382.752 748.512C382.209 745.942 384.214 743.391 386.383 742.065C389.42 740.208 393.812 742.002 397.267 743.948C400.721 745.893 406.066 750.036 409.026 755.384C411.141 759.203 410.992 763.002 408.192 765.954C405.951 768.316 402.19 767.859 400.589 767.335L395.757 773.389C396.666 774.468 398.732 777.499 399.718 780.999C400.705 784.499 400.294 787.551 397.804 790.962C395.314 794.372 391.421 794.086 387.601 793.425C383.973 792.797 377.128 789.131 373.826 787.082C369.236 792.707 359.892 804.147 359.235 804.91C358.414 805.863 356.634 805.993 354.26 804.655C352.36 803.585 353.337 800.739 354.063 799.449Z" fill="#FF0A0A"/>
<path d="M49.8189 391.734L40.3309 371.468C41.5473 370.233 45.1659 367.738 47.6293 365.043C50.792 361.583 52.7383 354.91 52.7383 351.45C52.7383 347.991 50.792 344.53 46.8995 342.059C43.7854 340.082 37.3303 340.576 34.492 341.071L30.3562 333.162C30.6805 332.256 31.4266 329.9 31.8159 327.725C32.3024 325.007 30.4358 321.466 25.4905 321.053C20.2009 320.61 15.7591 323.03 10.8934 325.501C7.00088 327.478 3.65763 330.151 2.13525 332.174C1.08102 333.574 -0.394808 337.02 2.13535 340.381C4.6655 343.742 7.7308 343.542 9.67705 343.542L13.083 351.45C11.299 353.016 7.43886 356.838 6.27109 359.606C5.10333 362.374 4.5681 367.02 7.7308 371.468C10.8935 375.917 14.786 376.658 19.895 377.4C25.004 378.141 30.5184 375.999 33.2756 374.928C36.6005 381.931 43.3962 396.034 43.9801 396.429C44.71 396.924 47.1428 397.418 48.8458 396.429C50.2082 395.638 50.0622 392.969 49.8189 391.734Z" fill="#FF0A0A"/>
</svg>
