<svg width="80" height="170" viewBox="0 0 80 170" fill="none" xmlns="http://www.w3.org/2000/svg">
<path d="M16.4142 0.585786C15.6332 -0.195262 14.3668 -0.195262 13.5858 0.585786L0.857864 13.3137C0.0768158 14.0948 0.0768158 15.3611 0.857864 16.1421C1.63891 16.9232 2.90524 16.9232 3.68629 16.1421L15 4.82843L26.3137 16.1421C27.0948 16.9232 28.3611 16.9232 29.1421 16.1421C29.9232 15.3611 29.9232 14.0948 29.1421 13.3137L16.4142 0.585786ZM17 66L17 2H13L13 66H17Z" fill="#FF0000"/>
<path d="M13.5858 169.414C14.3668 170.195 15.6332 170.195 16.4142 169.414L29.1421 156.686C29.9232 155.905 29.9232 154.639 29.1421 153.858C28.3611 153.077 27.0948 153.077 26.3137 153.858L15 165.172L3.68629 153.858C2.90524 153.077 1.63891 153.077 0.857864 153.858C0.0768158 154.639 0.0768158 155.905 0.857864 156.686L13.5858 169.414ZM13 104L13 168H17L17 104H13Z" fill="#FF0000"/>
<path d="M20 2H80" stroke="#FF0A0A" stroke-width="4" stroke-dasharray="4 4"/>
<path d="M20 168H80" stroke="#FF0A0A" stroke-width="4" stroke-dasharray="4 4"/>
</svg>
