<svg width="147" height="114" viewBox="0 0 147 114" fill="none" xmlns="http://www.w3.org/2000/svg">
<path d="M57.4788 33.1995L38.5411 28.4289C35.9439 28.2066 29.3324 28.9544 26.617 30.0353C23.1397 31.4196 19.9586 34.1931 17.3142 37.381C14.6699 40.5689 12.3567 48.7746 11.578 54.4856C10.7992 60.1966 11.8861 68.4306 16.6091 74.0868C21.332 79.7429 27.4554 82.7369 36.6095 81.5744C44.0235 80.6328 61.4151 66.6636 65.0844 61.9495C68.3426 57.7636 70.3027 53.4665 71.6947 46.758C73.0866 40.0502 62.4141 35.5473 57.4788 33.1995Z" fill="black"/>
<path d="M102.695 44.7369L121.959 48.6534C124.412 49.5802 130.08 53.1242 132.07 55.2777C134.617 58.0355 136.288 61.9178 137.291 65.941C138.293 69.9641 136.798 78.3693 135.004 83.8584C133.21 89.3476 128.619 96.3027 121.859 99.3545C115.099 102.406 108.235 102.449 100.442 97.4274C94.1299 93.3603 84.473 73.212 83.2091 67.3675C82.0868 62.1778 82.1906 57.4512 83.8653 50.7962C85.5399 44.1419 97.1907 44.7126 102.695 44.7369Z" fill="black"/>
<path d="M15.3083 45.2549L10.4192 44.3062L9.8808 47.4058L15.7626 48.9651L44.8955 30.5177L115.593 47.9284L133.904 71.5425L135.773 74.0645L140.662 75.0132L139.818 78.6107L133.44 76.7462L86.4378 51.9529C85.6881 50.5769 83.6309 47.619 81.4007 46.7961C79.1705 45.9733 76.8811 45.6173 76.0153 45.5421C75.3148 45.5687 73.4092 45.9977 71.3903 47.5005C69.3713 49.0033 33.1611 46.6296 15.3083 45.2549Z" stroke="black"/>
</svg>
