<svg width="90" height="109" viewBox="0 0 90 109" fill="none" xmlns="http://www.w3.org/2000/svg">
<path d="M6.43018 92.435L6.46459 81.8975L9.39036 79.637L13.1201 79.3249L13.626 73.3282L15.7404 71.2276L21.2518 71.4077L21.5983 64.5998L26.1391 64.1283L29.7163 60.8976L25.3556 55.8578L32.1703 54.0967C32.1703 54.0967 31.6565 53.6319 31.2066 51.3376C30.5699 48.0913 31.2352 42.9056 32.7049 39.6681C34.1745 36.4305 38.4022 32.2308 42.7836 30.9482C46.2887 29.922 51.3787 29.6818 55.5878 31.8013C59.128 33.5839 61.8966 36.0369 64.6351 41.3958C66.1565 44.3729 67.0946 49.1197 65.8902 54.2072C64.7398 59.0666 61.2846 62.5711 57.1002 65.2021C53.2013 67.6536 46.0193 65.9769 43.1584 64.9949L41.3492 72.9328L37.4738 68.2187C30.3727 74.9504 15.7475 88.834 14.056 90.5145C12.3645 92.195 8.26733 92.495 6.43018 92.435Z" fill="black"/>
<circle cx="53.0173" cy="25.1444" r="16.6202" transform="rotate(33.8772 53.0173 25.1444)" stroke="black" stroke-width="3"/>
<path d="M53.494 101.92L48.4232 92.6832L49.889 89.2889L53.0016 87.2104L50.5414 81.7182L51.3747 78.8565L56.2846 76.3462L53.2922 70.2215L57.0373 67.6108L58.6036 63.0522L52.3481 60.7531L57.4587 55.9133C57.4587 55.9133 56.7842 55.7553 55.2798 53.9655C53.1513 51.4331 51.2232 46.5735 50.9419 43.0291C50.6607 39.4847 52.3271 33.7633 55.54 30.5201C58.1104 27.9255 62.4479 25.2514 67.157 25.0684C71.1177 24.9145 74.7277 25.7208 79.7181 29.0843C82.4905 30.9529 85.6092 34.6523 87.018 39.6871C88.3637 44.496 87.0367 49.2351 84.6489 53.5629C82.424 57.5954 75.3279 59.6049 72.3492 60.1304L74.6086 67.9521L68.9355 65.7031C65.9805 75.031 59.9038 94.2592 59.2371 96.5485C58.5705 98.8378 55.1306 101.084 53.494 101.92Z" fill="black"/>
</svg>
