<svg width="75" height="79" viewBox="0 0 75 79" fill="none" xmlns="http://www.w3.org/2000/svg">
<path d="M21.6471 61.9867L24.8283 34.0565L4.17151 56.0726C2.9526 58.9393 2.29745 65.4336 9.42814 68.4766C16.5588 71.5196 20.5452 65.4179 21.6471 61.9867Z" fill="black"/>
<path d="M26.7951 7.08456L29.8879 7.00846C32.3165 5.09199 37.2819 3.14392 40.0675 5.6749C43.5494 8.83862 43.4595 11.4713 41.8231 14.142C40.1571 16.8611 37.5921 18.2692 34.7934 17.7191L32.7679 17.15L24.8283 34.0565M24.8283 34.0565L21.6471 61.9867C20.5452 65.4179 16.5588 71.5196 9.42814 68.4766C2.29745 65.4336 2.9526 58.9393 4.17151 56.0726L24.8283 34.0565Z" stroke="black"/>
<path d="M48.0991 68.7292L52.134 40.9095L30.8128 62.2828C29.5067 65.1109 28.653 71.582 35.6872 74.8419C42.7213 78.1019 46.8927 72.1251 48.0991 68.7292Z" fill="black"/>
<path d="M54.9259 14.0105L58.0195 14.0291C60.5056 12.1879 65.5284 10.3928 68.2351 13.0079C71.6186 16.2767 71.4481 18.9054 69.7307 21.5248C67.9822 24.1916 65.3753 25.5204 62.5948 24.8849L60.5876 24.2541L52.134 40.9095M52.134 40.9095L48.0991 68.7292C46.8927 72.1251 42.7213 78.1019 35.6872 74.8419C28.653 71.582 29.5067 65.1109 30.8128 62.2828L52.134 40.9095Z" stroke="black"/>
</svg>
