<svg width="100" height="148" viewBox="0 0 100 148" fill="none" xmlns="http://www.w3.org/2000/svg">
<path d="M32.1062 140.121L13.8497 133.112L25.8322 94.3736L24.0391 91.5183C24.6667 88.6292 25.7858 82.0765 25.2416 78.9783C24.5614 75.1056 22.9593 67.9897 25.7216 60.7944C27.9315 55.038 34.2172 49.9537 37.0839 48.1311L44.5817 38.0079L47.5832 37.7155L61.6512 4.83356L82.4259 12.8089L70.876 46.6576L72.6691 49.5129C72.3488 53.4831 71.6599 61.5493 71.4666 62.053C71.2249 62.6825 72.6301 64.6666 72.9225 67.6681C73.1564 70.0693 72.6042 74.769 72.2988 76.8188L75.4465 78.0271L76.0844 80.1286L75.0138 82.9172L71.7707 83.8391L69.2525 82.8723C68.6399 83.841 67.0954 86.2336 65.8184 88.0548C64.5414 89.876 60.5762 92.3024 58.7532 93.2879L52.1265 103.023L48.4955 103.074L32.1062 140.121Z" fill="black"/>
<path d="M42.2724 60.9575L48.3905 70.1034M50.0743 72.6205L48.3905 70.1034M48.3905 70.1034L65.3683 64.7678L44.7964 71.3166" stroke="white"/>
</svg>
