<svg width="80" height="153" viewBox="0 0 80 153" fill="none" xmlns="http://www.w3.org/2000/svg">
<path d="M7.54066 54.0532L3.18728 41.7846V41.3888L22.5796 29.9118V16.8516L24.9542 15.2686L30.8906 3L45.5337 3.79152L48.6998 15.2686L51.0744 16.8516L52.6574 29.9118C57.4066 31.4948 67.9338 35.769 72.0498 40.2016C77.1946 45.7422 77.5904 75.8201 77.9862 86.5056C78.3028 95.0541 73.1051 131.754 70.4667 149.036C61.8919 149.432 43.3175 150.223 37.6185 150.223C31.9196 150.223 15.192 148.64 7.54066 147.849C5.69377 135.712 2 108.906 2 98.7742C2 88.6427 5.69377 64.7388 7.54066 54.0532Z" fill="black" stroke="black" stroke-width="4"/>
<path d="M60.5726 44.9502L55.8235 48.512L57.4065 96.0034L64.5302 98.378L69.6751 94.0246L67.6963 52.8654L60.5726 44.9502Z" fill="white"/>
</svg>
