<svg width="130" height="137" viewBox="0 0 130 137" fill="none" xmlns="http://www.w3.org/2000/svg">
<path d="M92.0632 26.0728L25.8415 98.0763C23.6097 97.7548 18.3476 97.2891 15.1536 97.998C11.1611 98.8842 9.37797 100.466 6.4061 103.101C3.51374 105.666 1.66991 110.133 1.34851 112.365C5.78211 110.38 15.4276 106.569 18.541 107.205C22.4326 108.002 23.5541 108.069 25.9208 115.527C27.8142 121.493 25.1624 125.048 23.5998 126.08L6.96808 131.273C9.14386 132.529 14.6102 135.221 19.0693 135.938C24.6432 136.835 29.331 133.74 33.458 130.611C37.585 127.481 37.7195 125.238 39.11 120.82C40.2223 117.285 38.8778 112.177 38.0665 110.064L103.883 38.5994C105.304 38.8722 109.162 39.3661 113.227 39.1596C118.307 38.9014 121.313 35.705 124.284 33.0693C126.91 30.7404 128.437 26.3775 128.748 24.3326L112.082 30.0867C110.4 29.9858 106.569 28.1803 104.702 21.7654C102.836 15.3505 105.495 11.683 107.057 10.6512L123.128 5.42428C122.238 4.62065 119.443 2.28398 114.918 1.55567C109.345 0.658512 103.703 0.883264 96.0437 6.61449C89.916 11.1995 90.8369 21.4971 92.0632 26.0728Z" fill="black" stroke="black"/>
</svg>
