<svg width="100" height="112" viewBox="0 0 100 112" fill="none" xmlns="http://www.w3.org/2000/svg">
<path d="M76.1168 1.35939L1.42743 90.3428C1.45977 92.3305 1.87261 97.5785 3.2653 102.669C5.00616 109.031 9.12618 110.668 12.8162 111.034C16.5062 111.4 18.483 107.108 22.8945 101.497C26.4237 97.0087 26.6494 89.0803 26.3212 85.6772L41.9624 65.824C43.345 66.9377 47.1006 69.6602 51.0625 71.6408C56.0148 74.1166 63.3602 72.7189 64.9902 72.2663C66.2942 71.9043 66.056 70.6868 65.774 70.1233L50.8061 55.8808L53.213 52.8592L68.1739 66.6758L70.1785 64.0868L55.2176 50.2702L58.0337 47.242L73.4039 61.0519L75.4084 58.4629L60.0382 44.653L62.4451 41.6314L78.2245 55.4347L79.8199 52.8524L64.8589 39.0358L67.2658 36.0142L82.636 49.8242L84.6406 47.2352L69.2704 33.4253L72.0865 30.397L87.4567 44.207L89.4612 41.618L74.0911 27.8081L76.4979 24.7865L92.6866 38.5831L94.2888 36.4267L78.9117 22.1909L81.3186 19.1693L93.3595 29.6249C95.0357 32.012 98.4436 35.1662 98.6657 28.6865C98.9432 20.5868 91.7992 9.19941 88.463 5.41914C85.7941 2.39493 79.1202 1.45255 76.1168 1.35939Z" fill="black" stroke="black"/>
</svg>
