<svg width="107" height="70" viewBox="0 0 107 70" fill="none" xmlns="http://www.w3.org/2000/svg">
<path d="M88.3026 18.3811L14.4227 2.8242C14.0965 2.75552 13.0888 2.8499 11.6673 3.77689C9.89039 4.93562 9.16921 8.36052 8.75711 10.3176C8.34501 12.2747 8.88559 16.9872 9.37445 26.7985C9.86332 36.6097 14.8586 46.859 18.4379 51.7004C21.3013 55.5735 25.2789 57.2286 26.9098 57.572L56.7553 63.8566C57.7682 63.8995 60.7777 63.6816 64.7125 62.4663C69.6311 60.9472 74.0862 56.7757 80.3441 48.896C86.602 41.0164 90.1304 31.5401 91.8559 25.7718C93.2364 21.1573 90.0622 18.9219 88.3026 18.3811Z" fill="black" stroke="black" stroke-width="4"/>
<path d="M98.2165 27.1112C95.7239 25.36 91.959 25.2826 90.3882 25.4628L72.1552 53.8137C77.0909 53.8311 88.1828 53.4075 93.0653 51.5743C99.1685 49.2826 103.34 44.0295 104.577 38.1583C105.813 32.2871 101.332 29.3002 98.2165 27.1112Z" stroke="black" stroke-width="4"/>
</svg>
