<svg width="155" height="117" viewBox="0 0 155 117" fill="none" xmlns="http://www.w3.org/2000/svg">
<path d="M71.8618 91.2353L80.3112 79.0841L83.5456 73.0706C83.3037 67.1086 82.7955 54.0643 82.698 49.5826C82.5761 43.9804 86.5647 30.3063 87.6618 28.6345C88.7589 26.9628 90.4618 25.4534 92.8846 26.1026C94.8229 26.6219 95.5144 29.2098 95.6179 30.4388L93.9851 48.5924L100.365 36.9525L115.086 11.0839C116.478 9.92794 119.697 7.92924 121.439 9.18221C123.18 10.4352 122.649 13.5473 122.166 14.9467L112.851 31.8568L110.999 38.7694L125.58 15.5335C127.272 13.2567 131.394 9.09759 134.347 10.6752C137.3 12.2527 135.773 17.0636 134.641 19.2718L121.513 45.073L136.522 24.3633C137.941 23.1055 141.292 20.8581 143.341 21.9314C145.391 23.0048 145.597 26.0305 145.444 27.4092L140.564 35.9301L128.229 52.5382C131.277 49.6419 138.268 43.0464 139.696 41.5943C141.48 39.7792 144.534 39.2868 146.187 40.3851C147.84 41.4833 145.981 47.21 144.417 49.4119C143.166 51.1734 134.596 59.0113 130.467 62.7101C128.401 65.9787 123.627 73.4578 121.06 77.2255C118.492 80.9931 113.418 85.5526 111.202 87.3614L100.599 108.764L71.8618 91.2353Z" fill="black"/>
<path d="M56.679 107.584L56.7469 93.5134L57.5174 87.0676C60.964 82.5618 68.4886 72.6919 71.0139 69.2587C74.1705 64.9672 78.5411 52.1498 78.6012 50.2497C78.6614 48.3496 78.1616 46.2446 75.922 45.4255C74.1303 44.7702 72.178 46.4054 71.4258 47.3049L62.7744 62.3197L64.1733 49.778L66.8588 21.6079C66.4079 19.948 64.9962 16.6339 62.9565 16.6568C60.9167 16.6796 59.6289 19.3908 59.2399 20.7435L57.2444 38.9894L54.9073 45.3792L56.2639 19.3345C56.1919 16.6385 55.2581 11.1499 52.0986 10.7632C48.939 10.3765 47.4977 14.9536 47.172 17.2905L43.2831 44.5369L42.9254 20.2229C42.509 18.4688 41.1308 14.8894 38.9498 14.6042C36.7688 14.3191 34.9547 16.5601 34.3202 17.7163L33.4595 27.0121L33.9785 46.6737C33.1901 42.7546 31.3565 33.8031 31.0394 31.8931C30.643 29.5057 28.5369 27.4539 26.6505 27.4047C24.7641 27.3554 23.0805 32.8264 23.0936 35.394C23.104 37.4481 25.4876 48.2295 26.6781 53.3635C26.4989 57.0354 26.1251 65.4628 26.0633 69.7971C26.0016 74.1313 27.4566 80.4512 28.1918 83.0694L24.7436 105.514L56.679 107.584Z" fill="black"/>
</svg>
