<svg width="167" height="64" viewBox="0 0 167 64" fill="none" xmlns="http://www.w3.org/2000/svg">
<path d="M0.606998 14.8354C1.0926 10.9508 3.23732 4.71923 4.24898 2.08902L6.06998 0.268112C7.08164 0.0657883 10.0762 -0.217465 13.9609 0.268112C18.8169 0.875082 30.9569 5.12387 36.4199 7.55176C41.8828 9.97964 59.4858 16.0493 67.3768 18.4772C73.6895 20.4195 82.147 21.7144 85.5867 22.119C85.789 20.5005 86.3151 16.7777 86.8007 14.8354C87.4077 12.4075 91.0497 7.55176 92.8707 7.55176C94.3275 7.55176 96.715 9.97964 97.7266 11.1936C97.929 11.5982 99.4262 13.5001 103.797 17.8703L103.797 17.8703C109.26 23.333 112.902 26.9748 120.793 31.2236C127.105 34.6226 133.135 35.4724 135.361 35.4724H153.57C158.426 35.4724 162.675 38.5072 165.103 40.9351C167.046 42.8774 167.127 45.3862 166.924 46.3979L163.282 48.2188C159.033 50.6467 133.54 59.7512 128.077 60.9651C122.614 62.1791 110.474 64 104.404 64C98.3336 64 89.2287 61.5721 84.3727 60.3582C79.5167 59.1442 62.5208 51.8606 58.2718 50.0397C54.8726 48.583 47.9528 48.2188 44.9178 48.2188V62.1791H4.24898V40.9351C1.82099 39.4784 0.404665 36.2817 0 34.8654C0 29.8073 0.1214 18.72 0.606998 14.8354Z" fill="black"/>
</svg>
