<svg width="46" height="55" viewBox="0 0 46 55" fill="none" xmlns="http://www.w3.org/2000/svg">
<path d="M21.167 55H14.1113L5.68604 12.583V55H0V0.837402H8.01025L15.481 39.8511V0.837402H21.167V55ZM34.8633 35.9497C38.0729 35.9497 39.6777 33.2935 39.6777 27.981C39.6777 22.6961 38.0729 20.0537 34.8633 20.0537C31.5153 20.0537 29.8413 22.6961 29.8413 27.981C29.8413 33.2935 31.5153 35.9497 34.8633 35.9497ZM34.7803 40.5566C27.6969 40.5566 24.1553 36.3647 24.1553 27.981C24.1553 19.5972 27.6969 15.4053 34.7803 15.4053C41.8636 15.4053 45.4053 19.5972 45.4053 27.981C45.4053 36.3647 41.8636 40.5566 34.7803 40.5566ZM24.2383 50.144H45.4053V55H24.2383V50.144Z" fill="black"/>
</svg>
